%TF.GenerationSoftware,KiCad,Pcbnew,(6.0.5)*%
%TF.CreationDate,2022-05-13T23:52:20-07:00*%
%TF.ProjectId,keyboard-pcb-tutorial,6b657962-6f61-4726-942d-7063622d7475,rev?*%
%TF.SameCoordinates,Original*%
%TF.FileFunction,Copper,L2,Bot*%
%TF.FilePolarity,Positive*%
%FSLAX46Y46*%
G04 Gerber Fmt 4.6, Leading zero omitted, Abs format (unit mm)*
G04 Created by KiCad (PCBNEW (6.0.5)) date 2022-05-13 23:52:20*
%MOMM*%
%LPD*%
G01*
G04 APERTURE LIST*
G04 Aperture macros list*
%AMRoundRect*
0 Rectangle with rounded corners*
0 $1 Rounding radius*
0 $2 $3 $4 $5 $6 $7 $8 $9 X,Y pos of 4 corners*
0 Add a 4 corners polygon primitive as box body*
4,1,4,$2,$3,$4,$5,$6,$7,$8,$9,$2,$3,0*
0 Add four circle primitives for the rounded corners*
1,1,$1+$1,$2,$3*
1,1,$1+$1,$4,$5*
1,1,$1+$1,$6,$7*
1,1,$1+$1,$8,$9*
0 Add four rect primitives between the rounded corners*
20,1,$1+$1,$2,$3,$4,$5,0*
20,1,$1+$1,$4,$5,$6,$7,0*
20,1,$1+$1,$6,$7,$8,$9,0*
20,1,$1+$1,$8,$9,$2,$3,0*%
%AMHorizOval*
0 Thick line with rounded ends*
0 $1 width*
0 $2 $3 position (X,Y) of the first rounded end (center of the circle)*
0 $4 $5 position (X,Y) of the second rounded end (center of the circle)*
0 Add line between two ends*
20,1,$1,$2,$3,$4,$5,0*
0 Add two circle primitives to create the rounded ends*
1,1,$1,$2,$3*
1,1,$1,$4,$5*%
G04 Aperture macros list end*
%TA.AperFunction,ComponentPad*%
%ADD10C,2.250000*%
%TD*%
%TA.AperFunction,ComponentPad*%
%ADD11HorizOval,2.250000X0.655001X0.730000X-0.655001X-0.730000X0*%
%TD*%
%TA.AperFunction,ComponentPad*%
%ADD12HorizOval,2.250000X0.020000X0.290000X-0.020000X-0.290000X0*%
%TD*%
%TA.AperFunction,SMDPad,CuDef*%
%ADD13RoundRect,0.250000X0.450000X-0.262500X0.450000X0.262500X-0.450000X0.262500X-0.450000X-0.262500X0*%
%TD*%
%TA.AperFunction,SMDPad,CuDef*%
%ADD14R,1.200000X0.900000*%
%TD*%
%TA.AperFunction,SMDPad,CuDef*%
%ADD15RoundRect,0.250000X0.475000X-0.250000X0.475000X0.250000X-0.475000X0.250000X-0.475000X-0.250000X0*%
%TD*%
%TA.AperFunction,SMDPad,CuDef*%
%ADD16RoundRect,0.250000X0.625000X-0.375000X0.625000X0.375000X-0.625000X0.375000X-0.625000X-0.375000X0*%
%TD*%
%TA.AperFunction,SMDPad,CuDef*%
%ADD17RoundRect,0.250000X-0.250000X-0.475000X0.250000X-0.475000X0.250000X0.475000X-0.250000X0.475000X0*%
%TD*%
%TA.AperFunction,SMDPad,CuDef*%
%ADD18RoundRect,0.250000X0.250000X0.475000X-0.250000X0.475000X-0.250000X-0.475000X0.250000X-0.475000X0*%
%TD*%
%TA.AperFunction,SMDPad,CuDef*%
%ADD19R,0.500000X2.250000*%
%TD*%
%TA.AperFunction,ComponentPad*%
%ADD20O,1.700000X2.700000*%
%TD*%
%TA.AperFunction,SMDPad,CuDef*%
%ADD21RoundRect,0.250000X-0.450000X0.262500X-0.450000X-0.262500X0.450000X-0.262500X0.450000X0.262500X0*%
%TD*%
%TA.AperFunction,SMDPad,CuDef*%
%ADD22R,1.400000X1.200000*%
%TD*%
%TA.AperFunction,SMDPad,CuDef*%
%ADD23RoundRect,0.250000X-0.475000X0.250000X-0.475000X-0.250000X0.475000X-0.250000X0.475000X0.250000X0*%
%TD*%
%TA.AperFunction,SMDPad,CuDef*%
%ADD24R,1.500000X0.550000*%
%TD*%
%TA.AperFunction,SMDPad,CuDef*%
%ADD25R,0.550000X1.500000*%
%TD*%
%TA.AperFunction,SMDPad,CuDef*%
%ADD26R,1.800000X1.100000*%
%TD*%
%TA.AperFunction,ViaPad*%
%ADD27C,0.800000*%
%TD*%
%TA.AperFunction,Conductor*%
%ADD28C,0.381000*%
%TD*%
%TA.AperFunction,Conductor*%
%ADD29C,0.254000*%
%TD*%
%TA.AperFunction,Conductor*%
%ADD30C,0.200000*%
%TD*%
G04 APERTURE END LIST*
D10*
%TO.P,MX4,1,COL*%
%TO.N,COL1*%
X126881250Y-111887500D03*
D11*
X126226251Y-112617500D03*
D10*
%TO.P,MX4,2,ROW*%
%TO.N,Net-(D4-Pad2)*%
X131921250Y-110807500D03*
D12*
X131901250Y-111097500D03*
%TD*%
D11*
%TO.P,MX3,1,COL*%
%TO.N,COL1*%
X126226251Y-93567500D03*
D10*
X126881250Y-92837500D03*
%TO.P,MX3,2,ROW*%
%TO.N,Net-(D3-Pad2)*%
X131921250Y-91757500D03*
D12*
X131901250Y-92047500D03*
%TD*%
D10*
%TO.P,MX1,1,COL*%
%TO.N,COL0*%
X107831250Y-92837500D03*
D11*
X107176251Y-93567500D03*
D12*
%TO.P,MX1,2,ROW*%
%TO.N,Net-(D1-Pad2)*%
X112851250Y-92047500D03*
D10*
X112871250Y-91757500D03*
%TD*%
%TO.P,MX2,1,COL*%
%TO.N,COL0*%
X107831250Y-111887500D03*
D11*
X107176251Y-112617500D03*
D10*
%TO.P,MX2,2,ROW*%
%TO.N,Net-(D2-Pad2)*%
X112871250Y-110807500D03*
D12*
X112851250Y-111097500D03*
%TD*%
D13*
%TO.P,R3,1*%
%TO.N,+5V*%
X75406250Y-98543750D03*
%TO.P,R3,2*%
%TO.N,Net-(R3-Pad2)*%
X75406250Y-96718750D03*
%TD*%
D14*
%TO.P,D1,1,K*%
%TO.N,ROW0*%
X118618000Y-98487500D03*
%TO.P,D1,2,A*%
%TO.N,Net-(D1-Pad2)*%
X118618000Y-95187500D03*
%TD*%
D15*
%TO.P,C1,1*%
%TO.N,+5V*%
X78581250Y-98581250D03*
%TO.P,C1,2*%
%TO.N,GND*%
X78581250Y-96681250D03*
%TD*%
D16*
%TO.P,F1,1*%
%TO.N,VCC*%
X62706250Y-106175000D03*
%TO.P,F1,2*%
%TO.N,+5V*%
X62706250Y-103375000D03*
%TD*%
D15*
%TO.P,C4,1*%
%TO.N,+5V*%
X96837500Y-102550000D03*
%TO.P,C4,2*%
%TO.N,GND*%
X96837500Y-100650000D03*
%TD*%
D17*
%TO.P,C7,1*%
%TO.N,+5V*%
X81600000Y-115093750D03*
%TO.P,C7,2*%
%TO.N,GND*%
X83500000Y-115093750D03*
%TD*%
D18*
%TO.P,C6,1*%
%TO.N,Net-(C6-Pad1)*%
X77943750Y-105568750D03*
%TO.P,C6,2*%
%TO.N,GND*%
X76043750Y-105568750D03*
%TD*%
D19*
%TO.P,USB1,1,GND*%
%TO.N,GND*%
X68052750Y-93527000D03*
%TO.P,USB1,2,ID*%
%TO.N,unconnected-(USB1-Pad2)*%
X67252750Y-93527000D03*
%TO.P,USB1,3,D+*%
%TO.N,D+*%
X66452750Y-93527000D03*
%TO.P,USB1,4,D-*%
%TO.N,D-*%
X65652750Y-93527000D03*
%TO.P,USB1,5,VBUS*%
%TO.N,VCC*%
X64852750Y-93527000D03*
D20*
%TO.P,USB1,6,SHIELD*%
%TO.N,unconnected-(USB1-Pad6)*%
X62802750Y-89027000D03*
X70102750Y-93527000D03*
X70102750Y-89027000D03*
X62802750Y-93527000D03*
%TD*%
D14*
%TO.P,D4,1,K*%
%TO.N,ROW1*%
X137318750Y-117537500D03*
%TO.P,D4,2,A*%
%TO.N,Net-(D4-Pad2)*%
X137318750Y-114237500D03*
%TD*%
D21*
%TO.P,R4,1*%
%TO.N,Net-(R4-Pad1)*%
X96837500Y-110212500D03*
%TO.P,R4,2*%
%TO.N,GND*%
X96837500Y-112037500D03*
%TD*%
%TO.P,R1,1*%
%TO.N,D-*%
X64547750Y-97131500D03*
%TO.P,R1,2*%
%TO.N,Net-(R1-Pad2)*%
X64547750Y-98956500D03*
%TD*%
D15*
%TO.P,C2,1*%
%TO.N,GND*%
X83343750Y-96200000D03*
%TO.P,C2,2*%
%TO.N,Net-(C2-Pad2)*%
X83343750Y-94300000D03*
%TD*%
D14*
%TO.P,D3,1,K*%
%TO.N,ROW0*%
X137541000Y-98487500D03*
%TO.P,D3,2,A*%
%TO.N,Net-(D3-Pad2)*%
X137541000Y-95187500D03*
%TD*%
D22*
%TO.P,Y1,1,1*%
%TO.N,Net-(C3-Pad2)*%
X88412500Y-96100000D03*
%TO.P,Y1,2,2*%
%TO.N,GND*%
X86212500Y-96100000D03*
%TO.P,Y1,3,3*%
%TO.N,Net-(C2-Pad2)*%
X86212500Y-94400000D03*
%TO.P,Y1,4,4*%
%TO.N,GND*%
X88412500Y-94400000D03*
%TD*%
D23*
%TO.P,C3,1*%
%TO.N,GND*%
X91281250Y-94300000D03*
%TO.P,C3,2*%
%TO.N,Net-(C3-Pad2)*%
X91281250Y-96200000D03*
%TD*%
D24*
%TO.P,U1,1,PE6*%
%TO.N,unconnected-(U1-Pad1)*%
X81612500Y-110362500D03*
%TO.P,U1,2,UVCC*%
%TO.N,+5V*%
X81612500Y-109562500D03*
%TO.P,U1,3,D-*%
%TO.N,Net-(R1-Pad2)*%
X81612500Y-108762500D03*
%TO.P,U1,4,D+*%
%TO.N,Net-(R2-Pad2)*%
X81612500Y-107962500D03*
%TO.P,U1,5,UGND*%
%TO.N,GND*%
X81612500Y-107162500D03*
%TO.P,U1,6,UCAP*%
%TO.N,Net-(C6-Pad1)*%
X81612500Y-106362500D03*
%TO.P,U1,7,VBUS*%
%TO.N,+5V*%
X81612500Y-105562500D03*
%TO.P,U1,8,PB0*%
%TO.N,unconnected-(U1-Pad8)*%
X81612500Y-104762500D03*
%TO.P,U1,9,PB1*%
%TO.N,unconnected-(U1-Pad9)*%
X81612500Y-103962500D03*
%TO.P,U1,10,PB2*%
%TO.N,unconnected-(U1-Pad10)*%
X81612500Y-103162500D03*
%TO.P,U1,11,PB3*%
%TO.N,unconnected-(U1-Pad11)*%
X81612500Y-102362500D03*
D25*
%TO.P,U1,12,PB7*%
%TO.N,unconnected-(U1-Pad12)*%
X83312500Y-100662500D03*
%TO.P,U1,13,~{RESET}*%
%TO.N,Net-(R3-Pad2)*%
X84112500Y-100662500D03*
%TO.P,U1,14,VCC*%
%TO.N,+5V*%
X84912500Y-100662500D03*
%TO.P,U1,15,GND*%
%TO.N,GND*%
X85712500Y-100662500D03*
%TO.P,U1,16,XTAL2*%
%TO.N,Net-(C3-Pad2)*%
X86512500Y-100662500D03*
%TO.P,U1,17,XTAL1*%
%TO.N,Net-(C2-Pad2)*%
X87312500Y-100662500D03*
%TO.P,U1,18,PD0*%
%TO.N,unconnected-(U1-Pad18)*%
X88112500Y-100662500D03*
%TO.P,U1,19,PD1*%
%TO.N,unconnected-(U1-Pad19)*%
X88912500Y-100662500D03*
%TO.P,U1,20,PD2*%
%TO.N,unconnected-(U1-Pad20)*%
X89712500Y-100662500D03*
%TO.P,U1,21,PD3*%
%TO.N,unconnected-(U1-Pad21)*%
X90512500Y-100662500D03*
%TO.P,U1,22,PD5*%
%TO.N,unconnected-(U1-Pad22)*%
X91312500Y-100662500D03*
D24*
%TO.P,U1,23,GND*%
%TO.N,GND*%
X93012500Y-102362500D03*
%TO.P,U1,24,AVCC*%
%TO.N,+5V*%
X93012500Y-103162500D03*
%TO.P,U1,25,PD4*%
%TO.N,unconnected-(U1-Pad25)*%
X93012500Y-103962500D03*
%TO.P,U1,26,PD6*%
%TO.N,unconnected-(U1-Pad26)*%
X93012500Y-104762500D03*
%TO.P,U1,27,PD7*%
%TO.N,ROW0*%
X93012500Y-105562500D03*
%TO.P,U1,28,PB4*%
%TO.N,COL1*%
X93012500Y-106362500D03*
%TO.P,U1,29,PB5*%
%TO.N,COL0*%
X93012500Y-107162500D03*
%TO.P,U1,30,PB6*%
%TO.N,ROW1*%
X93012500Y-107962500D03*
%TO.P,U1,31,PC6*%
%TO.N,unconnected-(U1-Pad31)*%
X93012500Y-108762500D03*
%TO.P,U1,32,PC7*%
%TO.N,unconnected-(U1-Pad32)*%
X93012500Y-109562500D03*
%TO.P,U1,33,~{HWB}/PE2*%
%TO.N,Net-(R4-Pad1)*%
X93012500Y-110362500D03*
D25*
%TO.P,U1,34,VCC*%
%TO.N,+5V*%
X91312500Y-112062500D03*
%TO.P,U1,35,GND*%
%TO.N,GND*%
X90512500Y-112062500D03*
%TO.P,U1,36,PF7*%
%TO.N,unconnected-(U1-Pad36)*%
X89712500Y-112062500D03*
%TO.P,U1,37,PF6*%
%TO.N,unconnected-(U1-Pad37)*%
X88912500Y-112062500D03*
%TO.P,U1,38,PF5*%
%TO.N,unconnected-(U1-Pad38)*%
X88112500Y-112062500D03*
%TO.P,U1,39,PF4*%
%TO.N,unconnected-(U1-Pad39)*%
X87312500Y-112062500D03*
%TO.P,U1,40,PF1*%
%TO.N,unconnected-(U1-Pad40)*%
X86512500Y-112062500D03*
%TO.P,U1,41,PF0*%
%TO.N,unconnected-(U1-Pad41)*%
X85712500Y-112062500D03*
%TO.P,U1,42,AREF*%
%TO.N,unconnected-(U1-Pad42)*%
X84912500Y-112062500D03*
%TO.P,U1,43,GND*%
%TO.N,GND*%
X84112500Y-112062500D03*
%TO.P,U1,44,AVCC*%
%TO.N,+5V*%
X83312500Y-112062500D03*
%TD*%
D26*
%TO.P,SW1,1,1*%
%TO.N,GND*%
X62781250Y-122500000D03*
%TO.P,SW1,2,2*%
%TO.N,Net-(R3-Pad2)*%
X68981250Y-118800000D03*
%TO.P,SW1,3*%
%TO.N,N/C*%
X62781250Y-118800000D03*
%TO.P,SW1,4*%
X68981250Y-122500000D03*
%TD*%
D21*
%TO.P,R2,1*%
%TO.N,D+*%
X67849750Y-97131500D03*
%TO.P,R2,2*%
%TO.N,Net-(R2-Pad2)*%
X67849750Y-98956500D03*
%TD*%
D18*
%TO.P,C5,1*%
%TO.N,+5V*%
X93025000Y-115093750D03*
%TO.P,C5,2*%
%TO.N,GND*%
X91125000Y-115093750D03*
%TD*%
D14*
%TO.P,D2,1,K*%
%TO.N,ROW1*%
X118268750Y-117537500D03*
%TO.P,D2,2,A*%
%TO.N,Net-(D2-Pad2)*%
X118268750Y-114237500D03*
%TD*%
D27*
%TO.N,+5V*%
X81756250Y-118268750D03*
X83322500Y-108743750D03*
X100012500Y-102393750D03*
X83343750Y-105568750D03*
X94456250Y-112712500D03*
%TO.N,Net-(C2-Pad2)*%
X85725000Y-98425000D03*
X87312500Y-98425000D03*
%TO.N,Net-(R3-Pad2)*%
X71437500Y-117475000D03*
X82550000Y-99218750D03*
X73025000Y-96837500D03*
%TD*%
D28*
%TO.N,+5V*%
X62893750Y-103375000D02*
X69850000Y-110331250D01*
X81612500Y-109562500D02*
X82503750Y-109562500D01*
X81612500Y-105562500D02*
X82743500Y-105562500D01*
X83546261Y-101802511D02*
X84903489Y-101802511D01*
X96837500Y-102550000D02*
X96225000Y-103162500D01*
X93025000Y-113775000D02*
X91312500Y-112062500D01*
X81618750Y-105568750D02*
X81612500Y-105562500D01*
X62706250Y-103375000D02*
X62893750Y-103375000D01*
X82503750Y-109562500D02*
X83322500Y-108743750D01*
X80472489Y-109571511D02*
X80472489Y-113966239D01*
X96837500Y-102550000D02*
X99856250Y-102550000D01*
X80472489Y-113966239D02*
X81600000Y-115093750D01*
X81600000Y-118112500D02*
X81756250Y-118268750D01*
X81600000Y-115093750D02*
X81600000Y-118112500D01*
X84912500Y-101793500D02*
X84912500Y-100662500D01*
X78581250Y-98581250D02*
X79426228Y-98581250D01*
X93025000Y-115093750D02*
X93025000Y-113775000D01*
X82647489Y-101802511D02*
X83546261Y-101802511D01*
X81600000Y-115093750D02*
X81600000Y-113775000D01*
X69850000Y-110331250D02*
X70618750Y-109562500D01*
X99856250Y-102550000D02*
X100012500Y-102393750D01*
X83343750Y-105568750D02*
X81618750Y-105568750D01*
X96225000Y-103162500D02*
X93012500Y-103162500D01*
X82743500Y-105562500D02*
X83546261Y-104759739D01*
X83546261Y-104759739D02*
X83546261Y-101802511D01*
X81612500Y-109562500D02*
X80481500Y-109562500D01*
X94456250Y-112712500D02*
X94456250Y-113662500D01*
X70618750Y-109562500D02*
X81612500Y-109562500D01*
X80481500Y-109562500D02*
X80472489Y-109571511D01*
X94456250Y-113662500D02*
X93025000Y-115093750D01*
X81600000Y-113775000D02*
X83312500Y-112062500D01*
X79426228Y-98581250D02*
X82647489Y-101802511D01*
X84903489Y-101802511D02*
X84912500Y-101793500D01*
%TO.N,GND*%
X93540104Y-116208770D02*
X92240020Y-116208770D01*
X92868750Y-101600000D02*
X92868750Y-102218750D01*
X80962500Y-93662500D02*
X81756250Y-92868750D01*
X85712500Y-100662500D02*
X85712500Y-101793500D01*
X68052750Y-94246500D02*
X69622480Y-95816230D01*
X83343750Y-96200000D02*
X83187500Y-96043750D01*
X85712500Y-99657478D02*
X85712500Y-100662500D01*
X90512500Y-114481250D02*
X90512500Y-112062500D01*
X83500000Y-122081250D02*
X83500000Y-115093750D01*
X93818750Y-100650000D02*
X92868750Y-101600000D01*
X68052750Y-93527000D02*
X68052750Y-94246500D01*
X62781250Y-122500000D02*
X64106250Y-123825000D01*
X90512500Y-111057478D02*
X90512500Y-112062500D01*
X96837500Y-112037500D02*
X96837500Y-112911374D01*
X86617522Y-107162500D02*
X90512500Y-111057478D01*
X81756250Y-123825000D02*
X83500000Y-122081250D01*
X69622480Y-95816230D02*
X77716230Y-95816230D01*
X84112500Y-112062500D02*
X84112500Y-107181250D01*
X81756250Y-96043750D02*
X80962500Y-95250000D01*
X81756250Y-92868750D02*
X87312500Y-92868750D01*
X92868750Y-102218750D02*
X93012500Y-102362500D01*
X87322489Y-96033761D02*
X87322489Y-94409011D01*
X81612500Y-107162500D02*
X84131250Y-107162500D01*
X85712500Y-101793500D02*
X86281500Y-102362500D01*
X84112500Y-112062500D02*
X84112500Y-114481250D01*
X88412500Y-93968750D02*
X88412500Y-94400000D01*
X87322489Y-94409011D02*
X87331500Y-94400000D01*
X86212500Y-96100000D02*
X87256250Y-96100000D01*
X87331500Y-94400000D02*
X88412500Y-94400000D01*
X77716230Y-95816230D02*
X78581250Y-96681250D01*
X96837500Y-100650000D02*
X93818750Y-100650000D01*
X77637500Y-107162500D02*
X81612500Y-107162500D01*
X87081500Y-107162500D02*
X81612500Y-107162500D01*
X80962500Y-98425000D02*
X84480022Y-98425000D01*
X84112500Y-107181250D02*
X84131250Y-107162500D01*
X83343750Y-97288728D02*
X85712500Y-99657478D01*
X84112500Y-114481250D02*
X83500000Y-115093750D01*
X88412500Y-94400000D02*
X91181250Y-94400000D01*
X87256250Y-96100000D02*
X87322489Y-96033761D01*
X91181250Y-94400000D02*
X91281250Y-94300000D01*
X80962500Y-95250000D02*
X80962500Y-93662500D01*
X64106250Y-123825000D02*
X81756250Y-123825000D01*
X91881500Y-102362500D02*
X87081500Y-107162500D01*
X78581250Y-96681250D02*
X80325000Y-98425000D01*
X80325000Y-98425000D02*
X80962500Y-98425000D01*
X83187500Y-96043750D02*
X81756250Y-96043750D01*
X83343750Y-96200000D02*
X83343750Y-97288728D01*
X76043750Y-105568750D02*
X77637500Y-107162500D01*
X96837500Y-112911374D02*
X93540104Y-116208770D01*
X92240020Y-116208770D02*
X91125000Y-115093750D01*
X86281500Y-102362500D02*
X93012500Y-102362500D01*
X84480022Y-98425000D02*
X85712500Y-99657478D01*
X84131250Y-107162500D02*
X86617522Y-107162500D01*
X91125000Y-115093750D02*
X90512500Y-114481250D01*
X87312500Y-92868750D02*
X88412500Y-93968750D01*
X93012500Y-102362500D02*
X91881500Y-102362500D01*
D29*
%TO.N,Net-(C2-Pad2)*%
X87312500Y-98425000D02*
X87312500Y-100662500D01*
X84931250Y-97631250D02*
X85725000Y-98425000D01*
X83443750Y-94400000D02*
X86212500Y-94400000D01*
X86212500Y-94400000D02*
X85959478Y-94400000D01*
X84931250Y-95428228D02*
X84931250Y-97631250D01*
X85959478Y-94400000D02*
X84931250Y-95428228D01*
X83343750Y-94300000D02*
X83443750Y-94400000D01*
%TO.N,Net-(C3-Pad2)*%
X88412500Y-96100000D02*
X91181250Y-96100000D01*
X91181250Y-96100000D02*
X91281250Y-96200000D01*
X86512500Y-98000000D02*
X86512500Y-100662500D01*
X88412500Y-96100000D02*
X86512500Y-98000000D01*
%TO.N,Net-(C6-Pad1)*%
X80168750Y-106362500D02*
X81612500Y-106362500D01*
X77943750Y-105568750D02*
X79375000Y-105568750D01*
X79375000Y-105568750D02*
X80168750Y-106362500D01*
%TO.N,ROW0*%
X119338421Y-99207921D02*
X136820579Y-99207921D01*
X93012500Y-105562500D02*
X111543000Y-105562500D01*
X111543000Y-105562500D02*
X118618000Y-98487500D01*
X136820579Y-99207921D02*
X137541000Y-98487500D01*
X118618000Y-98487500D02*
X119338421Y-99207921D01*
%TO.N,Net-(D1-Pad2)*%
X112831250Y-92337500D02*
X115681250Y-95187500D01*
X115681250Y-95187500D02*
X118618000Y-95187500D01*
%TO.N,ROW1*%
X118268750Y-117537500D02*
X118989171Y-118257921D01*
X96115322Y-107962500D02*
X97864020Y-109711198D01*
X93012500Y-107962500D02*
X96115322Y-107962500D01*
X118989171Y-118257921D02*
X136598329Y-118257921D01*
X105557921Y-118257921D02*
X117548329Y-118257921D01*
X136598329Y-118257921D02*
X137318750Y-117537500D01*
X97864020Y-110564020D02*
X105557921Y-118257921D01*
X117548329Y-118257921D02*
X118268750Y-117537500D01*
X97864020Y-109711198D02*
X97864020Y-110564020D01*
%TO.N,Net-(D2-Pad2)*%
X115681250Y-114237500D02*
X118268750Y-114237500D01*
X112831250Y-111387500D02*
X115681250Y-114237500D01*
%TO.N,Net-(D3-Pad2)*%
X131881250Y-92337500D02*
X135200000Y-92337500D01*
X137541000Y-94678500D02*
X137541000Y-95187500D01*
X135200000Y-92337500D02*
X137541000Y-94678500D01*
%TO.N,Net-(D4-Pad2)*%
X131921250Y-110807500D02*
X133888750Y-110807500D01*
X133888750Y-110807500D02*
X137318750Y-114237500D01*
D28*
%TO.N,VCC*%
X61118750Y-97631250D02*
X64852750Y-93897250D01*
X61118750Y-104587500D02*
X61118750Y-97631250D01*
X62706250Y-106175000D02*
X61118750Y-104587500D01*
X64852750Y-93897250D02*
X64852750Y-93527000D01*
D29*
%TO.N,COL0*%
X102141696Y-113347500D02*
X106521250Y-113347500D01*
X93012500Y-107162500D02*
X95956696Y-107162500D01*
X95956696Y-107162500D02*
X102141696Y-113347500D01*
%TO.N,COL1*%
X118586250Y-106362500D02*
X125571250Y-113347500D01*
X93012500Y-106362500D02*
X118586250Y-106362500D01*
D30*
%TO.N,D-*%
X65652750Y-96026500D02*
X64547750Y-97131500D01*
X65652750Y-93527000D02*
X65652750Y-96026500D01*
D29*
%TO.N,Net-(R1-Pad2)*%
X64547750Y-98956500D02*
X64547750Y-99472750D01*
X65881250Y-103981250D02*
X70662500Y-108762500D01*
X70662500Y-108762500D02*
X81612500Y-108762500D01*
X64547750Y-99472750D02*
X65881250Y-100806250D01*
X65881250Y-100806250D02*
X65881250Y-103981250D01*
D30*
%TO.N,D+*%
X66452750Y-93527000D02*
X66452750Y-95734500D01*
X66452750Y-95734500D02*
X67849750Y-97131500D01*
D29*
%TO.N,Net-(R2-Pad2)*%
X66675000Y-100806250D02*
X66675000Y-103981250D01*
X70656250Y-107962500D02*
X81612500Y-107962500D01*
X67849750Y-98956500D02*
X67849750Y-99631500D01*
X67849750Y-99631500D02*
X66675000Y-100806250D01*
X66675000Y-103981250D02*
X70656250Y-107962500D01*
%TO.N,Net-(R3-Pad2)*%
X84112500Y-100662500D02*
X84112500Y-99658500D01*
X84112500Y-99658500D02*
X83672750Y-99218750D01*
X73025000Y-96837500D02*
X75287500Y-96837500D01*
X70306250Y-117475000D02*
X71437500Y-117475000D01*
X68981250Y-118800000D02*
X70306250Y-117475000D01*
X83672750Y-99218750D02*
X82550000Y-99218750D01*
X75287500Y-96837500D02*
X75406250Y-96718750D01*
%TO.N,Net-(R4-Pad1)*%
X96837500Y-110212500D02*
X96687500Y-110362500D01*
X96687500Y-110362500D02*
X93012500Y-110362500D01*
%TD*%
%TA.AperFunction,Conductor*%
%TO.N,GND*%
G36*
X68802097Y-87841002D02*
G01*
X68848590Y-87894658D01*
X68858694Y-87964932D01*
X68852415Y-87989991D01*
X68821875Y-88074128D01*
X68786413Y-88171825D01*
X68785464Y-88177074D01*
X68785463Y-88177077D01*
X68746127Y-88394608D01*
X68746126Y-88394615D01*
X68745389Y-88398692D01*
X68744250Y-88422844D01*
X68744250Y-89584890D01*
X68744475Y-89587539D01*
X68756323Y-89727170D01*
X68758830Y-89756720D01*
X68760168Y-89761875D01*
X68760169Y-89761881D01*
X68815407Y-89974703D01*
X68816749Y-89979872D01*
X68911438Y-90190075D01*
X69040191Y-90381319D01*
X69043870Y-90385176D01*
X69043872Y-90385178D01*
X69060289Y-90402387D01*
X69199326Y-90548135D01*
X69203604Y-90551318D01*
X69218235Y-90562204D01*
X69384292Y-90685754D01*
X69389043Y-90688170D01*
X69389047Y-90688172D01*
X69430971Y-90709487D01*
X69589801Y-90790240D01*
X69594895Y-90791822D01*
X69594898Y-90791823D01*
X69742884Y-90837774D01*
X69809977Y-90858607D01*
X69815266Y-90859308D01*
X70033239Y-90888198D01*
X70033244Y-90888198D01*
X70038524Y-90888898D01*
X70043853Y-90888698D01*
X70043855Y-90888698D01*
X70172002Y-90883887D01*
X70268908Y-90880249D01*
X70494541Y-90832907D01*
X70499500Y-90830949D01*
X70499502Y-90830948D01*
X70704006Y-90750185D01*
X70704008Y-90750184D01*
X70708971Y-90748224D01*
X70718034Y-90742725D01*
X70901507Y-90631390D01*
X70901506Y-90631390D01*
X70906067Y-90628623D01*
X70910097Y-90625126D01*
X71076162Y-90481023D01*
X71076164Y-90481021D01*
X71080195Y-90477523D01*
X71146725Y-90396384D01*
X71222990Y-90303373D01*
X71222994Y-90303367D01*
X71226374Y-90299245D01*
X71254510Y-90249818D01*
X71326483Y-90123379D01*
X71340425Y-90098886D01*
X71419087Y-89882175D01*
X71441773Y-89756720D01*
X71459373Y-89659392D01*
X71459374Y-89659385D01*
X71460111Y-89655308D01*
X71461250Y-89631156D01*
X71461250Y-88469110D01*
X71453326Y-88375726D01*
X71447121Y-88302591D01*
X71447120Y-88302587D01*
X71446670Y-88297280D01*
X71445332Y-88292125D01*
X71445331Y-88292119D01*
X71390093Y-88079297D01*
X71390092Y-88079293D01*
X71388751Y-88074128D01*
X71386103Y-88068248D01*
X71354796Y-87998750D01*
X71345055Y-87928425D01*
X71374881Y-87863997D01*
X71434804Y-87825922D01*
X71469678Y-87821000D01*
X136475633Y-87821000D01*
X136495018Y-87822500D01*
X136509851Y-87824810D01*
X136509855Y-87824810D01*
X136518724Y-87826191D01*
X136527626Y-87825027D01*
X136527629Y-87825027D01*
X136535012Y-87824061D01*
X136559591Y-87823267D01*
X136586442Y-87825027D01*
X136761204Y-87836482D01*
X136777543Y-87838633D01*
X137001611Y-87883201D01*
X137017529Y-87887466D01*
X137216814Y-87955114D01*
X137233862Y-87960901D01*
X137249081Y-87967205D01*
X137423555Y-88053244D01*
X137453977Y-88068246D01*
X137468250Y-88076486D01*
X137658206Y-88203409D01*
X137671281Y-88213442D01*
X137843047Y-88364073D01*
X137854702Y-88375727D01*
X138005336Y-88547488D01*
X138015369Y-88560564D01*
X138133813Y-88737822D01*
X138142290Y-88750509D01*
X138150531Y-88764782D01*
X138251576Y-88969673D01*
X138257882Y-88984895D01*
X138257884Y-88984899D01*
X138257884Y-88984900D01*
X138331324Y-89201238D01*
X138335589Y-89217157D01*
X138380161Y-89441212D01*
X138382313Y-89457553D01*
X138395047Y-89651779D01*
X138393974Y-89675889D01*
X138393941Y-89678608D01*
X138392559Y-89687485D01*
X138393724Y-89696389D01*
X138396686Y-89719041D01*
X138397750Y-89735381D01*
X138397750Y-94112115D01*
X138377748Y-94180236D01*
X138324092Y-94226729D01*
X138254088Y-94236794D01*
X138251316Y-94235755D01*
X138189134Y-94229000D01*
X138042422Y-94229000D01*
X137974301Y-94208998D01*
X137953327Y-94192095D01*
X135705250Y-91944017D01*
X135697674Y-91935691D01*
X135693553Y-91929197D01*
X135643734Y-91882414D01*
X135640893Y-91879660D01*
X135621094Y-91859861D01*
X135617969Y-91857437D01*
X135617960Y-91857429D01*
X135617874Y-91857363D01*
X135608849Y-91849655D01*
X135599264Y-91840654D01*
X135576506Y-91819283D01*
X135558669Y-91809477D01*
X135542153Y-91798627D01*
X135526067Y-91786150D01*
X135485334Y-91768524D01*
X135474686Y-91763307D01*
X135455153Y-91752569D01*
X135435803Y-91741931D01*
X135428128Y-91739960D01*
X135428122Y-91739958D01*
X135416089Y-91736869D01*
X135397387Y-91730466D01*
X135378708Y-91722383D01*
X135344872Y-91717024D01*
X135334873Y-91715440D01*
X135323260Y-91713035D01*
X135280282Y-91702000D01*
X135259935Y-91702000D01*
X135240224Y-91700449D01*
X135227950Y-91698505D01*
X135220121Y-91697265D01*
X135212229Y-91698011D01*
X135175944Y-91701441D01*
X135164086Y-91702000D01*
X133674952Y-91702000D01*
X133606831Y-91681998D01*
X133560338Y-91628342D01*
X133550700Y-91596916D01*
X133544981Y-91562942D01*
X133543621Y-91551912D01*
X133542408Y-91536497D01*
X133539628Y-91501174D01*
X133531614Y-91467792D01*
X133523763Y-91435089D01*
X133522030Y-91426592D01*
X133517105Y-91397336D01*
X133510749Y-91359578D01*
X133505445Y-91343775D01*
X133494556Y-91311337D01*
X133491487Y-91300654D01*
X133480759Y-91255967D01*
X133480759Y-91255966D01*
X133479605Y-91251160D01*
X133453591Y-91188356D01*
X133450557Y-91180253D01*
X133430507Y-91120518D01*
X133430505Y-91120513D01*
X133428931Y-91115824D01*
X133426642Y-91111437D01*
X133426639Y-91111430D01*
X133405391Y-91070709D01*
X133400689Y-91060639D01*
X133383107Y-91018191D01*
X133383103Y-91018184D01*
X133381210Y-91013613D01*
X133345694Y-90955657D01*
X133341430Y-90948128D01*
X133312279Y-90892260D01*
X133309989Y-90887871D01*
X133307041Y-90883894D01*
X133307036Y-90883887D01*
X133279674Y-90846983D01*
X133273464Y-90837787D01*
X133246866Y-90794384D01*
X133202728Y-90742705D01*
X133197340Y-90735938D01*
X133156852Y-90681330D01*
X133120510Y-90645684D01*
X133112929Y-90637563D01*
X133105294Y-90628623D01*
X133079881Y-90598869D01*
X133076125Y-90595661D01*
X133076120Y-90595656D01*
X133028211Y-90554738D01*
X133021813Y-90548881D01*
X132976823Y-90504754D01*
X132976815Y-90504747D01*
X132973289Y-90501289D01*
X132941746Y-90478835D01*
X132931822Y-90471771D01*
X132923061Y-90464933D01*
X132888133Y-90435101D01*
X132888130Y-90435099D01*
X132884366Y-90431884D01*
X132826425Y-90396378D01*
X132819218Y-90391614D01*
X132763823Y-90352180D01*
X132718243Y-90329510D01*
X132708521Y-90324126D01*
X132669360Y-90300128D01*
X132665137Y-90297540D01*
X132660567Y-90295647D01*
X132660565Y-90295646D01*
X132602351Y-90271533D01*
X132594457Y-90267940D01*
X132538041Y-90239880D01*
X132538042Y-90239880D01*
X132533608Y-90237675D01*
X132485049Y-90222415D01*
X132474610Y-90218621D01*
X132427590Y-90199145D01*
X132365326Y-90184197D01*
X132361507Y-90183280D01*
X132353146Y-90180965D01*
X132293042Y-90162077D01*
X132293040Y-90162077D01*
X132288316Y-90160592D01*
X132237971Y-90153117D01*
X132227060Y-90151002D01*
X132182387Y-90140277D01*
X132177576Y-90139122D01*
X132156534Y-90137466D01*
X132109825Y-90133790D01*
X132101207Y-90132812D01*
X132050750Y-90125321D01*
X132033986Y-90122832D01*
X132029031Y-90122880D01*
X131983102Y-90123325D01*
X131971994Y-90122943D01*
X131926180Y-90119337D01*
X131921250Y-90118949D01*
X131916320Y-90119337D01*
X131916319Y-90119337D01*
X131853496Y-90124281D01*
X131844831Y-90124663D01*
X131781830Y-90125273D01*
X131781829Y-90125273D01*
X131776879Y-90125321D01*
X131726689Y-90133769D01*
X131715661Y-90135129D01*
X131664924Y-90139122D01*
X131660111Y-90140278D01*
X131660108Y-90140278D01*
X131598843Y-90154986D01*
X131590345Y-90156719D01*
X131528214Y-90167177D01*
X131528207Y-90167179D01*
X131523328Y-90168000D01*
X131518632Y-90169576D01*
X131518633Y-90169576D01*
X131475073Y-90184197D01*
X131464397Y-90187264D01*
X131414910Y-90199145D01*
X131410344Y-90201036D01*
X131410342Y-90201037D01*
X131352130Y-90225149D01*
X131344006Y-90228191D01*
X131320175Y-90236190D01*
X131279574Y-90249818D01*
X131245629Y-90267530D01*
X131234446Y-90273365D01*
X131224377Y-90278066D01*
X131177363Y-90297540D01*
X131173144Y-90300125D01*
X131173133Y-90300131D01*
X131119418Y-90333048D01*
X131111870Y-90337324D01*
X131056013Y-90366469D01*
X131056010Y-90366471D01*
X131051621Y-90368761D01*
X131047641Y-90371712D01*
X131010740Y-90399072D01*
X131001530Y-90405291D01*
X130958134Y-90431884D01*
X130906443Y-90476032D01*
X130899695Y-90481405D01*
X130845081Y-90521898D01*
X130841625Y-90525422D01*
X130841620Y-90525426D01*
X130809442Y-90558234D01*
X130801320Y-90565815D01*
X130762619Y-90598869D01*
X130759411Y-90602625D01*
X130759406Y-90602630D01*
X130718481Y-90650547D01*
X130712624Y-90656945D01*
X130668505Y-90701927D01*
X130668498Y-90701935D01*
X130665040Y-90705461D01*
X130662175Y-90709486D01*
X130662174Y-90709487D01*
X130635527Y-90746921D01*
X130628689Y-90755682D01*
X130601239Y-90787822D01*
X130595634Y-90794384D01*
X130563401Y-90846983D01*
X130560130Y-90852321D01*
X130555347Y-90859555D01*
X130532066Y-90892260D01*
X130515931Y-90914927D01*
X130513729Y-90919354D01*
X130513726Y-90919359D01*
X130493264Y-90960498D01*
X130487892Y-90970202D01*
X130461290Y-91013613D01*
X130459399Y-91018178D01*
X130459396Y-91018184D01*
X130435281Y-91076403D01*
X130431697Y-91084279D01*
X130401425Y-91145141D01*
X130399943Y-91149857D01*
X130399939Y-91149867D01*
X130386164Y-91193701D01*
X130382369Y-91204145D01*
X130376327Y-91218733D01*
X130362895Y-91251160D01*
X130347024Y-91317265D01*
X130344725Y-91325573D01*
X130324343Y-91390433D01*
X130323616Y-91395331D01*
X130316868Y-91440776D01*
X130314753Y-91451682D01*
X130304029Y-91496354D01*
X130302872Y-91501174D01*
X130302484Y-91506105D01*
X130302483Y-91506111D01*
X130297539Y-91568932D01*
X130296563Y-91577537D01*
X130296401Y-91578631D01*
X130296037Y-91581084D01*
X130292215Y-91636497D01*
X130292126Y-91637708D01*
X130282699Y-91757500D01*
X130283087Y-91762430D01*
X130283087Y-91764520D01*
X130282788Y-91773189D01*
X130247571Y-92283838D01*
X130247205Y-92289140D01*
X130247229Y-92291624D01*
X130247229Y-92291626D01*
X130249023Y-92476920D01*
X130249071Y-92481871D01*
X130291751Y-92735422D01*
X130293323Y-92740106D01*
X130293324Y-92740109D01*
X130355380Y-92924986D01*
X130373569Y-92979176D01*
X130375859Y-92983564D01*
X130375859Y-92983565D01*
X130478394Y-93180073D01*
X130492511Y-93207129D01*
X130645648Y-93413669D01*
X130829211Y-93593710D01*
X130833250Y-93596585D01*
X130833251Y-93596586D01*
X131026884Y-93734424D01*
X131038677Y-93742819D01*
X131043113Y-93745025D01*
X131043114Y-93745026D01*
X131264458Y-93855120D01*
X131264462Y-93855122D01*
X131268892Y-93857325D01*
X131514184Y-93934407D01*
X131768514Y-93972168D01*
X131832301Y-93971550D01*
X132020670Y-93969727D01*
X132020671Y-93969727D01*
X132025621Y-93969679D01*
X132279172Y-93926999D01*
X132283856Y-93925427D01*
X132283859Y-93925426D01*
X132518235Y-93846756D01*
X132518240Y-93846754D01*
X132522926Y-93845181D01*
X132527315Y-93842891D01*
X132746487Y-93728531D01*
X132746490Y-93728529D01*
X132750879Y-93726239D01*
X132755008Y-93723178D01*
X132810011Y-93682396D01*
X132957419Y-93573102D01*
X133137460Y-93389539D01*
X133157260Y-93361725D01*
X133267309Y-93207129D01*
X133286569Y-93180073D01*
X133354804Y-93042886D01*
X133403049Y-92990802D01*
X133467619Y-92973000D01*
X134884578Y-92973000D01*
X134952699Y-92993002D01*
X134973673Y-93009905D01*
X136423254Y-94459487D01*
X136457280Y-94521799D01*
X136452141Y-94592810D01*
X136439255Y-94627184D01*
X136438402Y-94635032D01*
X136438402Y-94635034D01*
X136436342Y-94654000D01*
X136432500Y-94689366D01*
X136432500Y-95685634D01*
X136439255Y-95747816D01*
X136490385Y-95884205D01*
X136577739Y-96000761D01*
X136694295Y-96088115D01*
X136830684Y-96139245D01*
X136892866Y-96146000D01*
X138189134Y-96146000D01*
X138251316Y-96139245D01*
X138251481Y-96140766D01*
X138313504Y-96144004D01*
X138371147Y-96185450D01*
X138397233Y-96251481D01*
X138397750Y-96262885D01*
X138397750Y-97412115D01*
X138377748Y-97480236D01*
X138324092Y-97526729D01*
X138254088Y-97536794D01*
X138251316Y-97535755D01*
X138189134Y-97529000D01*
X136892866Y-97529000D01*
X136830684Y-97535755D01*
X136694295Y-97586885D01*
X136577739Y-97674239D01*
X136490385Y-97790795D01*
X136439255Y-97927184D01*
X136432500Y-97989366D01*
X136432500Y-98446421D01*
X136412498Y-98514542D01*
X136358842Y-98561035D01*
X136306500Y-98572421D01*
X131461182Y-98572421D01*
X131393061Y-98552419D01*
X131346568Y-98498763D01*
X131336464Y-98428489D01*
X131359246Y-98372360D01*
X131403375Y-98311622D01*
X131498274Y-98181004D01*
X131516139Y-98148509D01*
X131648063Y-97908539D01*
X131648064Y-97908536D01*
X131649966Y-97905077D01*
X131765880Y-97612313D01*
X131844186Y-97307330D01*
X131883650Y-96994938D01*
X131883650Y-96772093D01*
X133074289Y-96772093D01*
X133083098Y-97006716D01*
X133084193Y-97011934D01*
X133129529Y-97228001D01*
X133131312Y-97236501D01*
X133217552Y-97454877D01*
X133220321Y-97459440D01*
X133329706Y-97639700D01*
X133339354Y-97655600D01*
X133493235Y-97832932D01*
X133497367Y-97836320D01*
X133670666Y-97978417D01*
X133670672Y-97978421D01*
X133674794Y-97981801D01*
X133679430Y-97984440D01*
X133679433Y-97984442D01*
X133800942Y-98053609D01*
X133878840Y-98097951D01*
X134099539Y-98178061D01*
X134104788Y-98179010D01*
X134104791Y-98179011D01*
X134185865Y-98193671D01*
X134330580Y-98219840D01*
X134334719Y-98220035D01*
X134334726Y-98220036D01*
X134353690Y-98220930D01*
X134353699Y-98220930D01*
X134355179Y-98221000D01*
X134520200Y-98221000D01*
X134601549Y-98214097D01*
X134689887Y-98206602D01*
X134689891Y-98206601D01*
X134695198Y-98206151D01*
X134700353Y-98204813D01*
X134700359Y-98204812D01*
X134917285Y-98148509D01*
X134917284Y-98148509D01*
X134922456Y-98147167D01*
X134927322Y-98144975D01*
X134927325Y-98144974D01*
X135131667Y-98052924D01*
X135131670Y-98052923D01*
X135136528Y-98050734D01*
X135141004Y-98047721D01*
X135199243Y-98008512D01*
X135331291Y-97919612D01*
X135339223Y-97912046D01*
X135422155Y-97832932D01*
X135501177Y-97757549D01*
X135510791Y-97744628D01*
X135590652Y-97637290D01*
X135641328Y-97569179D01*
X135645441Y-97561091D01*
X135745319Y-97364644D01*
X135745319Y-97364643D01*
X135747737Y-97359888D01*
X135817361Y-97135660D01*
X135828807Y-97049305D01*
X135847511Y-96908190D01*
X135847511Y-96908187D01*
X135848211Y-96902907D01*
X135839402Y-96668284D01*
X135818043Y-96566490D01*
X135792285Y-96443726D01*
X135792284Y-96443723D01*
X135791188Y-96438499D01*
X135704948Y-96220123D01*
X135646284Y-96123448D01*
X135585914Y-96023961D01*
X135585912Y-96023958D01*
X135583146Y-96019400D01*
X135429265Y-95842068D01*
X135391809Y-95811356D01*
X135251834Y-95696583D01*
X135251828Y-95696579D01*
X135247706Y-95693199D01*
X135243070Y-95690560D01*
X135243067Y-95690558D01*
X135048303Y-95579692D01*
X135043660Y-95577049D01*
X134822961Y-95496939D01*
X134817712Y-95495990D01*
X134817709Y-95495989D01*
X134736635Y-95481329D01*
X134591920Y-95455160D01*
X134587781Y-95454965D01*
X134587774Y-95454964D01*
X134568810Y-95454070D01*
X134568801Y-95454070D01*
X134567321Y-95454000D01*
X134402300Y-95454000D01*
X134320951Y-95460903D01*
X134232613Y-95468398D01*
X134232609Y-95468399D01*
X134227302Y-95468849D01*
X134222147Y-95470187D01*
X134222141Y-95470188D01*
X134044427Y-95516314D01*
X134000044Y-95527833D01*
X133995178Y-95530025D01*
X133995175Y-95530026D01*
X133790833Y-95622076D01*
X133790830Y-95622077D01*
X133785972Y-95624266D01*
X133591209Y-95755388D01*
X133587352Y-95759067D01*
X133587350Y-95759069D01*
X133554526Y-95790382D01*
X133421323Y-95917451D01*
X133418141Y-95921728D01*
X133418140Y-95921729D01*
X133410409Y-95932120D01*
X133281172Y-96105821D01*
X133278756Y-96110572D01*
X133278754Y-96110576D01*
X133199807Y-96265854D01*
X133174763Y-96315112D01*
X133105139Y-96539340D01*
X133104438Y-96544629D01*
X133074993Y-96766784D01*
X133074289Y-96772093D01*
X131883650Y-96772093D01*
X131883650Y-96680062D01*
X131844186Y-96367670D01*
X131765880Y-96062687D01*
X131649966Y-95769923D01*
X131646784Y-95764135D01*
X131500183Y-95497468D01*
X131500181Y-95497465D01*
X131498274Y-95493996D01*
X131323395Y-95253295D01*
X131315523Y-95242460D01*
X131315522Y-95242458D01*
X131313195Y-95239256D01*
X131097648Y-95009722D01*
X130855032Y-94809013D01*
X130610771Y-94654000D01*
X130592521Y-94642418D01*
X130592520Y-94642418D01*
X130589174Y-94640294D01*
X130585595Y-94638610D01*
X130585588Y-94638606D01*
X130307856Y-94507916D01*
X130307852Y-94507914D01*
X130304266Y-94506227D01*
X130282649Y-94499203D01*
X130008578Y-94410152D01*
X130008579Y-94410152D01*
X130004802Y-94408925D01*
X129695504Y-94349923D01*
X129601950Y-94344037D01*
X129461892Y-94335225D01*
X129461876Y-94335224D01*
X129459897Y-94335100D01*
X129302603Y-94335100D01*
X129300624Y-94335224D01*
X129300608Y-94335225D01*
X129160550Y-94344037D01*
X129066996Y-94349923D01*
X128757698Y-94408925D01*
X128753921Y-94410152D01*
X128753922Y-94410152D01*
X128479852Y-94499203D01*
X128458234Y-94506227D01*
X128454648Y-94507914D01*
X128454644Y-94507916D01*
X128176912Y-94638606D01*
X128176905Y-94638610D01*
X128173326Y-94640294D01*
X128169980Y-94642418D01*
X128169979Y-94642418D01*
X128151729Y-94654000D01*
X127907468Y-94809013D01*
X127664852Y-95009722D01*
X127449305Y-95239256D01*
X127446978Y-95242458D01*
X127446977Y-95242460D01*
X127439105Y-95253295D01*
X127264226Y-95493996D01*
X127262319Y-95497465D01*
X127262317Y-95497468D01*
X127115716Y-95764135D01*
X127112534Y-95769923D01*
X126996620Y-96062687D01*
X126918314Y-96367670D01*
X126878850Y-96680062D01*
X126878850Y-96994938D01*
X126918314Y-97307330D01*
X126996620Y-97612313D01*
X127112534Y-97905077D01*
X127114436Y-97908536D01*
X127114437Y-97908539D01*
X127246362Y-98148509D01*
X127264226Y-98181004D01*
X127359125Y-98311622D01*
X127403254Y-98372360D01*
X127427113Y-98439228D01*
X127411032Y-98508379D01*
X127360118Y-98557860D01*
X127301318Y-98572421D01*
X119852500Y-98572421D01*
X119784379Y-98552419D01*
X119737886Y-98498763D01*
X119726500Y-98446421D01*
X119726500Y-97989366D01*
X119719745Y-97927184D01*
X119668615Y-97790795D01*
X119581261Y-97674239D01*
X119464705Y-97586885D01*
X119328316Y-97535755D01*
X119266134Y-97529000D01*
X117969866Y-97529000D01*
X117907684Y-97535755D01*
X117771295Y-97586885D01*
X117654739Y-97674239D01*
X117567385Y-97790795D01*
X117516255Y-97927184D01*
X117509500Y-97989366D01*
X117509500Y-98645078D01*
X117489498Y-98713199D01*
X117472595Y-98734173D01*
X111316672Y-104890095D01*
X111254360Y-104924121D01*
X111227577Y-104927000D01*
X94397000Y-104927000D01*
X94328879Y-104906998D01*
X94282386Y-104853342D01*
X94271000Y-104801000D01*
X94271000Y-104439366D01*
X94264245Y-104377184D01*
X94266674Y-104376920D01*
X94266674Y-104348080D01*
X94264245Y-104347816D01*
X94270631Y-104289031D01*
X94271000Y-104285634D01*
X94271000Y-103987500D01*
X94291002Y-103919379D01*
X94344658Y-103872886D01*
X94397000Y-103861500D01*
X96196401Y-103861500D01*
X96204971Y-103861792D01*
X96254277Y-103865154D01*
X96254281Y-103865154D01*
X96261852Y-103865670D01*
X96269328Y-103864365D01*
X96269332Y-103864365D01*
X96323924Y-103854837D01*
X96330449Y-103853874D01*
X96385418Y-103847222D01*
X96385420Y-103847221D01*
X96392960Y-103846309D01*
X96400062Y-103843625D01*
X96403500Y-103842781D01*
X96417623Y-103838917D01*
X96421034Y-103837887D01*
X96428517Y-103836581D01*
X96486197Y-103811261D01*
X96492304Y-103808770D01*
X96544117Y-103789191D01*
X96544118Y-103789190D01*
X96551222Y-103786506D01*
X96557477Y-103782207D01*
X96560618Y-103780565D01*
X96573372Y-103773467D01*
X96576478Y-103771630D01*
X96583433Y-103768577D01*
X96589460Y-103763952D01*
X96589464Y-103763950D01*
X96633402Y-103730235D01*
X96638720Y-103726371D01*
X96690652Y-103690679D01*
X96731519Y-103644811D01*
X96736499Y-103639536D01*
X96780630Y-103595405D01*
X96842942Y-103561379D01*
X96869725Y-103558500D01*
X97362900Y-103558500D01*
X97366146Y-103558163D01*
X97366150Y-103558163D01*
X97461808Y-103548238D01*
X97461812Y-103548237D01*
X97468666Y-103547526D01*
X97475202Y-103545345D01*
X97475204Y-103545345D01*
X97629498Y-103493868D01*
X97636446Y-103491550D01*
X97786848Y-103398478D01*
X97899148Y-103285982D01*
X97961430Y-103251903D01*
X97988321Y-103249000D01*
X99673009Y-103249000D01*
X99717680Y-103258495D01*
X99717900Y-103257818D01*
X99724180Y-103259858D01*
X99730212Y-103262544D01*
X99823612Y-103282397D01*
X99910556Y-103300878D01*
X99910561Y-103300878D01*
X99917013Y-103302250D01*
X100107987Y-103302250D01*
X100114439Y-103300878D01*
X100114444Y-103300878D01*
X100201388Y-103282397D01*
X100294788Y-103262544D01*
X100300819Y-103259859D01*
X100463222Y-103187553D01*
X100463224Y-103187552D01*
X100469252Y-103184868D01*
X100623753Y-103072616D01*
X100751540Y-102930694D01*
X100847027Y-102765306D01*
X100906042Y-102583678D01*
X100911535Y-102531420D01*
X100925314Y-102400315D01*
X100926004Y-102393750D01*
X100911192Y-102252817D01*
X100906732Y-102210385D01*
X100906732Y-102210383D01*
X100906042Y-102203822D01*
X100847027Y-102022194D01*
X100840556Y-102010985D01*
X100755674Y-101863967D01*
X100751540Y-101856806D01*
X100742306Y-101846550D01*
X100628175Y-101719795D01*
X100628174Y-101719794D01*
X100623753Y-101714884D01*
X100469252Y-101602632D01*
X100463224Y-101599948D01*
X100463222Y-101599947D01*
X100300819Y-101527641D01*
X100300818Y-101527641D01*
X100294788Y-101524956D01*
X100181793Y-101500938D01*
X100114444Y-101486622D01*
X100114439Y-101486622D01*
X100107987Y-101485250D01*
X99917013Y-101485250D01*
X99910561Y-101486622D01*
X99910556Y-101486622D01*
X99843207Y-101500938D01*
X99730212Y-101524956D01*
X99724182Y-101527641D01*
X99724181Y-101527641D01*
X99561778Y-101599947D01*
X99561776Y-101599948D01*
X99555748Y-101602632D01*
X99401247Y-101714884D01*
X99316224Y-101809312D01*
X99255781Y-101846550D01*
X99222590Y-101851000D01*
X97988497Y-101851000D01*
X97920376Y-101830998D01*
X97899479Y-101814173D01*
X97790986Y-101705869D01*
X97785803Y-101700695D01*
X97781265Y-101697898D01*
X97740676Y-101640647D01*
X97737446Y-101569724D01*
X97773072Y-101508313D01*
X97781568Y-101500938D01*
X97791707Y-101492902D01*
X97906239Y-101378171D01*
X97915251Y-101366760D01*
X98000316Y-101228757D01*
X98006463Y-101215576D01*
X98057638Y-101061290D01*
X98060505Y-101047914D01*
X98070172Y-100953562D01*
X98070500Y-100947146D01*
X98070500Y-100922115D01*
X98066025Y-100906876D01*
X98064635Y-100905671D01*
X98056952Y-100904000D01*
X95622616Y-100904000D01*
X95607377Y-100908475D01*
X95606172Y-100909865D01*
X95604501Y-100917548D01*
X95604501Y-100947095D01*
X95604838Y-100953614D01*
X95614757Y-101049206D01*
X95617649Y-101062600D01*
X95669088Y-101216784D01*
X95675261Y-101229962D01*
X95760563Y-101367807D01*
X95769599Y-101379208D01*
X95884328Y-101493738D01*
X95893262Y-101500794D01*
X95934323Y-101558712D01*
X95937553Y-101629635D01*
X95901926Y-101691046D01*
X95894093Y-101697846D01*
X95888152Y-101701522D01*
X95882979Y-101706704D01*
X95874813Y-101714884D01*
X95763195Y-101826697D01*
X95759355Y-101832927D01*
X95759354Y-101832928D01*
X95675718Y-101968611D01*
X95670385Y-101977262D01*
X95667532Y-101985864D01*
X95617860Y-102135622D01*
X95614703Y-102145139D01*
X95614003Y-102151975D01*
X95614002Y-102151978D01*
X95612746Y-102164240D01*
X95604000Y-102249600D01*
X95604000Y-102337500D01*
X95583998Y-102405621D01*
X95530342Y-102452114D01*
X95478000Y-102463500D01*
X94086693Y-102463500D01*
X94024925Y-102445364D01*
X94024260Y-102446579D01*
X94018703Y-102443536D01*
X94018572Y-102443498D01*
X94018347Y-102443341D01*
X94016389Y-102442269D01*
X94009205Y-102436885D01*
X93872816Y-102385755D01*
X93810634Y-102379000D01*
X92214366Y-102379000D01*
X92152184Y-102385755D01*
X92015795Y-102436885D01*
X91899239Y-102524239D01*
X91893858Y-102531419D01*
X91893857Y-102531420D01*
X91867892Y-102566065D01*
X91811033Y-102608580D01*
X91781426Y-102613913D01*
X91757377Y-102620975D01*
X91756172Y-102622365D01*
X91754501Y-102630048D01*
X91754501Y-102682169D01*
X91754871Y-102688990D01*
X91761248Y-102747707D01*
X91758502Y-102748005D01*
X91758560Y-102776946D01*
X91760755Y-102777184D01*
X91754000Y-102839366D01*
X91754000Y-103485634D01*
X91754369Y-103489031D01*
X91760755Y-103547816D01*
X91758326Y-103548080D01*
X91758326Y-103576920D01*
X91760755Y-103577184D01*
X91754000Y-103639366D01*
X91754000Y-104285634D01*
X91754369Y-104289031D01*
X91760755Y-104347816D01*
X91758326Y-104348080D01*
X91758326Y-104376920D01*
X91760755Y-104377184D01*
X91754000Y-104439366D01*
X91754000Y-105085634D01*
X91754369Y-105089031D01*
X91760755Y-105147816D01*
X91758326Y-105148080D01*
X91758326Y-105176920D01*
X91760755Y-105177184D01*
X91757899Y-105203479D01*
X91754000Y-105239366D01*
X91754000Y-105885634D01*
X91754369Y-105889031D01*
X91760755Y-105947816D01*
X91758326Y-105948080D01*
X91758326Y-105976920D01*
X91760755Y-105977184D01*
X91754000Y-106039366D01*
X91754000Y-106685634D01*
X91754369Y-106689031D01*
X91760755Y-106747816D01*
X91758326Y-106748080D01*
X91758326Y-106776920D01*
X91760755Y-106777184D01*
X91754000Y-106839366D01*
X91754000Y-107485634D01*
X91754369Y-107489031D01*
X91760755Y-107547816D01*
X91758326Y-107548080D01*
X91758326Y-107576920D01*
X91760755Y-107577184D01*
X91754000Y-107639366D01*
X91754000Y-108285634D01*
X91754369Y-108289031D01*
X91760755Y-108347816D01*
X91758326Y-108348080D01*
X91758326Y-108376920D01*
X91760755Y-108377184D01*
X91754000Y-108439366D01*
X91754000Y-109085634D01*
X91754369Y-109089031D01*
X91760755Y-109147816D01*
X91758326Y-109148080D01*
X91758326Y-109176920D01*
X91760755Y-109177184D01*
X91754562Y-109234197D01*
X91754000Y-109239366D01*
X91754000Y-109885634D01*
X91754369Y-109889031D01*
X91760755Y-109947816D01*
X91758326Y-109948080D01*
X91758326Y-109976920D01*
X91760755Y-109977184D01*
X91754000Y-110039366D01*
X91754000Y-110678000D01*
X91733998Y-110746121D01*
X91680342Y-110792614D01*
X91628000Y-110804000D01*
X90989366Y-110804000D01*
X90985969Y-110804369D01*
X90957147Y-110807500D01*
X90927184Y-110810755D01*
X90926952Y-110808616D01*
X90897988Y-110808666D01*
X90897707Y-110811248D01*
X90838986Y-110804869D01*
X90832172Y-110804500D01*
X90784615Y-110804500D01*
X90769376Y-110808975D01*
X90768171Y-110810365D01*
X90763621Y-110831283D01*
X90762403Y-110831018D01*
X90746498Y-110885187D01*
X90716065Y-110917892D01*
X90686060Y-110940380D01*
X90674239Y-110949239D01*
X90616106Y-111026805D01*
X90613326Y-111030515D01*
X90556467Y-111073030D01*
X90485648Y-111078056D01*
X90423355Y-111043996D01*
X90411674Y-111030515D01*
X90408894Y-111026805D01*
X90350761Y-110949239D01*
X90338941Y-110940380D01*
X90308935Y-110917892D01*
X90266420Y-110861033D01*
X90261087Y-110831426D01*
X90254025Y-110807377D01*
X90252635Y-110806172D01*
X90244952Y-110804501D01*
X90192831Y-110804501D01*
X90186010Y-110804871D01*
X90127293Y-110811248D01*
X90126995Y-110808502D01*
X90098054Y-110808560D01*
X90097816Y-110810755D01*
X90039031Y-110804369D01*
X90035634Y-110804000D01*
X89389366Y-110804000D01*
X89385969Y-110804369D01*
X89357147Y-110807500D01*
X89327184Y-110810755D01*
X89326920Y-110808326D01*
X89298080Y-110808326D01*
X89297816Y-110810755D01*
X89239031Y-110804369D01*
X89235634Y-110804000D01*
X88589366Y-110804000D01*
X88585969Y-110804369D01*
X88557147Y-110807500D01*
X88527184Y-110810755D01*
X88526920Y-110808326D01*
X88498080Y-110808326D01*
X88497816Y-110810755D01*
X88439031Y-110804369D01*
X88435634Y-110804000D01*
X87789366Y-110804000D01*
X87785969Y-110804369D01*
X87757147Y-110807500D01*
X87727184Y-110810755D01*
X87726920Y-110808326D01*
X87698080Y-110808326D01*
X87697816Y-110810755D01*
X87639031Y-110804369D01*
X87635634Y-110804000D01*
X86989366Y-110804000D01*
X86985969Y-110804369D01*
X86957147Y-110807500D01*
X86927184Y-110810755D01*
X86926920Y-110808326D01*
X86898080Y-110808326D01*
X86897816Y-110810755D01*
X86839031Y-110804369D01*
X86835634Y-110804000D01*
X86189366Y-110804000D01*
X86185969Y-110804369D01*
X86157147Y-110807500D01*
X86127184Y-110810755D01*
X86126920Y-110808326D01*
X86098080Y-110808326D01*
X86097816Y-110810755D01*
X86039031Y-110804369D01*
X86035634Y-110804000D01*
X85389366Y-110804000D01*
X85385969Y-110804369D01*
X85357147Y-110807500D01*
X85327184Y-110810755D01*
X85326920Y-110808326D01*
X85298080Y-110808326D01*
X85297816Y-110810755D01*
X85239031Y-110804369D01*
X85235634Y-110804000D01*
X84589366Y-110804000D01*
X84585969Y-110804369D01*
X84557147Y-110807500D01*
X84527184Y-110810755D01*
X84526952Y-110808616D01*
X84497988Y-110808666D01*
X84497707Y-110811248D01*
X84438986Y-110804869D01*
X84432172Y-110804500D01*
X84384615Y-110804500D01*
X84369376Y-110808975D01*
X84368171Y-110810365D01*
X84363621Y-110831283D01*
X84362403Y-110831018D01*
X84346498Y-110885187D01*
X84316065Y-110917892D01*
X84286060Y-110940380D01*
X84274239Y-110949239D01*
X84216106Y-111026805D01*
X84213326Y-111030515D01*
X84156467Y-111073030D01*
X84085648Y-111078056D01*
X84023355Y-111043996D01*
X84011674Y-111030515D01*
X84008894Y-111026805D01*
X83950761Y-110949239D01*
X83938941Y-110940380D01*
X83908935Y-110917892D01*
X83866420Y-110861033D01*
X83861087Y-110831426D01*
X83854025Y-110807377D01*
X83852635Y-110806172D01*
X83844952Y-110804501D01*
X83792831Y-110804501D01*
X83786010Y-110804871D01*
X83727293Y-110811248D01*
X83726995Y-110808502D01*
X83698054Y-110808560D01*
X83697816Y-110810755D01*
X83639031Y-110804369D01*
X83635634Y-110804000D01*
X82997000Y-110804000D01*
X82928879Y-110783998D01*
X82882386Y-110730342D01*
X82871000Y-110678000D01*
X82871000Y-110224600D01*
X82891002Y-110156479D01*
X82925632Y-110120761D01*
X82969402Y-110090679D01*
X82989436Y-110068194D01*
X83010268Y-110044812D01*
X83015249Y-110039536D01*
X83371972Y-109682813D01*
X83434869Y-109648662D01*
X83604788Y-109612544D01*
X83610819Y-109609859D01*
X83773222Y-109537553D01*
X83773224Y-109537552D01*
X83779252Y-109534868D01*
X83797279Y-109521771D01*
X83892777Y-109452387D01*
X83933753Y-109422616D01*
X83939288Y-109416469D01*
X84057121Y-109285602D01*
X84057122Y-109285601D01*
X84061540Y-109280694D01*
X84126056Y-109168949D01*
X84153723Y-109121029D01*
X84153724Y-109121028D01*
X84157027Y-109115306D01*
X84216042Y-108933678D01*
X84236004Y-108743750D01*
X84233928Y-108724000D01*
X84216732Y-108560385D01*
X84216732Y-108560383D01*
X84216042Y-108553822D01*
X84157027Y-108372194D01*
X84061540Y-108206806D01*
X83933753Y-108064884D01*
X83779252Y-107952632D01*
X83773224Y-107949948D01*
X83773222Y-107949947D01*
X83610819Y-107877641D01*
X83610818Y-107877641D01*
X83604788Y-107874956D01*
X83511388Y-107855103D01*
X83424444Y-107836622D01*
X83424439Y-107836622D01*
X83417987Y-107835250D01*
X83227013Y-107835250D01*
X83220561Y-107836622D01*
X83220556Y-107836622D01*
X83065873Y-107869502D01*
X83040212Y-107874956D01*
X83035431Y-107877085D01*
X82964972Y-107879099D01*
X82904173Y-107842438D01*
X82872846Y-107778727D01*
X82871000Y-107757238D01*
X82871000Y-107639366D01*
X82864245Y-107577184D01*
X82866384Y-107576952D01*
X82866334Y-107547988D01*
X82863752Y-107547707D01*
X82870131Y-107488986D01*
X82870500Y-107482172D01*
X82870500Y-107434615D01*
X82866025Y-107419376D01*
X82864635Y-107418171D01*
X82843717Y-107413621D01*
X82843982Y-107412403D01*
X82789813Y-107396498D01*
X82757108Y-107366065D01*
X82731143Y-107331420D01*
X82731142Y-107331419D01*
X82725761Y-107324239D01*
X82644485Y-107263326D01*
X82601970Y-107206467D01*
X82596944Y-107135648D01*
X82631004Y-107073355D01*
X82644485Y-107061674D01*
X82718581Y-107006142D01*
X82725761Y-107000761D01*
X82737208Y-106985488D01*
X82757108Y-106958935D01*
X82813967Y-106916420D01*
X82843574Y-106911087D01*
X82867623Y-106904025D01*
X82868828Y-106902635D01*
X82870499Y-106894952D01*
X82870499Y-106842831D01*
X82870129Y-106836010D01*
X82863752Y-106777293D01*
X82866498Y-106776995D01*
X82866440Y-106748054D01*
X82864245Y-106747816D01*
X82870631Y-106689031D01*
X82871000Y-106685634D01*
X82871000Y-106546768D01*
X82891002Y-106478647D01*
X82944658Y-106432154D01*
X83014932Y-106422050D01*
X83048250Y-106431662D01*
X83055427Y-106434858D01*
X83055435Y-106434861D01*
X83061462Y-106437544D01*
X83154863Y-106457397D01*
X83241806Y-106475878D01*
X83241811Y-106475878D01*
X83248263Y-106477250D01*
X83439237Y-106477250D01*
X83445689Y-106475878D01*
X83445694Y-106475878D01*
X83532638Y-106457397D01*
X83626038Y-106437544D01*
X83632071Y-106434858D01*
X83794472Y-106362553D01*
X83794474Y-106362552D01*
X83800502Y-106359868D01*
X83955003Y-106247616D01*
X84082790Y-106105694D01*
X84141064Y-106004760D01*
X84174973Y-105946029D01*
X84174974Y-105946028D01*
X84178277Y-105940306D01*
X84237292Y-105758678D01*
X84238149Y-105750529D01*
X84256564Y-105575315D01*
X84257254Y-105568750D01*
X84237292Y-105378822D01*
X84178277Y-105197194D01*
X84174973Y-105191471D01*
X84172289Y-105185443D01*
X84174624Y-105184403D01*
X84160578Y-105126573D01*
X84169044Y-105086765D01*
X84170818Y-105082217D01*
X84189704Y-105033776D01*
X84192244Y-105027730D01*
X84218173Y-104970304D01*
X84219557Y-104962836D01*
X84220625Y-104959428D01*
X84224625Y-104945389D01*
X84225514Y-104941925D01*
X84228273Y-104934850D01*
X84229265Y-104927318D01*
X84236496Y-104872394D01*
X84237528Y-104865880D01*
X84247621Y-104811422D01*
X84247621Y-104811419D01*
X84249005Y-104803953D01*
X84245470Y-104742644D01*
X84245261Y-104735392D01*
X84245261Y-102627511D01*
X84265263Y-102559390D01*
X84318919Y-102512897D01*
X84371261Y-102501511D01*
X84874890Y-102501511D01*
X84883460Y-102501803D01*
X84932766Y-102505165D01*
X84932770Y-102505165D01*
X84940341Y-102505681D01*
X84947817Y-102504376D01*
X84947821Y-102504376D01*
X85002413Y-102494848D01*
X85008938Y-102493885D01*
X85063907Y-102487233D01*
X85063909Y-102487232D01*
X85071449Y-102486320D01*
X85078551Y-102483636D01*
X85081989Y-102482792D01*
X85096112Y-102478928D01*
X85099523Y-102477898D01*
X85107006Y-102476592D01*
X85164686Y-102451272D01*
X85170793Y-102448781D01*
X85222606Y-102429202D01*
X85222607Y-102429201D01*
X85229711Y-102426517D01*
X85235966Y-102422218D01*
X85239107Y-102420576D01*
X85251854Y-102413482D01*
X85254966Y-102411642D01*
X85261922Y-102408588D01*
X85287977Y-102388595D01*
X85295415Y-102383876D01*
X85295248Y-102383630D01*
X85301526Y-102379363D01*
X85308282Y-102375876D01*
X85320960Y-102364815D01*
X85332416Y-102355931D01*
X85362878Y-102334996D01*
X85362887Y-102334988D01*
X85369141Y-102330690D01*
X85395485Y-102301122D01*
X85406733Y-102289992D01*
X85430047Y-102269654D01*
X85435774Y-102264658D01*
X85444528Y-102252203D01*
X85448604Y-102246402D01*
X85460739Y-102229136D01*
X85469746Y-102217773D01*
X85481688Y-102204370D01*
X85485244Y-102197654D01*
X85489578Y-102191419D01*
X85489768Y-102191551D01*
X85494972Y-102183537D01*
X85510103Y-102164240D01*
X85510103Y-102164239D01*
X85514791Y-102158261D01*
X85517917Y-102151338D01*
X85519764Y-102148288D01*
X85526989Y-102135622D01*
X85528686Y-102132457D01*
X85533056Y-102126239D01*
X85555956Y-102067504D01*
X85558483Y-102061491D01*
X85584412Y-102004065D01*
X85585796Y-101996597D01*
X85586864Y-101993189D01*
X85590864Y-101979150D01*
X85591753Y-101975686D01*
X85594512Y-101968611D01*
X85598147Y-101941002D01*
X85602735Y-101906155D01*
X85603767Y-101899641D01*
X85613860Y-101845183D01*
X85613860Y-101845180D01*
X85615244Y-101837714D01*
X85613849Y-101813513D01*
X85629897Y-101744355D01*
X85680788Y-101694851D01*
X85750364Y-101680719D01*
X85816535Y-101706447D01*
X85840463Y-101730694D01*
X85874239Y-101775761D01*
X85881419Y-101781142D01*
X85881420Y-101781143D01*
X85916065Y-101807108D01*
X85958580Y-101863967D01*
X85963913Y-101893574D01*
X85970975Y-101917623D01*
X85972365Y-101918828D01*
X85980048Y-101920499D01*
X86032169Y-101920499D01*
X86038990Y-101920129D01*
X86097707Y-101913752D01*
X86098005Y-101916498D01*
X86126946Y-101916440D01*
X86127184Y-101914245D01*
X86158280Y-101917623D01*
X86189366Y-101921000D01*
X86835634Y-101921000D01*
X86866721Y-101917623D01*
X86897816Y-101914245D01*
X86898080Y-101916674D01*
X86926920Y-101916674D01*
X86927184Y-101914245D01*
X86958280Y-101917623D01*
X86989366Y-101921000D01*
X87635634Y-101921000D01*
X87666721Y-101917623D01*
X87697816Y-101914245D01*
X87698080Y-101916674D01*
X87726920Y-101916674D01*
X87727184Y-101914245D01*
X87758280Y-101917623D01*
X87789366Y-101921000D01*
X88435634Y-101921000D01*
X88466721Y-101917623D01*
X88497816Y-101914245D01*
X88498080Y-101916674D01*
X88526920Y-101916674D01*
X88527184Y-101914245D01*
X88558280Y-101917623D01*
X88589366Y-101921000D01*
X89235634Y-101921000D01*
X89266721Y-101917623D01*
X89297816Y-101914245D01*
X89298080Y-101916674D01*
X89326920Y-101916674D01*
X89327184Y-101914245D01*
X89358280Y-101917623D01*
X89389366Y-101921000D01*
X90035634Y-101921000D01*
X90066721Y-101917623D01*
X90097816Y-101914245D01*
X90098080Y-101916674D01*
X90126920Y-101916674D01*
X90127184Y-101914245D01*
X90158280Y-101917623D01*
X90189366Y-101921000D01*
X90835634Y-101921000D01*
X90866721Y-101917623D01*
X90897816Y-101914245D01*
X90898080Y-101916674D01*
X90926920Y-101916674D01*
X90927184Y-101914245D01*
X90958280Y-101917623D01*
X90989366Y-101921000D01*
X91628500Y-101921000D01*
X91696621Y-101941002D01*
X91743114Y-101994658D01*
X91754500Y-102047000D01*
X91754500Y-102090385D01*
X91758975Y-102105624D01*
X91760365Y-102106829D01*
X91768048Y-102108500D01*
X92740385Y-102108500D01*
X92755624Y-102104025D01*
X92756829Y-102102635D01*
X92758500Y-102094952D01*
X92758500Y-102090385D01*
X93266500Y-102090385D01*
X93270975Y-102105624D01*
X93272365Y-102106829D01*
X93280048Y-102108500D01*
X94252384Y-102108500D01*
X94267623Y-102104025D01*
X94268828Y-102102635D01*
X94270499Y-102094952D01*
X94270499Y-102042831D01*
X94270129Y-102036010D01*
X94264605Y-101985148D01*
X94260979Y-101969896D01*
X94215824Y-101849446D01*
X94207286Y-101833851D01*
X94130785Y-101731776D01*
X94118224Y-101719215D01*
X94016149Y-101642714D01*
X94000554Y-101634176D01*
X93880106Y-101589022D01*
X93864851Y-101585395D01*
X93813986Y-101579869D01*
X93807172Y-101579500D01*
X93284615Y-101579500D01*
X93269376Y-101583975D01*
X93268171Y-101585365D01*
X93266500Y-101593048D01*
X93266500Y-102090385D01*
X92758500Y-102090385D01*
X92758500Y-101597616D01*
X92754025Y-101582377D01*
X92752635Y-101581172D01*
X92744952Y-101579501D01*
X92222000Y-101579501D01*
X92153879Y-101559499D01*
X92107386Y-101505843D01*
X92096000Y-101453501D01*
X92096000Y-100377885D01*
X95604500Y-100377885D01*
X95608975Y-100393124D01*
X95610365Y-100394329D01*
X95618048Y-100396000D01*
X96565385Y-100396000D01*
X96580624Y-100391525D01*
X96581829Y-100390135D01*
X96583500Y-100382452D01*
X96583500Y-100377885D01*
X97091500Y-100377885D01*
X97095975Y-100393124D01*
X97097365Y-100394329D01*
X97105048Y-100396000D01*
X98052384Y-100396000D01*
X98067623Y-100391525D01*
X98068828Y-100390135D01*
X98070499Y-100382452D01*
X98070499Y-100352905D01*
X98070162Y-100346386D01*
X98060243Y-100250794D01*
X98057351Y-100237400D01*
X98005912Y-100083216D01*
X97999739Y-100070038D01*
X97914437Y-99932193D01*
X97905401Y-99920792D01*
X97790671Y-99806261D01*
X97779260Y-99797249D01*
X97641257Y-99712184D01*
X97628076Y-99706037D01*
X97473790Y-99654862D01*
X97460414Y-99651995D01*
X97366062Y-99642328D01*
X97359645Y-99642000D01*
X97109615Y-99642000D01*
X97094376Y-99646475D01*
X97093171Y-99647865D01*
X97091500Y-99655548D01*
X97091500Y-100377885D01*
X96583500Y-100377885D01*
X96583500Y-99660116D01*
X96579025Y-99644877D01*
X96577635Y-99643672D01*
X96569952Y-99642001D01*
X96315405Y-99642001D01*
X96308886Y-99642338D01*
X96213294Y-99652257D01*
X96199900Y-99655149D01*
X96045716Y-99706588D01*
X96032538Y-99712761D01*
X95894693Y-99798063D01*
X95883292Y-99807099D01*
X95768761Y-99921829D01*
X95759749Y-99933240D01*
X95674684Y-100071243D01*
X95668537Y-100084424D01*
X95617362Y-100238710D01*
X95614495Y-100252086D01*
X95604828Y-100346438D01*
X95604500Y-100352855D01*
X95604500Y-100377885D01*
X92096000Y-100377885D01*
X92096000Y-99864366D01*
X92089245Y-99802184D01*
X92038115Y-99665795D01*
X91950761Y-99549239D01*
X91834205Y-99461885D01*
X91697816Y-99410755D01*
X91635634Y-99404000D01*
X90989366Y-99404000D01*
X90985969Y-99404369D01*
X90975052Y-99405555D01*
X90927184Y-99410755D01*
X90926920Y-99408326D01*
X90898080Y-99408326D01*
X90897816Y-99410755D01*
X90839031Y-99404369D01*
X90835634Y-99404000D01*
X90189366Y-99404000D01*
X90185969Y-99404369D01*
X90175052Y-99405555D01*
X90127184Y-99410755D01*
X90126920Y-99408326D01*
X90098080Y-99408326D01*
X90097816Y-99410755D01*
X90039031Y-99404369D01*
X90035634Y-99404000D01*
X89389366Y-99404000D01*
X89385969Y-99404369D01*
X89375052Y-99405555D01*
X89327184Y-99410755D01*
X89326920Y-99408326D01*
X89298080Y-99408326D01*
X89297816Y-99410755D01*
X89239031Y-99404369D01*
X89235634Y-99404000D01*
X88589366Y-99404000D01*
X88585969Y-99404369D01*
X88575052Y-99405555D01*
X88527184Y-99410755D01*
X88526920Y-99408326D01*
X88498080Y-99408326D01*
X88497816Y-99410755D01*
X88439031Y-99404369D01*
X88435634Y-99404000D01*
X88074000Y-99404000D01*
X88005879Y-99383998D01*
X87959386Y-99330342D01*
X87948000Y-99278000D01*
X87948000Y-99125303D01*
X87968002Y-99057182D01*
X87980364Y-99040993D01*
X87985414Y-99035385D01*
X88051540Y-98961944D01*
X88130451Y-98825267D01*
X88143723Y-98802279D01*
X88143724Y-98802278D01*
X88147027Y-98796556D01*
X88206042Y-98614928D01*
X88206899Y-98606779D01*
X88225314Y-98431565D01*
X88226004Y-98425000D01*
X88218117Y-98349956D01*
X88206732Y-98241635D01*
X88206732Y-98241633D01*
X88206042Y-98235072D01*
X88147027Y-98053444D01*
X88142295Y-98045247D01*
X88092218Y-97958512D01*
X88051540Y-97888056D01*
X88005864Y-97837327D01*
X87928175Y-97751045D01*
X87928174Y-97751044D01*
X87923753Y-97746134D01*
X87893294Y-97724004D01*
X87849940Y-97667781D01*
X87843865Y-97597045D01*
X87878260Y-97532973D01*
X88165828Y-97245405D01*
X88228140Y-97211379D01*
X88254923Y-97208500D01*
X89160634Y-97208500D01*
X89222816Y-97201745D01*
X89359205Y-97150615D01*
X89475761Y-97063261D01*
X89563115Y-96946705D01*
X89566783Y-96936921D01*
X89611638Y-96817271D01*
X89654279Y-96760506D01*
X89720841Y-96735806D01*
X89729620Y-96735500D01*
X90020707Y-96735500D01*
X90088828Y-96755502D01*
X90127850Y-96795196D01*
X90207772Y-96924348D01*
X90332947Y-97049305D01*
X90339177Y-97053145D01*
X90339178Y-97053146D01*
X90476538Y-97137816D01*
X90483512Y-97142115D01*
X90556446Y-97166306D01*
X90644861Y-97195632D01*
X90644863Y-97195632D01*
X90651389Y-97197797D01*
X90658225Y-97198497D01*
X90658228Y-97198498D01*
X90699935Y-97202771D01*
X90755850Y-97208500D01*
X91806650Y-97208500D01*
X91809896Y-97208163D01*
X91809900Y-97208163D01*
X91905558Y-97198238D01*
X91905562Y-97198237D01*
X91912416Y-97197526D01*
X91918952Y-97195345D01*
X91918954Y-97195345D01*
X92069169Y-97145229D01*
X92080196Y-97141550D01*
X92230598Y-97048478D01*
X92355555Y-96923303D01*
X92408445Y-96837500D01*
X92444525Y-96778968D01*
X92444526Y-96778966D01*
X92448365Y-96772738D01*
X92448579Y-96772093D01*
X103864289Y-96772093D01*
X103873098Y-97006716D01*
X103874193Y-97011934D01*
X103919529Y-97228001D01*
X103921312Y-97236501D01*
X104007552Y-97454877D01*
X104010321Y-97459440D01*
X104119706Y-97639700D01*
X104129354Y-97655600D01*
X104283235Y-97832932D01*
X104287367Y-97836320D01*
X104460666Y-97978417D01*
X104460672Y-97978421D01*
X104464794Y-97981801D01*
X104469430Y-97984440D01*
X104469433Y-97984442D01*
X104590942Y-98053609D01*
X104668840Y-98097951D01*
X104889539Y-98178061D01*
X104894788Y-98179010D01*
X104894791Y-98179011D01*
X104975865Y-98193671D01*
X105120580Y-98219840D01*
X105124719Y-98220035D01*
X105124726Y-98220036D01*
X105143690Y-98220930D01*
X105143699Y-98220930D01*
X105145179Y-98221000D01*
X105310200Y-98221000D01*
X105391549Y-98214097D01*
X105479887Y-98206602D01*
X105479891Y-98206601D01*
X105485198Y-98206151D01*
X105490353Y-98204813D01*
X105490359Y-98204812D01*
X105707285Y-98148509D01*
X105707284Y-98148509D01*
X105712456Y-98147167D01*
X105717322Y-98144975D01*
X105717325Y-98144974D01*
X105921667Y-98052924D01*
X105921670Y-98052923D01*
X105926528Y-98050734D01*
X105931004Y-98047721D01*
X105989243Y-98008512D01*
X106121291Y-97919612D01*
X106129223Y-97912046D01*
X106212155Y-97832932D01*
X106291177Y-97757549D01*
X106300791Y-97744628D01*
X106380652Y-97637290D01*
X106431328Y-97569179D01*
X106435441Y-97561091D01*
X106535319Y-97364644D01*
X106535319Y-97364643D01*
X106537737Y-97359888D01*
X106607361Y-97135660D01*
X106618807Y-97049305D01*
X106626013Y-96994938D01*
X107828850Y-96994938D01*
X107868314Y-97307330D01*
X107946620Y-97612313D01*
X108062534Y-97905077D01*
X108064436Y-97908536D01*
X108064437Y-97908539D01*
X108196362Y-98148509D01*
X108214226Y-98181004D01*
X108309125Y-98311622D01*
X108391461Y-98424947D01*
X108399305Y-98435744D01*
X108614852Y-98665278D01*
X108857468Y-98865987D01*
X109123326Y-99034706D01*
X109126905Y-99036390D01*
X109126912Y-99036394D01*
X109404644Y-99167084D01*
X109404648Y-99167086D01*
X109408234Y-99168773D01*
X109707698Y-99266075D01*
X110016996Y-99325077D01*
X110100682Y-99330342D01*
X110250608Y-99339775D01*
X110250624Y-99339776D01*
X110252603Y-99339900D01*
X110409897Y-99339900D01*
X110411876Y-99339776D01*
X110411892Y-99339775D01*
X110561818Y-99330342D01*
X110645504Y-99325077D01*
X110954802Y-99266075D01*
X111254266Y-99168773D01*
X111257852Y-99167086D01*
X111257856Y-99167084D01*
X111535588Y-99036394D01*
X111535595Y-99036390D01*
X111539174Y-99034706D01*
X111805032Y-98865987D01*
X112047648Y-98665278D01*
X112263195Y-98435744D01*
X112271040Y-98424947D01*
X112353375Y-98311622D01*
X112448274Y-98181004D01*
X112466139Y-98148509D01*
X112598063Y-97908539D01*
X112598064Y-97908536D01*
X112599966Y-97905077D01*
X112715880Y-97612313D01*
X112794186Y-97307330D01*
X112833650Y-96994938D01*
X112833650Y-96680062D01*
X112794186Y-96367670D01*
X112715880Y-96062687D01*
X112599966Y-95769923D01*
X112596784Y-95764135D01*
X112450183Y-95497468D01*
X112450181Y-95497465D01*
X112448274Y-95493996D01*
X112273395Y-95253295D01*
X112265523Y-95242460D01*
X112265522Y-95242458D01*
X112263195Y-95239256D01*
X112047648Y-95009722D01*
X111805032Y-94809013D01*
X111560771Y-94654000D01*
X111542521Y-94642418D01*
X111542520Y-94642418D01*
X111539174Y-94640294D01*
X111535595Y-94638610D01*
X111535588Y-94638606D01*
X111257856Y-94507916D01*
X111257852Y-94507914D01*
X111254266Y-94506227D01*
X111232649Y-94499203D01*
X110958578Y-94410152D01*
X110958579Y-94410152D01*
X110954802Y-94408925D01*
X110645504Y-94349923D01*
X110551950Y-94344037D01*
X110411892Y-94335225D01*
X110411876Y-94335224D01*
X110409897Y-94335100D01*
X110252603Y-94335100D01*
X110250624Y-94335224D01*
X110250608Y-94335225D01*
X110110550Y-94344037D01*
X110016996Y-94349923D01*
X109707698Y-94408925D01*
X109703921Y-94410152D01*
X109703922Y-94410152D01*
X109429852Y-94499203D01*
X109408234Y-94506227D01*
X109404648Y-94507914D01*
X109404644Y-94507916D01*
X109126912Y-94638606D01*
X109126905Y-94638610D01*
X109123326Y-94640294D01*
X109119980Y-94642418D01*
X109119979Y-94642418D01*
X109101729Y-94654000D01*
X108857468Y-94809013D01*
X108614852Y-95009722D01*
X108399305Y-95239256D01*
X108396978Y-95242458D01*
X108396977Y-95242460D01*
X108389105Y-95253295D01*
X108214226Y-95493996D01*
X108212319Y-95497465D01*
X108212317Y-95497468D01*
X108065716Y-95764135D01*
X108062534Y-95769923D01*
X107946620Y-96062687D01*
X107868314Y-96367670D01*
X107828850Y-96680062D01*
X107828850Y-96994938D01*
X106626013Y-96994938D01*
X106637511Y-96908190D01*
X106637511Y-96908187D01*
X106638211Y-96902907D01*
X106629402Y-96668284D01*
X106608043Y-96566490D01*
X106582285Y-96443726D01*
X106582284Y-96443723D01*
X106581188Y-96438499D01*
X106494948Y-96220123D01*
X106436284Y-96123448D01*
X106418045Y-96054834D01*
X106439796Y-95987251D01*
X106494633Y-95942157D01*
X106547083Y-95932120D01*
X106583020Y-95932999D01*
X106604893Y-95933534D01*
X106604895Y-95933534D01*
X106609849Y-95933655D01*
X106864710Y-95899650D01*
X107111112Y-95826197D01*
X107342991Y-95715101D01*
X107367655Y-95698087D01*
X107389169Y-95683245D01*
X107554635Y-95569099D01*
X107694213Y-95436183D01*
X107719997Y-95407447D01*
X108969038Y-94015388D01*
X108980988Y-94003727D01*
X108986122Y-93999342D01*
X108986125Y-93999339D01*
X108989881Y-93996131D01*
X108993088Y-93992376D01*
X108993095Y-93992369D01*
X109059384Y-93914754D01*
X109061413Y-93912436D01*
X109088283Y-93882490D01*
X109088298Y-93882471D01*
X109089939Y-93880643D01*
X109091434Y-93878687D01*
X109091442Y-93878678D01*
X109100025Y-93867452D01*
X109104308Y-93862154D01*
X109153650Y-93804381D01*
X109156866Y-93800616D01*
X109159449Y-93796401D01*
X109159457Y-93796390D01*
X109176657Y-93768322D01*
X109183986Y-93757637D01*
X109207006Y-93727529D01*
X109211057Y-93720038D01*
X109245522Y-93656297D01*
X109248924Y-93650393D01*
X109288621Y-93585613D01*
X109288624Y-93585606D01*
X109291210Y-93581387D01*
X109293103Y-93576817D01*
X109293107Y-93576809D01*
X109305703Y-93546398D01*
X109311271Y-93534697D01*
X109329299Y-93501356D01*
X109356202Y-93424963D01*
X109358637Y-93418604D01*
X109387713Y-93348409D01*
X109387715Y-93348403D01*
X109389605Y-93343840D01*
X109390757Y-93339040D01*
X109390760Y-93339032D01*
X109398445Y-93307020D01*
X109402118Y-93294581D01*
X109413064Y-93263500D01*
X109413065Y-93263494D01*
X109414706Y-93258836D01*
X109429326Y-93179181D01*
X109430737Y-93172514D01*
X109448473Y-93098638D01*
X109448474Y-93098635D01*
X109449628Y-93093826D01*
X109452599Y-93056077D01*
X109454281Y-93043218D01*
X109460227Y-93010818D01*
X109461122Y-93005943D01*
X109463102Y-92924974D01*
X109463451Y-92918178D01*
X109464659Y-92902837D01*
X109469801Y-92837500D01*
X109466831Y-92799755D01*
X109466481Y-92786793D01*
X109467286Y-92753858D01*
X109467286Y-92753856D01*
X109467407Y-92748901D01*
X109456695Y-92668618D01*
X109455976Y-92661840D01*
X109450016Y-92586104D01*
X109449628Y-92581174D01*
X109448474Y-92576369D01*
X109448472Y-92576354D01*
X109440788Y-92544350D01*
X109438413Y-92531598D01*
X109434057Y-92498946D01*
X109434056Y-92498941D01*
X109433402Y-92494040D01*
X109410265Y-92416427D01*
X109408496Y-92409848D01*
X109396407Y-92359492D01*
X109389605Y-92331160D01*
X109376508Y-92299540D01*
X109375117Y-92296181D01*
X109372616Y-92289140D01*
X111197205Y-92289140D01*
X111197229Y-92291624D01*
X111197229Y-92291626D01*
X111199023Y-92476920D01*
X111199071Y-92481871D01*
X111241751Y-92735422D01*
X111243323Y-92740106D01*
X111243324Y-92740109D01*
X111305380Y-92924986D01*
X111323569Y-92979176D01*
X111325859Y-92983564D01*
X111325859Y-92983565D01*
X111428394Y-93180073D01*
X111442511Y-93207129D01*
X111595648Y-93413669D01*
X111779211Y-93593710D01*
X111783250Y-93596585D01*
X111783251Y-93596586D01*
X111976884Y-93734424D01*
X111988677Y-93742819D01*
X111993113Y-93745025D01*
X111993114Y-93745026D01*
X112214458Y-93855120D01*
X112214462Y-93855122D01*
X112218892Y-93857325D01*
X112464184Y-93934407D01*
X112718514Y-93972168D01*
X112782301Y-93971550D01*
X112970670Y-93969727D01*
X112970671Y-93969727D01*
X112975621Y-93969679D01*
X113229172Y-93926999D01*
X113374428Y-93878243D01*
X113445371Y-93875529D01*
X113503616Y-93908599D01*
X114940152Y-95345135D01*
X114974178Y-95407447D01*
X114969113Y-95478262D01*
X114926566Y-95535098D01*
X114902807Y-95549112D01*
X114740837Y-95622074D01*
X114740833Y-95622076D01*
X114735972Y-95624266D01*
X114541209Y-95755388D01*
X114537352Y-95759067D01*
X114537350Y-95759069D01*
X114504526Y-95790382D01*
X114371323Y-95917451D01*
X114368141Y-95921728D01*
X114368140Y-95921729D01*
X114360409Y-95932120D01*
X114231172Y-96105821D01*
X114228756Y-96110572D01*
X114228754Y-96110576D01*
X114149807Y-96265854D01*
X114124763Y-96315112D01*
X114055139Y-96539340D01*
X114054438Y-96544629D01*
X114024993Y-96766784D01*
X114024289Y-96772093D01*
X114033098Y-97006716D01*
X114034193Y-97011934D01*
X114079529Y-97228001D01*
X114081312Y-97236501D01*
X114167552Y-97454877D01*
X114170321Y-97459440D01*
X114279706Y-97639700D01*
X114289354Y-97655600D01*
X114443235Y-97832932D01*
X114447367Y-97836320D01*
X114620666Y-97978417D01*
X114620672Y-97978421D01*
X114624794Y-97981801D01*
X114629430Y-97984440D01*
X114629433Y-97984442D01*
X114750942Y-98053609D01*
X114828840Y-98097951D01*
X115049539Y-98178061D01*
X115054788Y-98179010D01*
X115054791Y-98179011D01*
X115135865Y-98193671D01*
X115280580Y-98219840D01*
X115284719Y-98220035D01*
X115284726Y-98220036D01*
X115303690Y-98220930D01*
X115303699Y-98220930D01*
X115305179Y-98221000D01*
X115470200Y-98221000D01*
X115551549Y-98214097D01*
X115639887Y-98206602D01*
X115639891Y-98206601D01*
X115645198Y-98206151D01*
X115650353Y-98204813D01*
X115650359Y-98204812D01*
X115867285Y-98148509D01*
X115867284Y-98148509D01*
X115872456Y-98147167D01*
X115877322Y-98144975D01*
X115877325Y-98144974D01*
X116081667Y-98052924D01*
X116081670Y-98052923D01*
X116086528Y-98050734D01*
X116091004Y-98047721D01*
X116149243Y-98008512D01*
X116281291Y-97919612D01*
X116289223Y-97912046D01*
X116372155Y-97832932D01*
X116451177Y-97757549D01*
X116460791Y-97744628D01*
X116540652Y-97637290D01*
X116591328Y-97569179D01*
X116595441Y-97561091D01*
X116695319Y-97364644D01*
X116695319Y-97364643D01*
X116697737Y-97359888D01*
X116767361Y-97135660D01*
X116778807Y-97049305D01*
X116797511Y-96908190D01*
X116797511Y-96908187D01*
X116798211Y-96902907D01*
X116793300Y-96772093D01*
X122914289Y-96772093D01*
X122923098Y-97006716D01*
X122924193Y-97011934D01*
X122969529Y-97228001D01*
X122971312Y-97236501D01*
X123057552Y-97454877D01*
X123060321Y-97459440D01*
X123169706Y-97639700D01*
X123179354Y-97655600D01*
X123333235Y-97832932D01*
X123337367Y-97836320D01*
X123510666Y-97978417D01*
X123510672Y-97978421D01*
X123514794Y-97981801D01*
X123519430Y-97984440D01*
X123519433Y-97984442D01*
X123640942Y-98053609D01*
X123718840Y-98097951D01*
X123939539Y-98178061D01*
X123944788Y-98179010D01*
X123944791Y-98179011D01*
X124025865Y-98193671D01*
X124170580Y-98219840D01*
X124174719Y-98220035D01*
X124174726Y-98220036D01*
X124193690Y-98220930D01*
X124193699Y-98220930D01*
X124195179Y-98221000D01*
X124360200Y-98221000D01*
X124441549Y-98214097D01*
X124529887Y-98206602D01*
X124529891Y-98206601D01*
X124535198Y-98206151D01*
X124540353Y-98204813D01*
X124540359Y-98204812D01*
X124757285Y-98148509D01*
X124757284Y-98148509D01*
X124762456Y-98147167D01*
X124767322Y-98144975D01*
X124767325Y-98144974D01*
X124971667Y-98052924D01*
X124971670Y-98052923D01*
X124976528Y-98050734D01*
X124981004Y-98047721D01*
X125039243Y-98008512D01*
X125171291Y-97919612D01*
X125179223Y-97912046D01*
X125262155Y-97832932D01*
X125341177Y-97757549D01*
X125350791Y-97744628D01*
X125430652Y-97637290D01*
X125481328Y-97569179D01*
X125485441Y-97561091D01*
X125585319Y-97364644D01*
X125585319Y-97364643D01*
X125587737Y-97359888D01*
X125657361Y-97135660D01*
X125668807Y-97049305D01*
X125687511Y-96908190D01*
X125687511Y-96908187D01*
X125688211Y-96902907D01*
X125679402Y-96668284D01*
X125658043Y-96566490D01*
X125632285Y-96443726D01*
X125632284Y-96443723D01*
X125631188Y-96438499D01*
X125544948Y-96220123D01*
X125486284Y-96123448D01*
X125468045Y-96054834D01*
X125489796Y-95987251D01*
X125544633Y-95942157D01*
X125597083Y-95932120D01*
X125633020Y-95932999D01*
X125654893Y-95933534D01*
X125654895Y-95933534D01*
X125659849Y-95933655D01*
X125914710Y-95899650D01*
X126161112Y-95826197D01*
X126392991Y-95715101D01*
X126417655Y-95698087D01*
X126439169Y-95683245D01*
X126604635Y-95569099D01*
X126744213Y-95436183D01*
X126769997Y-95407447D01*
X128019038Y-94015388D01*
X128030988Y-94003727D01*
X128036122Y-93999342D01*
X128036125Y-93999339D01*
X128039881Y-93996131D01*
X128043088Y-93992376D01*
X128043095Y-93992369D01*
X128109384Y-93914754D01*
X128111413Y-93912436D01*
X128138283Y-93882490D01*
X128138298Y-93882471D01*
X128139939Y-93880643D01*
X128141434Y-93878687D01*
X128141442Y-93878678D01*
X128150025Y-93867452D01*
X128154308Y-93862154D01*
X128203650Y-93804381D01*
X128206866Y-93800616D01*
X128209449Y-93796401D01*
X128209457Y-93796390D01*
X128226657Y-93768322D01*
X128233986Y-93757637D01*
X128257006Y-93727529D01*
X128261057Y-93720038D01*
X128295522Y-93656297D01*
X128298924Y-93650393D01*
X128338621Y-93585613D01*
X128338624Y-93585606D01*
X128341210Y-93581387D01*
X128343103Y-93576817D01*
X128343107Y-93576809D01*
X128355703Y-93546398D01*
X128361271Y-93534697D01*
X128379299Y-93501356D01*
X128406202Y-93424963D01*
X128408637Y-93418604D01*
X128437713Y-93348409D01*
X128437715Y-93348403D01*
X128439605Y-93343840D01*
X128440757Y-93339040D01*
X128440760Y-93339032D01*
X128448445Y-93307020D01*
X128452118Y-93294581D01*
X128463064Y-93263500D01*
X128463065Y-93263494D01*
X128464706Y-93258836D01*
X128479326Y-93179181D01*
X128480737Y-93172514D01*
X128498473Y-93098638D01*
X128498474Y-93098635D01*
X128499628Y-93093826D01*
X128502599Y-93056077D01*
X128504281Y-93043218D01*
X128510227Y-93010818D01*
X128511122Y-93005943D01*
X128513102Y-92924974D01*
X128513451Y-92918178D01*
X128514659Y-92902837D01*
X128519801Y-92837500D01*
X128516831Y-92799755D01*
X128516481Y-92786793D01*
X128517286Y-92753858D01*
X128517286Y-92753856D01*
X128517407Y-92748901D01*
X128506695Y-92668618D01*
X128505976Y-92661840D01*
X128500016Y-92586104D01*
X128499628Y-92581174D01*
X128498474Y-92576369D01*
X128498472Y-92576354D01*
X128490788Y-92544350D01*
X128488413Y-92531598D01*
X128484057Y-92498946D01*
X128484056Y-92498941D01*
X128483402Y-92494040D01*
X128460265Y-92416427D01*
X128458496Y-92409848D01*
X128446407Y-92359492D01*
X128439605Y-92331160D01*
X128426508Y-92299540D01*
X128425117Y-92296181D01*
X128420777Y-92283961D01*
X128409949Y-92247638D01*
X128374955Y-92174599D01*
X128372179Y-92168379D01*
X128343105Y-92098187D01*
X128343103Y-92098183D01*
X128341210Y-92093613D01*
X128338624Y-92089394D01*
X128338621Y-92089387D01*
X128321426Y-92061327D01*
X128315228Y-92049936D01*
X128307285Y-92033358D01*
X128298853Y-92015759D01*
X128289832Y-92002682D01*
X128252867Y-91949098D01*
X128249149Y-91943385D01*
X128206866Y-91874384D01*
X128182280Y-91845597D01*
X128174377Y-91835317D01*
X128155659Y-91808183D01*
X128155652Y-91808175D01*
X128152851Y-91804114D01*
X128097004Y-91745468D01*
X128092441Y-91740409D01*
X128043099Y-91682636D01*
X128043093Y-91682630D01*
X128039881Y-91678869D01*
X128011081Y-91654272D01*
X128001670Y-91645356D01*
X127993883Y-91637178D01*
X127975539Y-91617915D01*
X127971607Y-91614909D01*
X127971604Y-91614906D01*
X127911197Y-91568721D01*
X127905924Y-91564459D01*
X127844366Y-91511884D01*
X127812074Y-91492095D01*
X127801392Y-91484768D01*
X127771281Y-91461746D01*
X127700057Y-91423235D01*
X127694163Y-91419839D01*
X127629357Y-91380126D01*
X127625137Y-91377540D01*
X127620567Y-91375647D01*
X127620559Y-91375643D01*
X127590141Y-91363044D01*
X127578439Y-91357475D01*
X127545108Y-91339453D01*
X127468732Y-91312556D01*
X127462373Y-91310121D01*
X127392163Y-91281039D01*
X127392161Y-91281038D01*
X127387590Y-91279145D01*
X127382779Y-91277990D01*
X127382776Y-91277989D01*
X127362074Y-91273019D01*
X127350761Y-91270303D01*
X127338323Y-91266630D01*
X127307262Y-91255691D01*
X127307254Y-91255689D01*
X127302589Y-91254046D01*
X127222947Y-91239428D01*
X127216303Y-91238022D01*
X127163960Y-91225456D01*
X127142388Y-91220277D01*
X127142385Y-91220277D01*
X127137576Y-91219122D01*
X127116863Y-91217492D01*
X127099813Y-91216150D01*
X127086953Y-91214468D01*
X127054568Y-91208524D01*
X127054563Y-91208523D01*
X127049695Y-91207630D01*
X126968760Y-91205651D01*
X126961979Y-91205303D01*
X126881250Y-91198949D01*
X126876320Y-91199337D01*
X126843488Y-91201921D01*
X126830522Y-91202271D01*
X126797610Y-91201466D01*
X126797607Y-91201466D01*
X126792653Y-91201345D01*
X126712399Y-91212053D01*
X126705649Y-91212769D01*
X126671952Y-91215421D01*
X126629861Y-91218733D01*
X126629855Y-91218734D01*
X126624924Y-91219122D01*
X126620112Y-91220277D01*
X126620107Y-91220278D01*
X126588081Y-91227967D01*
X126575335Y-91230341D01*
X126537793Y-91235350D01*
X126460223Y-91258473D01*
X126453661Y-91260238D01*
X126374910Y-91279145D01*
X126370344Y-91281036D01*
X126370342Y-91281037D01*
X126339903Y-91293645D01*
X126327680Y-91297985D01*
X126291390Y-91308803D01*
X126273795Y-91317233D01*
X126218395Y-91343775D01*
X126212173Y-91346551D01*
X126141941Y-91375643D01*
X126141934Y-91375647D01*
X126137363Y-91377540D01*
X126105047Y-91397343D01*
X126093667Y-91403534D01*
X126063974Y-91417760D01*
X126063967Y-91417764D01*
X126059511Y-91419899D01*
X126049809Y-91426592D01*
X125992902Y-91465849D01*
X125987190Y-91469565D01*
X125922357Y-91509295D01*
X125922347Y-91509302D01*
X125918134Y-91511884D01*
X125896921Y-91530002D01*
X125889316Y-91536497D01*
X125879039Y-91544398D01*
X125847867Y-91565901D01*
X125793247Y-91617915D01*
X125789270Y-91621702D01*
X125784210Y-91626266D01*
X125722619Y-91678869D01*
X125719411Y-91682625D01*
X125719406Y-91682630D01*
X125653049Y-91760324D01*
X125651028Y-91762634D01*
X124312563Y-93254356D01*
X124311066Y-93256314D01*
X124234400Y-93356588D01*
X124195496Y-93407471D01*
X124073203Y-93633644D01*
X124071559Y-93638311D01*
X124071559Y-93638312D01*
X123989438Y-93871499D01*
X123989436Y-93871505D01*
X123987796Y-93876163D01*
X123986904Y-93881024D01*
X123986903Y-93881027D01*
X123942274Y-94124185D01*
X123941380Y-94129057D01*
X123940738Y-94155308D01*
X123935517Y-94368858D01*
X123935095Y-94386099D01*
X123969100Y-94640960D01*
X124042553Y-94887362D01*
X124044695Y-94891832D01*
X124044695Y-94891833D01*
X124051430Y-94905891D01*
X124153649Y-95119241D01*
X124156464Y-95123322D01*
X124156466Y-95123325D01*
X124253411Y-95263857D01*
X124275629Y-95331288D01*
X124257863Y-95400026D01*
X124205755Y-95448247D01*
X124160350Y-95460954D01*
X124122795Y-95464140D01*
X124072613Y-95468398D01*
X124072609Y-95468399D01*
X124067302Y-95468849D01*
X124062147Y-95470187D01*
X124062141Y-95470188D01*
X123884427Y-95516314D01*
X123840044Y-95527833D01*
X123835178Y-95530025D01*
X123835175Y-95530026D01*
X123630833Y-95622076D01*
X123630830Y-95622077D01*
X123625972Y-95624266D01*
X123431209Y-95755388D01*
X123427352Y-95759067D01*
X123427350Y-95759069D01*
X123394526Y-95790382D01*
X123261323Y-95917451D01*
X123258141Y-95921728D01*
X123258140Y-95921729D01*
X123250409Y-95932120D01*
X123121172Y-96105821D01*
X123118756Y-96110572D01*
X123118754Y-96110576D01*
X123039807Y-96265854D01*
X123014763Y-96315112D01*
X122945139Y-96539340D01*
X122944438Y-96544629D01*
X122914993Y-96766784D01*
X122914289Y-96772093D01*
X116793300Y-96772093D01*
X116789402Y-96668284D01*
X116768043Y-96566490D01*
X116742285Y-96443726D01*
X116742284Y-96443723D01*
X116741188Y-96438499D01*
X116654948Y-96220123D01*
X116533146Y-96019400D01*
X116533856Y-96018969D01*
X116511412Y-95956415D01*
X116527371Y-95887235D01*
X116578197Y-95837665D01*
X116637194Y-95823000D01*
X117460662Y-95823000D01*
X117528783Y-95843002D01*
X117567269Y-95884292D01*
X117567385Y-95884205D01*
X117568190Y-95885280D01*
X117568193Y-95885284D01*
X117654739Y-96000761D01*
X117771295Y-96088115D01*
X117907684Y-96139245D01*
X117969866Y-96146000D01*
X119266134Y-96146000D01*
X119328316Y-96139245D01*
X119464705Y-96088115D01*
X119581261Y-96000761D01*
X119668615Y-95884205D01*
X119719745Y-95747816D01*
X119726500Y-95685634D01*
X119726500Y-94689366D01*
X119719745Y-94627184D01*
X119668615Y-94490795D01*
X119581261Y-94374239D01*
X119464705Y-94286885D01*
X119328316Y-94235755D01*
X119266134Y-94229000D01*
X117969866Y-94229000D01*
X117907684Y-94235755D01*
X117771295Y-94286885D01*
X117654739Y-94374239D01*
X117567385Y-94490795D01*
X117567101Y-94490582D01*
X117520920Y-94536657D01*
X117460662Y-94552000D01*
X115996673Y-94552000D01*
X115928552Y-94531998D01*
X115907578Y-94515095D01*
X114402993Y-93010510D01*
X114368967Y-92948198D01*
X114371884Y-92883641D01*
X114426672Y-92709295D01*
X114426675Y-92709282D01*
X114428157Y-92704566D01*
X114456463Y-92513916D01*
X114457496Y-92498946D01*
X114500287Y-91878471D01*
X114500376Y-91877254D01*
X114509413Y-91762430D01*
X114509801Y-91757500D01*
X114508456Y-91740409D01*
X114504469Y-91689747D01*
X114504087Y-91681082D01*
X114503477Y-91618080D01*
X114503477Y-91618079D01*
X114503429Y-91613129D01*
X114497438Y-91577537D01*
X114494981Y-91562941D01*
X114493621Y-91551912D01*
X114492408Y-91536497D01*
X114489628Y-91501174D01*
X114481614Y-91467792D01*
X114473763Y-91435089D01*
X114472030Y-91426592D01*
X114467105Y-91397336D01*
X114460749Y-91359578D01*
X114455445Y-91343775D01*
X114444556Y-91311337D01*
X114441487Y-91300654D01*
X114430759Y-91255967D01*
X114430759Y-91255966D01*
X114429605Y-91251160D01*
X114403591Y-91188356D01*
X114400557Y-91180253D01*
X114380507Y-91120518D01*
X114380505Y-91120513D01*
X114378931Y-91115824D01*
X114376642Y-91111437D01*
X114376639Y-91111430D01*
X114355391Y-91070709D01*
X114350689Y-91060639D01*
X114333107Y-91018191D01*
X114333103Y-91018184D01*
X114331210Y-91013613D01*
X114295694Y-90955657D01*
X114291430Y-90948128D01*
X114262279Y-90892260D01*
X114259989Y-90887871D01*
X114257041Y-90883894D01*
X114257036Y-90883887D01*
X114229674Y-90846983D01*
X114223464Y-90837787D01*
X114196866Y-90794384D01*
X114152728Y-90742705D01*
X114147340Y-90735938D01*
X114106852Y-90681330D01*
X114070510Y-90645684D01*
X114062929Y-90637563D01*
X114055294Y-90628623D01*
X114029881Y-90598869D01*
X114026125Y-90595661D01*
X114026120Y-90595656D01*
X113978211Y-90554738D01*
X113971813Y-90548881D01*
X113926823Y-90504754D01*
X113926815Y-90504747D01*
X113923289Y-90501289D01*
X113891746Y-90478835D01*
X113881822Y-90471771D01*
X113873061Y-90464933D01*
X113838133Y-90435101D01*
X113838130Y-90435099D01*
X113834366Y-90431884D01*
X113776425Y-90396378D01*
X113769218Y-90391614D01*
X113713823Y-90352180D01*
X113668243Y-90329510D01*
X113658521Y-90324126D01*
X113619360Y-90300128D01*
X113615137Y-90297540D01*
X113610567Y-90295647D01*
X113610565Y-90295646D01*
X113552351Y-90271533D01*
X113544457Y-90267940D01*
X113488041Y-90239880D01*
X113488042Y-90239880D01*
X113483608Y-90237675D01*
X113435049Y-90222415D01*
X113424610Y-90218621D01*
X113377590Y-90199145D01*
X113315326Y-90184197D01*
X113311507Y-90183280D01*
X113303146Y-90180965D01*
X113243042Y-90162077D01*
X113243040Y-90162077D01*
X113238316Y-90160592D01*
X113187971Y-90153117D01*
X113177060Y-90151002D01*
X113132387Y-90140277D01*
X113127576Y-90139122D01*
X113106534Y-90137466D01*
X113059825Y-90133790D01*
X113051207Y-90132812D01*
X113000750Y-90125321D01*
X112983986Y-90122832D01*
X112979031Y-90122880D01*
X112933102Y-90123325D01*
X112921994Y-90122943D01*
X112876180Y-90119337D01*
X112871250Y-90118949D01*
X112866320Y-90119337D01*
X112866319Y-90119337D01*
X112803496Y-90124281D01*
X112794831Y-90124663D01*
X112731830Y-90125273D01*
X112731829Y-90125273D01*
X112726879Y-90125321D01*
X112676689Y-90133769D01*
X112665661Y-90135129D01*
X112614924Y-90139122D01*
X112610111Y-90140278D01*
X112610108Y-90140278D01*
X112548843Y-90154986D01*
X112540345Y-90156719D01*
X112478214Y-90167177D01*
X112478207Y-90167179D01*
X112473328Y-90168000D01*
X112468632Y-90169576D01*
X112468633Y-90169576D01*
X112425073Y-90184197D01*
X112414397Y-90187264D01*
X112364910Y-90199145D01*
X112360344Y-90201036D01*
X112360342Y-90201037D01*
X112302130Y-90225149D01*
X112294006Y-90228191D01*
X112270175Y-90236190D01*
X112229574Y-90249818D01*
X112195629Y-90267530D01*
X112184446Y-90273365D01*
X112174377Y-90278066D01*
X112127363Y-90297540D01*
X112123144Y-90300125D01*
X112123133Y-90300131D01*
X112069418Y-90333048D01*
X112061870Y-90337324D01*
X112006013Y-90366469D01*
X112006010Y-90366471D01*
X112001621Y-90368761D01*
X111997641Y-90371712D01*
X111960740Y-90399072D01*
X111951530Y-90405291D01*
X111908134Y-90431884D01*
X111856443Y-90476032D01*
X111849695Y-90481405D01*
X111795081Y-90521898D01*
X111791625Y-90525422D01*
X111791620Y-90525426D01*
X111759442Y-90558234D01*
X111751320Y-90565815D01*
X111712619Y-90598869D01*
X111709411Y-90602625D01*
X111709406Y-90602630D01*
X111668481Y-90650547D01*
X111662624Y-90656945D01*
X111618505Y-90701927D01*
X111618498Y-90701935D01*
X111615040Y-90705461D01*
X111612175Y-90709486D01*
X111612174Y-90709487D01*
X111585527Y-90746921D01*
X111578689Y-90755682D01*
X111551239Y-90787822D01*
X111545634Y-90794384D01*
X111513401Y-90846983D01*
X111510130Y-90852321D01*
X111505347Y-90859555D01*
X111482066Y-90892260D01*
X111465931Y-90914927D01*
X111463729Y-90919354D01*
X111463726Y-90919359D01*
X111443264Y-90960498D01*
X111437892Y-90970202D01*
X111411290Y-91013613D01*
X111409399Y-91018178D01*
X111409396Y-91018184D01*
X111385281Y-91076403D01*
X111381697Y-91084279D01*
X111351425Y-91145141D01*
X111349943Y-91149857D01*
X111349939Y-91149867D01*
X111336164Y-91193701D01*
X111332369Y-91204145D01*
X111326327Y-91218733D01*
X111312895Y-91251160D01*
X111297024Y-91317265D01*
X111294725Y-91325573D01*
X111274343Y-91390433D01*
X111273616Y-91395331D01*
X111266868Y-91440776D01*
X111264753Y-91451682D01*
X111254029Y-91496354D01*
X111252872Y-91501174D01*
X111252484Y-91506105D01*
X111252483Y-91506111D01*
X111247539Y-91568932D01*
X111246563Y-91577537D01*
X111246401Y-91578631D01*
X111246037Y-91581084D01*
X111242215Y-91636497D01*
X111242126Y-91637708D01*
X111232699Y-91757500D01*
X111233087Y-91762430D01*
X111233087Y-91764520D01*
X111232788Y-91773189D01*
X111197571Y-92283838D01*
X111197205Y-92289140D01*
X109372616Y-92289140D01*
X109370777Y-92283961D01*
X109359949Y-92247638D01*
X109324955Y-92174599D01*
X109322179Y-92168379D01*
X109293105Y-92098187D01*
X109293103Y-92098183D01*
X109291210Y-92093613D01*
X109288624Y-92089394D01*
X109288621Y-92089387D01*
X109271426Y-92061327D01*
X109265228Y-92049936D01*
X109257285Y-92033358D01*
X109248853Y-92015759D01*
X109239832Y-92002682D01*
X109202867Y-91949098D01*
X109199149Y-91943385D01*
X109156866Y-91874384D01*
X109132280Y-91845597D01*
X109124377Y-91835317D01*
X109105659Y-91808183D01*
X109105652Y-91808175D01*
X109102851Y-91804114D01*
X109047004Y-91745468D01*
X109042441Y-91740409D01*
X108993099Y-91682636D01*
X108993093Y-91682630D01*
X108989881Y-91678869D01*
X108961081Y-91654272D01*
X108951670Y-91645356D01*
X108943883Y-91637178D01*
X108925539Y-91617915D01*
X108921607Y-91614909D01*
X108921604Y-91614906D01*
X108861197Y-91568721D01*
X108855924Y-91564459D01*
X108794366Y-91511884D01*
X108762074Y-91492095D01*
X108751392Y-91484768D01*
X108721281Y-91461746D01*
X108650057Y-91423235D01*
X108644163Y-91419839D01*
X108579357Y-91380126D01*
X108575137Y-91377540D01*
X108570567Y-91375647D01*
X108570559Y-91375643D01*
X108540141Y-91363044D01*
X108528439Y-91357475D01*
X108495108Y-91339453D01*
X108418732Y-91312556D01*
X108412373Y-91310121D01*
X108342163Y-91281039D01*
X108342161Y-91281038D01*
X108337590Y-91279145D01*
X108332779Y-91277990D01*
X108332776Y-91277989D01*
X108312074Y-91273019D01*
X108300761Y-91270303D01*
X108288323Y-91266630D01*
X108257262Y-91255691D01*
X108257254Y-91255689D01*
X108252589Y-91254046D01*
X108172947Y-91239428D01*
X108166303Y-91238022D01*
X108113960Y-91225456D01*
X108092388Y-91220277D01*
X108092385Y-91220277D01*
X108087576Y-91219122D01*
X108066863Y-91217492D01*
X108049813Y-91216150D01*
X108036953Y-91214468D01*
X108004568Y-91208524D01*
X108004563Y-91208523D01*
X107999695Y-91207630D01*
X107918760Y-91205651D01*
X107911979Y-91205303D01*
X107831250Y-91198949D01*
X107826320Y-91199337D01*
X107793488Y-91201921D01*
X107780522Y-91202271D01*
X107747610Y-91201466D01*
X107747607Y-91201466D01*
X107742653Y-91201345D01*
X107662399Y-91212053D01*
X107655649Y-91212769D01*
X107621952Y-91215421D01*
X107579861Y-91218733D01*
X107579855Y-91218734D01*
X107574924Y-91219122D01*
X107570112Y-91220277D01*
X107570107Y-91220278D01*
X107538081Y-91227967D01*
X107525335Y-91230341D01*
X107487793Y-91235350D01*
X107410223Y-91258473D01*
X107403661Y-91260238D01*
X107324910Y-91279145D01*
X107320344Y-91281036D01*
X107320342Y-91281037D01*
X107289903Y-91293645D01*
X107277680Y-91297985D01*
X107241390Y-91308803D01*
X107223795Y-91317233D01*
X107168395Y-91343775D01*
X107162173Y-91346551D01*
X107091941Y-91375643D01*
X107091934Y-91375647D01*
X107087363Y-91377540D01*
X107055047Y-91397343D01*
X107043667Y-91403534D01*
X107013974Y-91417760D01*
X107013967Y-91417764D01*
X107009511Y-91419899D01*
X106999809Y-91426592D01*
X106942902Y-91465849D01*
X106937190Y-91469565D01*
X106872357Y-91509295D01*
X106872347Y-91509302D01*
X106868134Y-91511884D01*
X106846921Y-91530002D01*
X106839316Y-91536497D01*
X106829039Y-91544398D01*
X106797867Y-91565901D01*
X106743247Y-91617915D01*
X106739270Y-91621702D01*
X106734210Y-91626266D01*
X106672619Y-91678869D01*
X106669411Y-91682625D01*
X106669406Y-91682630D01*
X106603049Y-91760324D01*
X106601028Y-91762634D01*
X105262563Y-93254356D01*
X105261066Y-93256314D01*
X105184400Y-93356588D01*
X105145496Y-93407471D01*
X105023203Y-93633644D01*
X105021559Y-93638311D01*
X105021559Y-93638312D01*
X104939438Y-93871499D01*
X104939436Y-93871505D01*
X104937796Y-93876163D01*
X104936904Y-93881024D01*
X104936903Y-93881027D01*
X104892274Y-94124185D01*
X104891380Y-94129057D01*
X104890738Y-94155308D01*
X104885517Y-94368858D01*
X104885095Y-94386099D01*
X104919100Y-94640960D01*
X104992553Y-94887362D01*
X104994695Y-94891832D01*
X104994695Y-94891833D01*
X105001430Y-94905891D01*
X105103649Y-95119241D01*
X105106464Y-95123322D01*
X105106466Y-95123325D01*
X105203411Y-95263857D01*
X105225629Y-95331288D01*
X105207863Y-95400026D01*
X105155755Y-95448247D01*
X105110350Y-95460954D01*
X105072795Y-95464140D01*
X105022613Y-95468398D01*
X105022609Y-95468399D01*
X105017302Y-95468849D01*
X105012147Y-95470187D01*
X105012141Y-95470188D01*
X104834427Y-95516314D01*
X104790044Y-95527833D01*
X104785178Y-95530025D01*
X104785175Y-95530026D01*
X104580833Y-95622076D01*
X104580830Y-95622077D01*
X104575972Y-95624266D01*
X104381209Y-95755388D01*
X104377352Y-95759067D01*
X104377350Y-95759069D01*
X104344526Y-95790382D01*
X104211323Y-95917451D01*
X104208141Y-95921728D01*
X104208140Y-95921729D01*
X104200409Y-95932120D01*
X104071172Y-96105821D01*
X104068756Y-96110572D01*
X104068754Y-96110576D01*
X103989807Y-96265854D01*
X103964763Y-96315112D01*
X103895139Y-96539340D01*
X103894438Y-96544629D01*
X103864993Y-96766784D01*
X103864289Y-96772093D01*
X92448579Y-96772093D01*
X92487704Y-96654135D01*
X92501882Y-96611389D01*
X92501882Y-96611387D01*
X92504047Y-96604861D01*
X92507979Y-96566490D01*
X92511282Y-96534245D01*
X92514750Y-96500400D01*
X92514750Y-95899600D01*
X92513153Y-95884205D01*
X92504488Y-95800692D01*
X92504487Y-95800688D01*
X92503776Y-95793834D01*
X92497310Y-95774451D01*
X92450118Y-95633002D01*
X92447800Y-95626054D01*
X92354728Y-95475652D01*
X92340649Y-95461597D01*
X92234736Y-95355869D01*
X92229553Y-95350695D01*
X92225015Y-95347898D01*
X92184426Y-95290647D01*
X92181196Y-95219724D01*
X92216822Y-95158313D01*
X92225318Y-95150938D01*
X92235457Y-95142902D01*
X92349989Y-95028171D01*
X92359001Y-95016760D01*
X92444066Y-94878757D01*
X92450213Y-94865576D01*
X92501388Y-94711290D01*
X92504255Y-94697914D01*
X92513922Y-94603562D01*
X92514250Y-94597146D01*
X92514250Y-94572115D01*
X92509775Y-94556876D01*
X92508385Y-94555671D01*
X92500702Y-94554000D01*
X90066366Y-94554000D01*
X90051127Y-94558475D01*
X90049922Y-94559865D01*
X90048251Y-94567548D01*
X90048251Y-94597095D01*
X90048588Y-94603614D01*
X90058507Y-94699206D01*
X90061399Y-94712600D01*
X90112838Y-94866784D01*
X90119011Y-94879962D01*
X90204313Y-95017807D01*
X90213349Y-95029208D01*
X90328078Y-95143738D01*
X90337012Y-95150794D01*
X90378073Y-95208712D01*
X90381303Y-95279635D01*
X90345676Y-95341046D01*
X90337843Y-95347846D01*
X90331902Y-95351522D01*
X90326729Y-95356704D01*
X90326724Y-95356708D01*
X90256039Y-95427517D01*
X90193757Y-95461597D01*
X90166866Y-95464500D01*
X89729620Y-95464500D01*
X89661499Y-95444498D01*
X89615006Y-95390842D01*
X89611638Y-95382729D01*
X89578194Y-95293517D01*
X89573011Y-95222710D01*
X89578194Y-95205059D01*
X89610978Y-95117609D01*
X89614605Y-95102351D01*
X89620131Y-95051486D01*
X89620500Y-95044672D01*
X89620500Y-94672115D01*
X89616025Y-94656876D01*
X89614635Y-94655671D01*
X89606952Y-94654000D01*
X88284500Y-94654000D01*
X88216379Y-94633998D01*
X88169886Y-94580342D01*
X88158500Y-94528000D01*
X88158500Y-94127885D01*
X88666500Y-94127885D01*
X88670975Y-94143124D01*
X88672365Y-94144329D01*
X88680048Y-94146000D01*
X89602384Y-94146000D01*
X89617623Y-94141525D01*
X89618828Y-94140135D01*
X89620499Y-94132452D01*
X89620499Y-94027885D01*
X90048250Y-94027885D01*
X90052725Y-94043124D01*
X90054115Y-94044329D01*
X90061798Y-94046000D01*
X91009135Y-94046000D01*
X91024374Y-94041525D01*
X91025579Y-94040135D01*
X91027250Y-94032452D01*
X91027250Y-94027885D01*
X91535250Y-94027885D01*
X91539725Y-94043124D01*
X91541115Y-94044329D01*
X91548798Y-94046000D01*
X92496134Y-94046000D01*
X92511373Y-94041525D01*
X92512578Y-94040135D01*
X92514249Y-94032452D01*
X92514249Y-94002905D01*
X92513912Y-93996386D01*
X92503993Y-93900794D01*
X92501101Y-93887400D01*
X92449662Y-93733216D01*
X92443489Y-93720038D01*
X92358187Y-93582193D01*
X92349151Y-93570792D01*
X92234421Y-93456261D01*
X92223010Y-93447249D01*
X92085007Y-93362184D01*
X92071826Y-93356037D01*
X91917540Y-93304862D01*
X91904164Y-93301995D01*
X91809812Y-93292328D01*
X91803395Y-93292000D01*
X91553365Y-93292000D01*
X91538126Y-93296475D01*
X91536921Y-93297865D01*
X91535250Y-93305548D01*
X91535250Y-94027885D01*
X91027250Y-94027885D01*
X91027250Y-93310116D01*
X91022775Y-93294877D01*
X91021385Y-93293672D01*
X91013702Y-93292001D01*
X90759155Y-93292001D01*
X90752636Y-93292338D01*
X90657044Y-93302257D01*
X90643650Y-93305149D01*
X90489466Y-93356588D01*
X90476288Y-93362761D01*
X90338443Y-93448063D01*
X90327042Y-93457099D01*
X90212511Y-93571829D01*
X90203499Y-93583240D01*
X90118434Y-93721243D01*
X90112287Y-93734424D01*
X90061112Y-93888710D01*
X90058245Y-93902086D01*
X90048578Y-93996438D01*
X90048250Y-94002847D01*
X90048250Y-94027885D01*
X89620499Y-94027885D01*
X89620499Y-93755331D01*
X89620129Y-93748510D01*
X89614605Y-93697648D01*
X89610979Y-93682396D01*
X89565824Y-93561946D01*
X89557286Y-93546351D01*
X89480785Y-93444276D01*
X89468224Y-93431715D01*
X89366149Y-93355214D01*
X89350554Y-93346676D01*
X89230106Y-93301522D01*
X89214851Y-93297895D01*
X89163986Y-93292369D01*
X89157172Y-93292000D01*
X88684615Y-93292000D01*
X88669376Y-93296475D01*
X88668171Y-93297865D01*
X88666500Y-93305548D01*
X88666500Y-94127885D01*
X88158500Y-94127885D01*
X88158500Y-93310116D01*
X88154025Y-93294877D01*
X88152635Y-93293672D01*
X88144952Y-93292001D01*
X87667831Y-93292001D01*
X87661010Y-93292371D01*
X87610148Y-93297895D01*
X87594896Y-93301521D01*
X87474446Y-93346676D01*
X87458852Y-93355214D01*
X87388482Y-93407953D01*
X87321976Y-93432801D01*
X87252593Y-93417748D01*
X87237352Y-93407953D01*
X87207392Y-93385499D01*
X87159205Y-93349385D01*
X87022816Y-93298255D01*
X86960634Y-93291500D01*
X85464366Y-93291500D01*
X85402184Y-93298255D01*
X85265795Y-93349385D01*
X85149239Y-93436739D01*
X85061885Y-93553295D01*
X85058733Y-93561704D01*
X85058732Y-93561705D01*
X85013362Y-93682729D01*
X84970721Y-93739494D01*
X84904159Y-93764194D01*
X84895380Y-93764500D01*
X84604293Y-93764500D01*
X84536172Y-93744498D01*
X84497149Y-93704803D01*
X84492722Y-93697648D01*
X84417228Y-93575652D01*
X84292053Y-93450695D01*
X84281640Y-93444276D01*
X84147718Y-93361725D01*
X84147716Y-93361724D01*
X84141488Y-93357885D01*
X84061745Y-93331436D01*
X83980139Y-93304368D01*
X83980137Y-93304368D01*
X83973611Y-93302203D01*
X83966775Y-93301503D01*
X83966772Y-93301502D01*
X83923719Y-93297091D01*
X83869150Y-93291500D01*
X82818350Y-93291500D01*
X82815104Y-93291837D01*
X82815100Y-93291837D01*
X82719442Y-93301762D01*
X82719438Y-93301763D01*
X82712584Y-93302474D01*
X82706048Y-93304655D01*
X82706046Y-93304655D01*
X82588595Y-93343840D01*
X82544804Y-93358450D01*
X82394402Y-93451522D01*
X82269445Y-93576697D01*
X82265605Y-93582927D01*
X82265604Y-93582928D01*
X82199799Y-93689684D01*
X82176635Y-93727262D01*
X82164850Y-93762793D01*
X82131894Y-93862154D01*
X82120953Y-93895139D01*
X82120253Y-93901975D01*
X82120252Y-93901978D01*
X82116930Y-93934407D01*
X82110250Y-93999600D01*
X82110250Y-94600400D01*
X82110587Y-94603646D01*
X82110587Y-94603650D01*
X82120502Y-94699206D01*
X82121224Y-94706166D01*
X82177200Y-94873946D01*
X82270272Y-95024348D01*
X82395447Y-95149305D01*
X82399985Y-95152102D01*
X82440574Y-95209353D01*
X82443804Y-95280276D01*
X82408178Y-95341687D01*
X82399682Y-95349062D01*
X82389543Y-95357098D01*
X82275011Y-95471829D01*
X82265999Y-95483240D01*
X82180934Y-95621243D01*
X82174787Y-95634424D01*
X82123612Y-95788710D01*
X82120745Y-95802086D01*
X82111078Y-95896438D01*
X82110750Y-95902855D01*
X82110750Y-95927885D01*
X82115225Y-95943124D01*
X82116615Y-95944329D01*
X82124298Y-95946000D01*
X83471750Y-95946000D01*
X83539871Y-95966002D01*
X83586364Y-96019658D01*
X83597750Y-96072000D01*
X83597750Y-97189884D01*
X83602225Y-97205123D01*
X83603615Y-97206328D01*
X83611298Y-97207999D01*
X83865845Y-97207999D01*
X83872364Y-97207662D01*
X83967956Y-97197743D01*
X83981350Y-97194851D01*
X84129874Y-97145300D01*
X84200824Y-97142716D01*
X84261908Y-97178900D01*
X84293732Y-97242364D01*
X84295750Y-97264824D01*
X84295750Y-97552230D01*
X84295220Y-97563464D01*
X84293542Y-97570969D01*
X84295232Y-97624737D01*
X84295688Y-97639262D01*
X84295750Y-97643219D01*
X84295750Y-97671233D01*
X84296246Y-97675158D01*
X84296246Y-97675159D01*
X84296258Y-97675254D01*
X84297191Y-97687099D01*
X84298585Y-97731455D01*
X84300797Y-97739067D01*
X84304263Y-97750998D01*
X84308273Y-97770362D01*
X84310823Y-97790549D01*
X84313739Y-97797913D01*
X84313740Y-97797918D01*
X84327157Y-97831806D01*
X84331002Y-97843035D01*
X84343381Y-97885643D01*
X84347419Y-97892470D01*
X84347420Y-97892473D01*
X84353738Y-97903156D01*
X84362438Y-97920914D01*
X84367011Y-97932465D01*
X84367015Y-97932471D01*
X84369931Y-97939838D01*
X84394007Y-97972975D01*
X84396014Y-97975738D01*
X84402531Y-97985660D01*
X84421076Y-98017018D01*
X84421079Y-98017022D01*
X84425116Y-98023848D01*
X84439500Y-98038232D01*
X84452341Y-98053266D01*
X84464308Y-98069737D01*
X84486247Y-98087886D01*
X84498505Y-98098027D01*
X84507285Y-98106017D01*
X84778210Y-98376942D01*
X84812236Y-98439254D01*
X84814425Y-98452867D01*
X84830602Y-98606779D01*
X84831458Y-98614928D01*
X84890473Y-98796556D01*
X84893776Y-98802278D01*
X84893777Y-98802279D01*
X84907049Y-98825267D01*
X84985960Y-98961944D01*
X84990378Y-98966851D01*
X84990379Y-98966852D01*
X85089500Y-99076937D01*
X85113747Y-99103866D01*
X85119089Y-99107747D01*
X85119091Y-99107749D01*
X85140424Y-99123248D01*
X85203084Y-99168773D01*
X85213119Y-99176064D01*
X85256473Y-99232286D01*
X85262548Y-99303022D01*
X85229417Y-99365814D01*
X85167597Y-99400726D01*
X85139058Y-99404000D01*
X84776937Y-99404000D01*
X84708816Y-99383998D01*
X84675708Y-99348541D01*
X84673820Y-99349913D01*
X84647733Y-99314007D01*
X84641216Y-99304085D01*
X84622672Y-99272728D01*
X84622670Y-99272725D01*
X84618634Y-99265901D01*
X84604247Y-99251514D01*
X84591406Y-99236480D01*
X84584102Y-99226427D01*
X84579442Y-99220013D01*
X84545250Y-99191727D01*
X84536471Y-99183738D01*
X84178000Y-98825267D01*
X84170424Y-98816941D01*
X84166303Y-98810447D01*
X84116484Y-98763664D01*
X84113643Y-98760910D01*
X84093844Y-98741111D01*
X84090719Y-98738687D01*
X84090710Y-98738679D01*
X84090624Y-98738613D01*
X84081599Y-98730905D01*
X84055035Y-98705960D01*
X84049256Y-98700533D01*
X84031419Y-98690727D01*
X84014903Y-98679877D01*
X83998817Y-98667400D01*
X83958084Y-98649774D01*
X83947436Y-98644557D01*
X83935808Y-98638165D01*
X83908553Y-98623181D01*
X83900878Y-98621210D01*
X83900872Y-98621208D01*
X83888839Y-98618119D01*
X83870137Y-98611716D01*
X83851458Y-98603633D01*
X83817622Y-98598274D01*
X83807623Y-98596690D01*
X83796010Y-98594285D01*
X83753032Y-98583250D01*
X83732685Y-98583250D01*
X83712974Y-98581699D01*
X83700700Y-98579755D01*
X83692871Y-98578515D01*
X83684979Y-98579261D01*
X83648694Y-98582691D01*
X83636836Y-98583250D01*
X83256399Y-98583250D01*
X83188278Y-98563248D01*
X83171092Y-98548641D01*
X83170580Y-98549210D01*
X83165668Y-98544787D01*
X83161253Y-98539884D01*
X83032613Y-98446421D01*
X83012094Y-98431513D01*
X83012093Y-98431512D01*
X83006752Y-98427632D01*
X83000724Y-98424948D01*
X83000722Y-98424947D01*
X82838319Y-98352641D01*
X82838318Y-98352641D01*
X82832288Y-98349956D01*
X82738887Y-98330103D01*
X82651944Y-98311622D01*
X82651939Y-98311622D01*
X82645487Y-98310250D01*
X82454513Y-98310250D01*
X82448061Y-98311622D01*
X82448056Y-98311622D01*
X82361113Y-98330103D01*
X82267712Y-98349956D01*
X82261682Y-98352641D01*
X82261681Y-98352641D01*
X82099278Y-98424947D01*
X82099276Y-98424948D01*
X82093248Y-98427632D01*
X82087907Y-98431512D01*
X82087906Y-98431513D01*
X82077252Y-98439254D01*
X81938747Y-98539884D01*
X81934326Y-98544794D01*
X81934325Y-98544795D01*
X81860307Y-98627001D01*
X81810960Y-98681806D01*
X81778124Y-98738679D01*
X81728133Y-98825267D01*
X81715473Y-98847194D01*
X81656458Y-99028822D01*
X81655768Y-99035383D01*
X81655768Y-99035385D01*
X81645930Y-99128988D01*
X81636496Y-99218750D01*
X81637186Y-99225315D01*
X81653506Y-99380587D01*
X81656458Y-99408678D01*
X81658498Y-99414956D01*
X81693667Y-99523195D01*
X81695695Y-99594162D01*
X81659032Y-99654960D01*
X81595320Y-99686286D01*
X81524786Y-99678193D01*
X81484739Y-99651226D01*
X79940725Y-98107212D01*
X79934871Y-98100946D01*
X79902380Y-98063701D01*
X79897386Y-98057976D01*
X79845850Y-98021756D01*
X79840554Y-98017823D01*
X79796965Y-97983644D01*
X79796962Y-97983642D01*
X79790988Y-97978958D01*
X79784064Y-97975832D01*
X79781029Y-97973994D01*
X79768330Y-97966750D01*
X79765182Y-97965062D01*
X79758967Y-97960694D01*
X79751891Y-97957935D01*
X79751887Y-97957933D01*
X79745456Y-97955426D01*
X79689254Y-97912046D01*
X79684081Y-97904336D01*
X79672514Y-97885643D01*
X79654728Y-97856902D01*
X79529553Y-97731945D01*
X79525015Y-97729148D01*
X79484426Y-97671897D01*
X79481196Y-97600974D01*
X79516822Y-97539563D01*
X79525318Y-97532188D01*
X79535457Y-97524152D01*
X79649989Y-97409421D01*
X79659001Y-97398010D01*
X79744066Y-97260007D01*
X79750213Y-97246826D01*
X79801388Y-97092540D01*
X79804255Y-97079164D01*
X79813922Y-96984812D01*
X79814250Y-96978396D01*
X79814250Y-96953365D01*
X79809775Y-96938126D01*
X79808385Y-96936921D01*
X79800702Y-96935250D01*
X77366366Y-96935250D01*
X77351127Y-96939725D01*
X77349922Y-96941115D01*
X77348251Y-96948798D01*
X77348251Y-96978345D01*
X77348588Y-96984864D01*
X77358507Y-97080456D01*
X77361399Y-97093850D01*
X77412838Y-97248034D01*
X77419011Y-97261212D01*
X77504313Y-97399057D01*
X77513349Y-97410458D01*
X77628078Y-97524988D01*
X77637012Y-97532044D01*
X77678073Y-97589962D01*
X77681303Y-97660885D01*
X77645676Y-97722296D01*
X77637843Y-97729096D01*
X77631902Y-97732772D01*
X77626729Y-97737954D01*
X77620067Y-97744628D01*
X77506945Y-97857947D01*
X77503105Y-97864177D01*
X77503104Y-97864178D01*
X77419312Y-98000114D01*
X77414135Y-98008512D01*
X77402367Y-98043991D01*
X77377639Y-98118546D01*
X77358453Y-98176389D01*
X77357753Y-98183225D01*
X77357752Y-98183228D01*
X77355357Y-98206602D01*
X77347750Y-98280850D01*
X77347750Y-98881650D01*
X77348087Y-98884896D01*
X77348087Y-98884900D01*
X77355995Y-98961111D01*
X77358724Y-98987416D01*
X77360905Y-98993952D01*
X77360905Y-98993954D01*
X77374501Y-99034706D01*
X77414700Y-99155196D01*
X77507772Y-99305598D01*
X77632947Y-99430555D01*
X77639177Y-99434395D01*
X77639178Y-99434396D01*
X77745799Y-99500118D01*
X77783512Y-99523365D01*
X77855282Y-99547170D01*
X77944861Y-99576882D01*
X77944863Y-99576882D01*
X77951389Y-99579047D01*
X77958225Y-99579747D01*
X77958228Y-99579748D01*
X78001281Y-99584159D01*
X78055850Y-99589750D01*
X79106650Y-99589750D01*
X79109896Y-99589413D01*
X79109900Y-99589413D01*
X79139833Y-99586307D01*
X79212416Y-99578776D01*
X79305591Y-99547690D01*
X79376538Y-99545104D01*
X79434561Y-99578118D01*
X81220348Y-101363905D01*
X81254374Y-101426217D01*
X81249309Y-101497032D01*
X81206762Y-101553868D01*
X81140242Y-101578679D01*
X81131253Y-101579000D01*
X80814366Y-101579000D01*
X80752184Y-101585755D01*
X80615795Y-101636885D01*
X80499239Y-101724239D01*
X80411885Y-101840795D01*
X80360755Y-101977184D01*
X80354000Y-102039366D01*
X80354000Y-102685634D01*
X80354369Y-102689031D01*
X80360755Y-102747816D01*
X80358326Y-102748080D01*
X80358326Y-102776920D01*
X80360755Y-102777184D01*
X80354000Y-102839366D01*
X80354000Y-103485634D01*
X80354369Y-103489031D01*
X80360755Y-103547816D01*
X80358326Y-103548080D01*
X80358326Y-103576920D01*
X80360755Y-103577184D01*
X80354000Y-103639366D01*
X80354000Y-104285634D01*
X80354369Y-104289031D01*
X80360755Y-104347816D01*
X80358326Y-104348080D01*
X80358326Y-104376920D01*
X80360755Y-104377184D01*
X80354000Y-104439366D01*
X80354000Y-105085634D01*
X80354369Y-105089031D01*
X80360755Y-105147816D01*
X80358326Y-105148080D01*
X80358326Y-105176920D01*
X80360755Y-105177184D01*
X80357899Y-105203479D01*
X80354000Y-105239366D01*
X80354000Y-105344827D01*
X80333998Y-105412948D01*
X80280342Y-105459441D01*
X80210068Y-105469545D01*
X80145488Y-105440051D01*
X80138904Y-105433922D01*
X80090368Y-105385385D01*
X79880245Y-105175262D01*
X79872675Y-105166943D01*
X79868553Y-105160447D01*
X79855384Y-105148080D01*
X79818735Y-105113665D01*
X79815893Y-105110910D01*
X79796094Y-105091111D01*
X79792969Y-105088687D01*
X79792960Y-105088679D01*
X79792874Y-105088613D01*
X79783849Y-105080905D01*
X79757285Y-105055960D01*
X79751506Y-105050533D01*
X79744362Y-105046605D01*
X79738441Y-105043350D01*
X79733669Y-105040727D01*
X79717153Y-105029877D01*
X79701067Y-105017400D01*
X79660334Y-104999774D01*
X79649686Y-104994557D01*
X79618157Y-104977224D01*
X79610803Y-104973181D01*
X79603128Y-104971210D01*
X79603122Y-104971208D01*
X79591089Y-104968119D01*
X79572387Y-104961716D01*
X79553708Y-104953633D01*
X79519872Y-104948274D01*
X79509873Y-104946690D01*
X79498260Y-104944285D01*
X79455282Y-104933250D01*
X79434935Y-104933250D01*
X79415224Y-104931699D01*
X79402950Y-104929755D01*
X79395121Y-104928515D01*
X79387229Y-104929261D01*
X79350944Y-104932691D01*
X79339086Y-104933250D01*
X79030621Y-104933250D01*
X78962500Y-104913248D01*
X78916007Y-104859592D01*
X78911098Y-104847127D01*
X78887620Y-104776757D01*
X78887619Y-104776755D01*
X78885300Y-104769804D01*
X78792228Y-104619402D01*
X78667053Y-104494445D01*
X78597888Y-104451811D01*
X78522718Y-104405475D01*
X78522716Y-104405474D01*
X78516488Y-104401635D01*
X78432712Y-104373848D01*
X78355139Y-104348118D01*
X78355137Y-104348118D01*
X78348611Y-104345953D01*
X78341775Y-104345253D01*
X78341772Y-104345252D01*
X78298719Y-104340841D01*
X78244150Y-104335250D01*
X77643350Y-104335250D01*
X77640104Y-104335587D01*
X77640100Y-104335587D01*
X77544442Y-104345512D01*
X77544438Y-104345513D01*
X77537584Y-104346224D01*
X77531048Y-104348405D01*
X77531046Y-104348405D01*
X77514678Y-104353866D01*
X77369804Y-104402200D01*
X77219402Y-104495272D01*
X77094445Y-104620447D01*
X77091648Y-104624985D01*
X77034397Y-104665574D01*
X76963474Y-104668804D01*
X76902063Y-104633178D01*
X76894688Y-104624682D01*
X76886652Y-104614543D01*
X76771921Y-104500011D01*
X76760510Y-104490999D01*
X76622507Y-104405934D01*
X76609326Y-104399787D01*
X76455040Y-104348612D01*
X76441664Y-104345745D01*
X76347312Y-104336078D01*
X76340895Y-104335750D01*
X76315865Y-104335750D01*
X76300626Y-104340225D01*
X76299421Y-104341615D01*
X76297750Y-104349298D01*
X76297750Y-106783634D01*
X76302225Y-106798873D01*
X76303615Y-106800078D01*
X76311298Y-106801749D01*
X76340845Y-106801749D01*
X76347364Y-106801412D01*
X76442956Y-106791493D01*
X76456350Y-106788601D01*
X76610534Y-106737162D01*
X76623712Y-106730989D01*
X76761557Y-106645687D01*
X76772958Y-106636651D01*
X76887488Y-106521922D01*
X76894544Y-106512988D01*
X76952462Y-106471927D01*
X77023385Y-106468697D01*
X77084796Y-106504324D01*
X77091596Y-106512157D01*
X77095272Y-106518098D01*
X77220447Y-106643055D01*
X77226677Y-106646895D01*
X77226678Y-106646896D01*
X77364038Y-106731566D01*
X77371012Y-106735865D01*
X77431681Y-106755988D01*
X77532361Y-106789382D01*
X77532363Y-106789382D01*
X77538889Y-106791547D01*
X77545725Y-106792247D01*
X77545728Y-106792248D01*
X77588781Y-106796659D01*
X77643350Y-106802250D01*
X78244150Y-106802250D01*
X78247396Y-106801913D01*
X78247400Y-106801913D01*
X78343058Y-106791988D01*
X78343062Y-106791987D01*
X78349916Y-106791276D01*
X78356452Y-106789095D01*
X78356454Y-106789095D01*
X78488556Y-106745022D01*
X78517696Y-106735300D01*
X78668098Y-106642228D01*
X78793055Y-106517053D01*
X78842065Y-106437544D01*
X78882025Y-106372718D01*
X78882026Y-106372716D01*
X78885865Y-106366488D01*
X78911042Y-106290582D01*
X78951473Y-106232222D01*
X79017037Y-106204986D01*
X79030635Y-106204250D01*
X79059577Y-106204250D01*
X79127698Y-106224252D01*
X79148673Y-106241155D01*
X79663505Y-106755988D01*
X79671075Y-106764307D01*
X79675197Y-106770803D01*
X79680975Y-106776229D01*
X79680976Y-106776230D01*
X79725015Y-106817585D01*
X79727857Y-106820340D01*
X79747656Y-106840139D01*
X79750781Y-106842563D01*
X79750790Y-106842571D01*
X79750876Y-106842637D01*
X79759901Y-106850345D01*
X79792244Y-106880717D01*
X79799188Y-106884535D01*
X79799190Y-106884536D01*
X79810079Y-106890522D01*
X79826597Y-106901373D01*
X79842683Y-106913850D01*
X79883416Y-106931476D01*
X79894064Y-106936693D01*
X79932947Y-106958069D01*
X79940622Y-106960040D01*
X79940628Y-106960042D01*
X79952661Y-106963131D01*
X79971363Y-106969534D01*
X79990042Y-106977617D01*
X80023878Y-106982976D01*
X80033877Y-106984560D01*
X80045490Y-106986965D01*
X80088468Y-106998000D01*
X80108815Y-106998000D01*
X80128527Y-106999551D01*
X80148629Y-107002735D01*
X80156521Y-107001989D01*
X80192806Y-106998559D01*
X80204664Y-106998000D01*
X80453580Y-106998000D01*
X80521701Y-107018002D01*
X80529139Y-107023170D01*
X80580515Y-107061674D01*
X80623030Y-107118534D01*
X80628055Y-107189352D01*
X80593996Y-107251645D01*
X80580516Y-107263325D01*
X80533586Y-107298498D01*
X80529145Y-107301826D01*
X80462639Y-107326674D01*
X80453580Y-107327000D01*
X70971672Y-107327000D01*
X70903551Y-107306998D01*
X70882577Y-107290095D01*
X69683328Y-106090845D01*
X75035751Y-106090845D01*
X75036088Y-106097364D01*
X75046007Y-106192956D01*
X75048899Y-106206350D01*
X75100338Y-106360534D01*
X75106511Y-106373712D01*
X75191813Y-106511557D01*
X75200849Y-106522958D01*
X75315579Y-106637489D01*
X75326990Y-106646501D01*
X75464993Y-106731566D01*
X75478174Y-106737713D01*
X75632460Y-106788888D01*
X75645836Y-106791755D01*
X75740188Y-106801422D01*
X75746604Y-106801750D01*
X75771635Y-106801750D01*
X75786874Y-106797275D01*
X75788079Y-106795885D01*
X75789750Y-106788202D01*
X75789750Y-105840865D01*
X75785275Y-105825626D01*
X75783885Y-105824421D01*
X75776202Y-105822750D01*
X75053866Y-105822750D01*
X75038627Y-105827225D01*
X75037422Y-105828615D01*
X75035751Y-105836298D01*
X75035751Y-106090845D01*
X69683328Y-106090845D01*
X68889118Y-105296635D01*
X75035750Y-105296635D01*
X75040225Y-105311874D01*
X75041615Y-105313079D01*
X75049298Y-105314750D01*
X75771635Y-105314750D01*
X75786874Y-105310275D01*
X75788079Y-105308885D01*
X75789750Y-105301202D01*
X75789750Y-104353866D01*
X75785275Y-104338627D01*
X75783885Y-104337422D01*
X75776202Y-104335751D01*
X75746655Y-104335751D01*
X75740136Y-104336088D01*
X75644544Y-104346007D01*
X75631150Y-104348899D01*
X75476966Y-104400338D01*
X75463788Y-104406511D01*
X75325943Y-104491813D01*
X75314542Y-104500849D01*
X75200011Y-104615579D01*
X75190999Y-104626990D01*
X75105934Y-104764993D01*
X75099787Y-104778174D01*
X75048612Y-104932460D01*
X75045745Y-104945836D01*
X75036078Y-105040188D01*
X75035750Y-105046605D01*
X75035750Y-105296635D01*
X68889118Y-105296635D01*
X67347405Y-103754922D01*
X67313379Y-103692610D01*
X67310500Y-103665827D01*
X67310500Y-101121672D01*
X67330502Y-101053551D01*
X67347405Y-101032577D01*
X68243227Y-100136755D01*
X68251553Y-100129178D01*
X68258053Y-100125053D01*
X68304851Y-100075218D01*
X68307605Y-100072377D01*
X68327388Y-100052594D01*
X68329879Y-100049383D01*
X68337588Y-100040356D01*
X68367967Y-100008006D01*
X68370146Y-100010052D01*
X68415219Y-99975276D01*
X68442328Y-99968715D01*
X68442323Y-99968692D01*
X68443244Y-99968493D01*
X68447961Y-99967351D01*
X68455916Y-99966526D01*
X68462452Y-99964345D01*
X68462454Y-99964345D01*
X68594556Y-99920272D01*
X68623696Y-99910550D01*
X68774098Y-99817478D01*
X68779553Y-99812014D01*
X68893884Y-99697483D01*
X68899055Y-99692303D01*
X68902896Y-99686072D01*
X68988025Y-99547968D01*
X68988026Y-99547966D01*
X68991865Y-99541738D01*
X69033484Y-99416260D01*
X69045382Y-99380389D01*
X69045382Y-99380387D01*
X69047547Y-99373861D01*
X69048372Y-99365814D01*
X69055179Y-99299370D01*
X69058250Y-99269400D01*
X69058250Y-98643600D01*
X69056528Y-98627001D01*
X69047988Y-98544692D01*
X69047987Y-98544688D01*
X69047276Y-98537834D01*
X69009632Y-98425000D01*
X68993618Y-98377002D01*
X68991300Y-98370054D01*
X68898228Y-98219652D01*
X68811641Y-98133216D01*
X68777562Y-98070934D01*
X68782565Y-98000114D01*
X68811486Y-97955025D01*
X68893884Y-97872483D01*
X68899055Y-97867303D01*
X68941825Y-97797918D01*
X68988025Y-97722968D01*
X68988026Y-97722966D01*
X68991865Y-97716738D01*
X69033149Y-97592271D01*
X69045382Y-97555389D01*
X69045382Y-97555387D01*
X69047547Y-97548861D01*
X69048780Y-97536833D01*
X69054864Y-97477450D01*
X69058250Y-97444400D01*
X69058250Y-96837500D01*
X72111496Y-96837500D01*
X72112186Y-96844065D01*
X72129830Y-97011934D01*
X72131458Y-97027428D01*
X72190473Y-97209056D01*
X72193776Y-97214778D01*
X72193777Y-97214779D01*
X72212977Y-97248034D01*
X72285960Y-97374444D01*
X72290378Y-97379351D01*
X72290379Y-97379352D01*
X72351828Y-97447598D01*
X72413747Y-97516366D01*
X72568248Y-97628618D01*
X72574276Y-97631302D01*
X72574278Y-97631303D01*
X72736681Y-97703609D01*
X72742712Y-97706294D01*
X72821157Y-97722968D01*
X72923056Y-97744628D01*
X72923061Y-97744628D01*
X72929513Y-97746000D01*
X73120487Y-97746000D01*
X73126939Y-97744628D01*
X73126944Y-97744628D01*
X73228843Y-97722968D01*
X73307288Y-97706294D01*
X73313319Y-97703609D01*
X73475722Y-97631303D01*
X73475724Y-97631302D01*
X73481752Y-97628618D01*
X73525209Y-97597045D01*
X73628708Y-97521848D01*
X73636253Y-97516366D01*
X73640668Y-97511463D01*
X73645580Y-97507040D01*
X73647221Y-97508862D01*
X73698210Y-97477450D01*
X73731399Y-97473000D01*
X74323077Y-97473000D01*
X74391198Y-97493002D01*
X74412094Y-97509826D01*
X74424137Y-97521848D01*
X74441884Y-97539563D01*
X74444358Y-97542033D01*
X74478438Y-97604315D01*
X74473436Y-97675135D01*
X74444514Y-97720225D01*
X74382158Y-97782690D01*
X74356945Y-97807947D01*
X74353105Y-97814177D01*
X74353104Y-97814178D01*
X74280191Y-97932465D01*
X74264135Y-97958512D01*
X74255028Y-97985969D01*
X74214814Y-98107212D01*
X74208453Y-98126389D01*
X74207753Y-98133225D01*
X74207752Y-98133228D01*
X74203999Y-98169861D01*
X74197750Y-98230850D01*
X74197750Y-98856650D01*
X74208724Y-98962416D01*
X74210905Y-98968952D01*
X74210905Y-98968954D01*
X74246931Y-99076937D01*
X74264700Y-99130196D01*
X74357772Y-99280598D01*
X74482947Y-99405555D01*
X74489177Y-99409395D01*
X74489178Y-99409396D01*
X74626340Y-99493944D01*
X74633512Y-99498365D01*
X74697308Y-99519525D01*
X74794861Y-99551882D01*
X74794863Y-99551882D01*
X74801389Y-99554047D01*
X74808225Y-99554747D01*
X74808228Y-99554748D01*
X74851281Y-99559159D01*
X74905850Y-99564750D01*
X75906650Y-99564750D01*
X75909896Y-99564413D01*
X75909900Y-99564413D01*
X76005558Y-99554488D01*
X76005562Y-99554487D01*
X76012416Y-99553776D01*
X76018952Y-99551595D01*
X76018954Y-99551595D01*
X76151056Y-99507522D01*
X76180196Y-99497800D01*
X76330598Y-99404728D01*
X76455555Y-99279553D01*
X76459842Y-99272598D01*
X76544525Y-99135218D01*
X76544526Y-99135216D01*
X76548365Y-99128988D01*
X76604047Y-98961111D01*
X76614750Y-98856650D01*
X76614750Y-98230850D01*
X76614343Y-98226928D01*
X76604488Y-98131942D01*
X76604487Y-98131938D01*
X76603776Y-98125084D01*
X76597814Y-98107212D01*
X76550118Y-97964252D01*
X76547800Y-97957304D01*
X76454728Y-97806902D01*
X76368141Y-97720466D01*
X76334062Y-97658184D01*
X76339065Y-97587364D01*
X76367986Y-97542275D01*
X76450384Y-97459733D01*
X76455555Y-97454553D01*
X76461095Y-97445565D01*
X76544525Y-97310218D01*
X76544526Y-97310216D01*
X76548365Y-97303988D01*
X76596093Y-97160092D01*
X76601882Y-97142639D01*
X76601882Y-97142637D01*
X76604047Y-97136111D01*
X76606031Y-97116753D01*
X76612247Y-97056081D01*
X76614750Y-97031650D01*
X76614750Y-96497095D01*
X82110751Y-96497095D01*
X82111088Y-96503614D01*
X82121007Y-96599206D01*
X82123899Y-96612600D01*
X82175338Y-96766784D01*
X82181511Y-96779962D01*
X82266813Y-96917807D01*
X82275849Y-96929208D01*
X82390579Y-97043739D01*
X82401990Y-97052751D01*
X82539993Y-97137816D01*
X82553174Y-97143963D01*
X82707460Y-97195138D01*
X82720836Y-97198005D01*
X82815188Y-97207672D01*
X82821604Y-97208000D01*
X83071635Y-97208000D01*
X83086874Y-97203525D01*
X83088079Y-97202135D01*
X83089750Y-97194452D01*
X83089750Y-96472115D01*
X83085275Y-96456876D01*
X83083885Y-96455671D01*
X83076202Y-96454000D01*
X82128866Y-96454000D01*
X82113627Y-96458475D01*
X82112422Y-96459865D01*
X82110751Y-96467548D01*
X82110751Y-96497095D01*
X76614750Y-96497095D01*
X76614750Y-96409135D01*
X77348250Y-96409135D01*
X77352725Y-96424374D01*
X77354115Y-96425579D01*
X77361798Y-96427250D01*
X78309135Y-96427250D01*
X78324374Y-96422775D01*
X78325579Y-96421385D01*
X78327250Y-96413702D01*
X78327250Y-96409135D01*
X78835250Y-96409135D01*
X78839725Y-96424374D01*
X78841115Y-96425579D01*
X78848798Y-96427250D01*
X79796134Y-96427250D01*
X79811373Y-96422775D01*
X79812578Y-96421385D01*
X79814249Y-96413702D01*
X79814249Y-96384155D01*
X79813912Y-96377636D01*
X79803993Y-96282044D01*
X79801101Y-96268650D01*
X79749662Y-96114466D01*
X79743489Y-96101288D01*
X79658187Y-95963443D01*
X79649151Y-95952042D01*
X79534421Y-95837511D01*
X79523010Y-95828499D01*
X79385007Y-95743434D01*
X79371826Y-95737287D01*
X79217540Y-95686112D01*
X79204164Y-95683245D01*
X79109812Y-95673578D01*
X79103395Y-95673250D01*
X78853365Y-95673250D01*
X78838126Y-95677725D01*
X78836921Y-95679115D01*
X78835250Y-95686798D01*
X78835250Y-96409135D01*
X78327250Y-96409135D01*
X78327250Y-95691366D01*
X78322775Y-95676127D01*
X78321385Y-95674922D01*
X78313702Y-95673251D01*
X78059155Y-95673251D01*
X78052636Y-95673588D01*
X77957044Y-95683507D01*
X77943650Y-95686399D01*
X77789466Y-95737838D01*
X77776288Y-95744011D01*
X77638443Y-95829313D01*
X77627042Y-95838349D01*
X77512511Y-95953079D01*
X77503499Y-95964490D01*
X77418434Y-96102493D01*
X77412287Y-96115674D01*
X77361112Y-96269960D01*
X77358245Y-96283336D01*
X77348578Y-96377688D01*
X77348250Y-96384105D01*
X77348250Y-96409135D01*
X76614750Y-96409135D01*
X76614750Y-96405850D01*
X76614413Y-96402600D01*
X76604488Y-96306942D01*
X76604487Y-96306938D01*
X76603776Y-96300084D01*
X76598189Y-96283336D01*
X76550118Y-96139252D01*
X76547800Y-96132304D01*
X76454728Y-95981902D01*
X76329553Y-95856945D01*
X76311969Y-95846106D01*
X76185218Y-95767975D01*
X76185216Y-95767974D01*
X76178988Y-95764135D01*
X76052741Y-95722261D01*
X76017639Y-95710618D01*
X76017637Y-95710618D01*
X76011111Y-95708453D01*
X76004275Y-95707753D01*
X76004272Y-95707752D01*
X75961219Y-95703341D01*
X75906650Y-95697750D01*
X74905850Y-95697750D01*
X74902604Y-95698087D01*
X74902600Y-95698087D01*
X74806942Y-95708012D01*
X74806938Y-95708013D01*
X74800084Y-95708724D01*
X74793548Y-95710905D01*
X74793546Y-95710905D01*
X74661444Y-95754978D01*
X74632304Y-95764700D01*
X74481902Y-95857772D01*
X74356945Y-95982947D01*
X74353105Y-95989177D01*
X74353104Y-95989178D01*
X74270339Y-96123448D01*
X74264135Y-96133512D01*
X74263597Y-96133180D01*
X74220142Y-96182534D01*
X74152863Y-96202000D01*
X73731399Y-96202000D01*
X73663278Y-96181998D01*
X73646092Y-96167391D01*
X73645580Y-96167960D01*
X73640668Y-96163537D01*
X73636253Y-96158634D01*
X73584938Y-96121351D01*
X73487094Y-96050263D01*
X73487093Y-96050262D01*
X73481752Y-96046382D01*
X73475724Y-96043698D01*
X73475722Y-96043697D01*
X73313319Y-95971391D01*
X73313318Y-95971391D01*
X73307288Y-95968706D01*
X73213887Y-95948853D01*
X73126944Y-95930372D01*
X73126939Y-95930372D01*
X73120487Y-95929000D01*
X72929513Y-95929000D01*
X72923061Y-95930372D01*
X72923056Y-95930372D01*
X72836113Y-95948853D01*
X72742712Y-95968706D01*
X72736682Y-95971391D01*
X72736681Y-95971391D01*
X72574278Y-96043697D01*
X72574276Y-96043698D01*
X72568248Y-96046382D01*
X72562907Y-96050262D01*
X72562906Y-96050263D01*
X72521169Y-96080587D01*
X72413747Y-96158634D01*
X72285960Y-96300556D01*
X72249426Y-96363835D01*
X72203301Y-96443726D01*
X72190473Y-96465944D01*
X72131458Y-96647572D01*
X72130768Y-96654133D01*
X72130768Y-96654135D01*
X72122184Y-96735806D01*
X72111496Y-96837500D01*
X69058250Y-96837500D01*
X69058250Y-96818600D01*
X69057913Y-96815350D01*
X69047988Y-96719692D01*
X69047987Y-96719688D01*
X69047276Y-96712834D01*
X69036343Y-96680062D01*
X68993618Y-96552002D01*
X68991300Y-96545054D01*
X68898228Y-96394652D01*
X68773053Y-96269695D01*
X68692633Y-96220123D01*
X68628718Y-96180725D01*
X68628716Y-96180724D01*
X68622488Y-96176885D01*
X68511578Y-96140098D01*
X68461139Y-96123368D01*
X68461137Y-96123368D01*
X68454611Y-96121203D01*
X68447775Y-96120503D01*
X68447772Y-96120502D01*
X68400648Y-96115674D01*
X68350150Y-96110500D01*
X67741489Y-96110500D01*
X67673368Y-96090498D01*
X67652394Y-96073595D01*
X67098155Y-95519356D01*
X67064129Y-95457044D01*
X67061250Y-95430261D01*
X67061250Y-95286500D01*
X67081252Y-95218379D01*
X67134908Y-95171886D01*
X67187250Y-95160500D01*
X67550884Y-95160500D01*
X67613066Y-95153745D01*
X67620466Y-95150971D01*
X67624692Y-95149966D01*
X67682989Y-95149966D01*
X67700396Y-95154105D01*
X67751264Y-95159631D01*
X67758078Y-95160000D01*
X67784635Y-95160000D01*
X67799874Y-95155525D01*
X67801079Y-95154135D01*
X67802750Y-95146452D01*
X67802750Y-95141884D01*
X68302750Y-95141884D01*
X68307225Y-95157123D01*
X68308615Y-95158328D01*
X68316298Y-95159999D01*
X68347419Y-95159999D01*
X68354240Y-95159629D01*
X68405102Y-95154105D01*
X68420354Y-95150479D01*
X68540804Y-95105324D01*
X68556399Y-95096786D01*
X68658474Y-95020285D01*
X68671035Y-95007724D01*
X68747536Y-94905649D01*
X68756074Y-94890054D01*
X68773922Y-94842446D01*
X68816564Y-94785681D01*
X68883126Y-94760982D01*
X68952475Y-94776190D01*
X68996424Y-94816309D01*
X69037211Y-94876892D01*
X69040191Y-94881319D01*
X69043870Y-94885176D01*
X69043872Y-94885178D01*
X69110037Y-94954536D01*
X69199326Y-95048135D01*
X69384292Y-95185754D01*
X69389043Y-95188170D01*
X69389047Y-95188172D01*
X69451106Y-95219724D01*
X69589801Y-95290240D01*
X69594895Y-95291822D01*
X69594898Y-95291823D01*
X69753422Y-95341046D01*
X69809977Y-95358607D01*
X69815266Y-95359308D01*
X70033239Y-95388198D01*
X70033244Y-95388198D01*
X70038524Y-95388898D01*
X70043853Y-95388698D01*
X70043855Y-95388698D01*
X70153716Y-95384573D01*
X70268908Y-95380249D01*
X70278617Y-95378212D01*
X70385104Y-95355869D01*
X70494541Y-95332907D01*
X70499500Y-95330949D01*
X70499502Y-95330948D01*
X70704006Y-95250185D01*
X70704008Y-95250184D01*
X70708971Y-95248224D01*
X70719039Y-95242115D01*
X70901507Y-95131390D01*
X70901506Y-95131390D01*
X70906067Y-95128623D01*
X70994960Y-95051486D01*
X71076162Y-94981023D01*
X71076164Y-94981021D01*
X71080195Y-94977523D01*
X71144822Y-94898705D01*
X71222990Y-94803373D01*
X71222994Y-94803367D01*
X71226374Y-94799245D01*
X71243184Y-94769715D01*
X71337782Y-94603529D01*
X71340425Y-94598886D01*
X71419087Y-94382175D01*
X71427577Y-94335225D01*
X71459373Y-94159392D01*
X71459374Y-94159385D01*
X71460111Y-94155308D01*
X71461250Y-94131156D01*
X71461250Y-92969110D01*
X71446670Y-92797280D01*
X71445332Y-92792125D01*
X71445331Y-92792119D01*
X71390093Y-92579297D01*
X71390092Y-92579293D01*
X71388751Y-92574128D01*
X71347193Y-92481871D01*
X71296257Y-92368798D01*
X71294062Y-92363925D01*
X71165309Y-92172681D01*
X71156745Y-92163703D01*
X71044724Y-92046276D01*
X71006174Y-92005865D01*
X70961020Y-91972269D01*
X70914616Y-91937744D01*
X70821208Y-91868246D01*
X70816457Y-91865830D01*
X70816453Y-91865828D01*
X70696228Y-91804703D01*
X70615699Y-91763760D01*
X70610605Y-91762178D01*
X70610602Y-91762177D01*
X70400621Y-91696976D01*
X70395523Y-91695393D01*
X70352924Y-91689747D01*
X70172261Y-91665802D01*
X70172256Y-91665802D01*
X70166976Y-91665102D01*
X70161647Y-91665302D01*
X70161645Y-91665302D01*
X70051784Y-91669427D01*
X69936592Y-91673751D01*
X69931373Y-91674846D01*
X69894274Y-91682630D01*
X69710959Y-91721093D01*
X69706000Y-91723051D01*
X69705998Y-91723052D01*
X69501494Y-91803815D01*
X69501492Y-91803816D01*
X69496529Y-91805776D01*
X69491970Y-91808543D01*
X69491967Y-91808544D01*
X69350529Y-91894371D01*
X69299433Y-91925377D01*
X69295403Y-91928874D01*
X69160109Y-92046276D01*
X69125305Y-92076477D01*
X69107504Y-92098187D01*
X68988073Y-92243843D01*
X68929413Y-92283838D01*
X68858443Y-92285769D01*
X68797695Y-92249025D01*
X68772657Y-92208181D01*
X68756075Y-92163948D01*
X68747536Y-92148351D01*
X68671035Y-92046276D01*
X68658474Y-92033715D01*
X68556399Y-91957214D01*
X68540804Y-91948676D01*
X68420356Y-91903522D01*
X68405101Y-91899895D01*
X68354236Y-91894369D01*
X68347422Y-91894000D01*
X68320865Y-91894000D01*
X68305626Y-91898475D01*
X68304421Y-91899865D01*
X68302750Y-91907548D01*
X68302750Y-95141884D01*
X67802750Y-95141884D01*
X67802750Y-95125700D01*
X67822752Y-95057579D01*
X67853186Y-95024873D01*
X67858828Y-95020645D01*
X67858831Y-95020642D01*
X67866011Y-95015261D01*
X67871392Y-95008081D01*
X67871395Y-95008078D01*
X67947979Y-94905891D01*
X67953365Y-94898705D01*
X68004495Y-94762316D01*
X68011250Y-94700134D01*
X68011250Y-92353866D01*
X68004495Y-92291684D01*
X67953365Y-92155295D01*
X67882940Y-92061327D01*
X67871395Y-92045922D01*
X67871392Y-92045919D01*
X67866011Y-92038739D01*
X67858831Y-92033358D01*
X67858828Y-92033355D01*
X67853186Y-92029127D01*
X67810671Y-91972269D01*
X67802750Y-91928300D01*
X67802750Y-91912116D01*
X67798275Y-91896877D01*
X67796885Y-91895672D01*
X67789202Y-91894001D01*
X67758081Y-91894001D01*
X67751260Y-91894371D01*
X67700401Y-91899895D01*
X67682986Y-91904035D01*
X67624692Y-91904034D01*
X67620466Y-91903029D01*
X67613066Y-91900255D01*
X67550884Y-91893500D01*
X66954616Y-91893500D01*
X66892434Y-91900255D01*
X66885035Y-91903029D01*
X66881896Y-91903775D01*
X66823604Y-91903775D01*
X66820465Y-91903029D01*
X66813066Y-91900255D01*
X66750884Y-91893500D01*
X66154616Y-91893500D01*
X66092434Y-91900255D01*
X66085035Y-91903029D01*
X66081896Y-91903775D01*
X66023604Y-91903775D01*
X66020465Y-91903029D01*
X66013066Y-91900255D01*
X65950884Y-91893500D01*
X65354616Y-91893500D01*
X65292434Y-91900255D01*
X65285035Y-91903029D01*
X65281896Y-91903775D01*
X65223604Y-91903775D01*
X65220465Y-91903029D01*
X65213066Y-91900255D01*
X65150884Y-91893500D01*
X64554616Y-91893500D01*
X64492434Y-91900255D01*
X64356045Y-91951385D01*
X64239489Y-92038739D01*
X64152135Y-92155295D01*
X64148983Y-92163703D01*
X64131235Y-92211045D01*
X64088593Y-92267809D01*
X64022031Y-92292509D01*
X63952683Y-92277301D01*
X63908734Y-92237183D01*
X63865309Y-92172681D01*
X63856745Y-92163703D01*
X63744724Y-92046276D01*
X63706174Y-92005865D01*
X63661020Y-91972269D01*
X63614616Y-91937744D01*
X63521208Y-91868246D01*
X63516457Y-91865830D01*
X63516453Y-91865828D01*
X63396228Y-91804703D01*
X63315699Y-91763760D01*
X63310605Y-91762178D01*
X63310602Y-91762177D01*
X63100621Y-91696976D01*
X63095523Y-91695393D01*
X63052924Y-91689747D01*
X62872261Y-91665802D01*
X62872256Y-91665802D01*
X62866976Y-91665102D01*
X62861647Y-91665302D01*
X62861645Y-91665302D01*
X62751784Y-91669427D01*
X62636592Y-91673751D01*
X62631373Y-91674846D01*
X62594274Y-91682630D01*
X62410959Y-91721093D01*
X62406000Y-91723051D01*
X62405998Y-91723052D01*
X62201494Y-91803815D01*
X62201492Y-91803816D01*
X62196529Y-91805776D01*
X62191970Y-91808543D01*
X62191967Y-91808544D01*
X62050529Y-91894371D01*
X61999433Y-91925377D01*
X61995403Y-91928874D01*
X61860109Y-92046276D01*
X61825305Y-92076477D01*
X61811254Y-92093613D01*
X61682510Y-92250627D01*
X61682506Y-92250633D01*
X61679126Y-92254755D01*
X61676487Y-92259391D01*
X61676485Y-92259394D01*
X61624642Y-92350469D01*
X61565075Y-92455114D01*
X61486413Y-92671825D01*
X61485464Y-92677074D01*
X61485463Y-92677077D01*
X61446127Y-92894608D01*
X61446126Y-92894615D01*
X61445389Y-92898692D01*
X61444250Y-92922844D01*
X61444250Y-94084890D01*
X61449435Y-94146000D01*
X61457143Y-94236833D01*
X61458830Y-94256720D01*
X61460168Y-94261875D01*
X61460169Y-94261881D01*
X61498653Y-94410152D01*
X61516749Y-94479872D01*
X61518941Y-94484738D01*
X61518942Y-94484741D01*
X61552157Y-94558475D01*
X61611438Y-94690075D01*
X61740191Y-94881319D01*
X61743870Y-94885176D01*
X61743872Y-94885178D01*
X61810037Y-94954536D01*
X61899326Y-95048135D01*
X62084292Y-95185754D01*
X62089043Y-95188170D01*
X62089047Y-95188172D01*
X62201717Y-95245456D01*
X62237910Y-95263857D01*
X62255342Y-95272720D01*
X62306999Y-95321423D01*
X62324126Y-95390323D01*
X62301284Y-95457545D01*
X62287332Y-95474132D01*
X60644712Y-97116753D01*
X60638447Y-97122606D01*
X60595476Y-97160092D01*
X60561806Y-97208000D01*
X60559256Y-97211628D01*
X60555323Y-97216924D01*
X60521144Y-97260513D01*
X60521142Y-97260516D01*
X60516458Y-97266490D01*
X60513332Y-97273414D01*
X60511494Y-97276449D01*
X60504250Y-97289148D01*
X60502562Y-97292296D01*
X60498194Y-97298511D01*
X60495434Y-97305590D01*
X60475317Y-97357189D01*
X60472772Y-97363245D01*
X60446837Y-97420685D01*
X60445452Y-97428158D01*
X60444381Y-97431576D01*
X60440396Y-97445565D01*
X60439499Y-97449057D01*
X60436738Y-97456139D01*
X60435746Y-97463672D01*
X60435746Y-97463673D01*
X60428517Y-97518580D01*
X60427485Y-97525093D01*
X60418653Y-97572750D01*
X60416005Y-97587037D01*
X60416442Y-97594617D01*
X60416442Y-97594618D01*
X60419541Y-97648362D01*
X60419750Y-97655615D01*
X60419750Y-104558901D01*
X60419458Y-104567471D01*
X60416200Y-104615264D01*
X60415580Y-104624352D01*
X60416885Y-104631828D01*
X60416885Y-104631832D01*
X60426413Y-104686424D01*
X60427376Y-104692949D01*
X60432952Y-104739020D01*
X60434941Y-104755460D01*
X60437625Y-104762562D01*
X60438469Y-104766000D01*
X60442333Y-104780123D01*
X60443363Y-104783534D01*
X60444669Y-104791017D01*
X60447722Y-104797972D01*
X60469989Y-104848698D01*
X60472480Y-104854804D01*
X60494744Y-104913722D01*
X60499043Y-104919977D01*
X60500685Y-104923118D01*
X60507783Y-104935872D01*
X60509620Y-104938978D01*
X60512673Y-104945933D01*
X60517298Y-104951960D01*
X60517300Y-104951964D01*
X60551015Y-104995902D01*
X60554879Y-105001220D01*
X60590571Y-105053152D01*
X60634710Y-105092478D01*
X60636438Y-105094018D01*
X60641714Y-105098999D01*
X61285845Y-105743130D01*
X61319871Y-105805442D01*
X61322750Y-105832225D01*
X61322750Y-106600400D01*
X61323087Y-106603646D01*
X61323087Y-106603650D01*
X61331594Y-106685634D01*
X61333724Y-106706166D01*
X61335905Y-106712702D01*
X61335905Y-106712704D01*
X61377485Y-106837333D01*
X61389700Y-106873946D01*
X61482772Y-107024348D01*
X61607947Y-107149305D01*
X61614177Y-107153145D01*
X61614178Y-107153146D01*
X61751340Y-107237694D01*
X61758512Y-107242115D01*
X61822462Y-107263326D01*
X61919861Y-107295632D01*
X61919863Y-107295632D01*
X61926389Y-107297797D01*
X61933225Y-107298497D01*
X61933228Y-107298498D01*
X61976281Y-107302909D01*
X62030850Y-107308500D01*
X63381650Y-107308500D01*
X63384896Y-107308163D01*
X63384900Y-107308163D01*
X63480558Y-107298238D01*
X63480562Y-107298237D01*
X63487416Y-107297526D01*
X63493952Y-107295345D01*
X63493954Y-107295345D01*
X63626056Y-107251272D01*
X63655196Y-107241550D01*
X63805598Y-107148478D01*
X63930555Y-107023303D01*
X63941133Y-107006142D01*
X64019525Y-106878968D01*
X64019526Y-106878966D01*
X64023365Y-106872738D01*
X64068333Y-106737162D01*
X64076882Y-106711389D01*
X64076882Y-106711387D01*
X64079047Y-106704861D01*
X64089750Y-106600400D01*
X64089750Y-105863725D01*
X64109752Y-105795604D01*
X64163408Y-105749111D01*
X64233682Y-105739007D01*
X64298262Y-105768501D01*
X64304845Y-105774630D01*
X69349384Y-110819169D01*
X69349850Y-110819636D01*
X69412628Y-110883075D01*
X69419102Y-110887042D01*
X69419108Y-110887047D01*
X69444199Y-110902423D01*
X69456110Y-110910701D01*
X69485240Y-110933542D01*
X69492159Y-110936666D01*
X69515034Y-110946994D01*
X69529009Y-110954393D01*
X69556882Y-110971474D01*
X69592157Y-110982732D01*
X69605685Y-110987925D01*
X69639435Y-111003163D01*
X69646903Y-111004547D01*
X69646909Y-111004549D01*
X69671571Y-111009119D01*
X69686909Y-111012971D01*
X69718058Y-111022912D01*
X69744185Y-111024693D01*
X69754992Y-111025430D01*
X69769383Y-111027248D01*
X69793173Y-111031657D01*
X69805787Y-111033995D01*
X69813366Y-111033558D01*
X69816375Y-111033384D01*
X69838422Y-111032113D01*
X69854234Y-111032196D01*
X69886852Y-111034420D01*
X69894326Y-111033115D01*
X69894335Y-111033115D01*
X69923327Y-111028054D01*
X69937736Y-111026387D01*
X69974691Y-111024256D01*
X69981952Y-111022022D01*
X69981953Y-111022022D01*
X70005936Y-111014644D01*
X70021322Y-111010950D01*
X70046037Y-111006637D01*
X70046041Y-111006636D01*
X70053517Y-111005331D01*
X70087414Y-110990451D01*
X70101002Y-110985398D01*
X70129136Y-110976743D01*
X70129138Y-110976742D01*
X70136397Y-110974509D01*
X70164450Y-110957719D01*
X70178511Y-110950462D01*
X70201478Y-110940380D01*
X70208433Y-110937327D01*
X70237797Y-110914795D01*
X70249794Y-110906642D01*
X70275047Y-110891529D01*
X70275051Y-110891526D01*
X70281569Y-110887625D01*
X70309727Y-110859760D01*
X70310693Y-110858861D01*
X70311688Y-110858097D01*
X70337922Y-110831863D01*
X70338389Y-110831397D01*
X70398737Y-110771678D01*
X70398738Y-110771677D01*
X70401825Y-110768622D01*
X70402630Y-110767309D01*
X70403883Y-110765903D01*
X70871381Y-110298405D01*
X70933693Y-110264379D01*
X70960476Y-110261500D01*
X79647489Y-110261500D01*
X79715610Y-110281502D01*
X79762103Y-110335158D01*
X79773489Y-110387500D01*
X79773489Y-113937640D01*
X79773197Y-113946210D01*
X79770689Y-113983000D01*
X79769319Y-114003091D01*
X79770624Y-114010567D01*
X79770624Y-114010571D01*
X79780152Y-114065163D01*
X79781115Y-114071688D01*
X79786832Y-114118926D01*
X79788680Y-114134199D01*
X79791364Y-114141301D01*
X79792208Y-114144739D01*
X79796072Y-114158862D01*
X79797102Y-114162273D01*
X79798408Y-114169756D01*
X79801461Y-114176711D01*
X79823728Y-114227437D01*
X79826219Y-114233543D01*
X79848483Y-114292461D01*
X79852782Y-114298716D01*
X79854424Y-114301857D01*
X79861522Y-114314611D01*
X79863359Y-114317717D01*
X79866412Y-114324672D01*
X79871037Y-114330699D01*
X79871039Y-114330703D01*
X79904754Y-114374641D01*
X79908618Y-114379959D01*
X79944310Y-114431891D01*
X79949980Y-114436943D01*
X79949981Y-114436944D01*
X79990177Y-114472757D01*
X79995453Y-114477738D01*
X80554595Y-115036880D01*
X80588621Y-115099192D01*
X80591500Y-115125975D01*
X80591500Y-115619150D01*
X80591837Y-115622396D01*
X80591837Y-115622400D01*
X80601752Y-115717956D01*
X80602474Y-115724916D01*
X80604655Y-115731452D01*
X80604655Y-115731454D01*
X80633132Y-115816810D01*
X80658450Y-115892696D01*
X80751522Y-116043098D01*
X80756704Y-116048271D01*
X80864018Y-116155398D01*
X80898097Y-116217680D01*
X80901000Y-116244571D01*
X80901000Y-117941016D01*
X80894833Y-117979952D01*
X80862708Y-118078822D01*
X80862018Y-118085383D01*
X80862018Y-118085385D01*
X80854335Y-118158488D01*
X80842746Y-118268750D01*
X80843436Y-118275315D01*
X80859981Y-118432729D01*
X80862708Y-118458678D01*
X80921723Y-118640306D01*
X81017210Y-118805694D01*
X81021628Y-118810601D01*
X81021629Y-118810602D01*
X81099791Y-118897410D01*
X81144997Y-118947616D01*
X81299498Y-119059868D01*
X81305526Y-119062552D01*
X81305528Y-119062553D01*
X81467931Y-119134859D01*
X81473962Y-119137544D01*
X81567362Y-119157397D01*
X81654306Y-119175878D01*
X81654311Y-119175878D01*
X81660763Y-119177250D01*
X81851737Y-119177250D01*
X81858189Y-119175878D01*
X81858194Y-119175878D01*
X81945138Y-119157397D01*
X82038538Y-119137544D01*
X82044569Y-119134859D01*
X82206972Y-119062553D01*
X82206974Y-119062552D01*
X82213002Y-119059868D01*
X82367503Y-118947616D01*
X82412709Y-118897410D01*
X82490871Y-118810602D01*
X82490872Y-118810601D01*
X82495290Y-118805694D01*
X82590777Y-118640306D01*
X82649792Y-118458678D01*
X82652520Y-118432729D01*
X82669064Y-118275315D01*
X82669754Y-118268750D01*
X82658165Y-118158488D01*
X82650482Y-118085385D01*
X82650482Y-118085383D01*
X82649792Y-118078822D01*
X82590777Y-117897194D01*
X82495290Y-117731806D01*
X82367503Y-117589884D01*
X82350940Y-117577850D01*
X82307585Y-117521628D01*
X82299000Y-117475913D01*
X82299000Y-116244747D01*
X82319002Y-116176626D01*
X82335827Y-116155729D01*
X82444131Y-116047236D01*
X82449305Y-116042053D01*
X82452102Y-116037515D01*
X82509353Y-115996926D01*
X82580276Y-115993696D01*
X82641687Y-116029322D01*
X82649062Y-116037818D01*
X82657098Y-116047957D01*
X82771829Y-116162489D01*
X82783240Y-116171501D01*
X82921243Y-116256566D01*
X82934424Y-116262713D01*
X83088710Y-116313888D01*
X83102086Y-116316755D01*
X83196438Y-116326422D01*
X83202854Y-116326750D01*
X83227885Y-116326750D01*
X83243124Y-116322275D01*
X83244329Y-116320885D01*
X83246000Y-116313202D01*
X83246000Y-116308634D01*
X83754000Y-116308634D01*
X83758475Y-116323873D01*
X83759865Y-116325078D01*
X83767548Y-116326749D01*
X83797095Y-116326749D01*
X83803614Y-116326412D01*
X83899206Y-116316493D01*
X83912600Y-116313601D01*
X84066784Y-116262162D01*
X84079962Y-116255989D01*
X84217807Y-116170687D01*
X84229208Y-116161651D01*
X84343739Y-116046921D01*
X84352751Y-116035510D01*
X84437816Y-115897507D01*
X84443963Y-115884326D01*
X84495138Y-115730040D01*
X84498005Y-115716664D01*
X84507672Y-115622312D01*
X84508000Y-115615896D01*
X84508000Y-115615845D01*
X90117001Y-115615845D01*
X90117338Y-115622364D01*
X90127257Y-115717956D01*
X90130149Y-115731350D01*
X90181588Y-115885534D01*
X90187761Y-115898712D01*
X90273063Y-116036557D01*
X90282099Y-116047958D01*
X90396829Y-116162489D01*
X90408240Y-116171501D01*
X90546243Y-116256566D01*
X90559424Y-116262713D01*
X90713710Y-116313888D01*
X90727086Y-116316755D01*
X90821438Y-116326422D01*
X90827854Y-116326750D01*
X90852885Y-116326750D01*
X90868124Y-116322275D01*
X90869329Y-116320885D01*
X90871000Y-116313202D01*
X90871000Y-115365865D01*
X90866525Y-115350626D01*
X90865135Y-115349421D01*
X90857452Y-115347750D01*
X90135116Y-115347750D01*
X90119877Y-115352225D01*
X90118672Y-115353615D01*
X90117001Y-115361298D01*
X90117001Y-115615845D01*
X84508000Y-115615845D01*
X84508000Y-115365865D01*
X84503525Y-115350626D01*
X84502135Y-115349421D01*
X84494452Y-115347750D01*
X83772115Y-115347750D01*
X83756876Y-115352225D01*
X83755671Y-115353615D01*
X83754000Y-115361298D01*
X83754000Y-116308634D01*
X83246000Y-116308634D01*
X83246000Y-114821635D01*
X83754000Y-114821635D01*
X83758475Y-114836874D01*
X83759865Y-114838079D01*
X83767548Y-114839750D01*
X84489884Y-114839750D01*
X84505123Y-114835275D01*
X84506328Y-114833885D01*
X84507999Y-114826202D01*
X84507999Y-114821635D01*
X90117000Y-114821635D01*
X90121475Y-114836874D01*
X90122865Y-114838079D01*
X90130548Y-114839750D01*
X90852885Y-114839750D01*
X90868124Y-114835275D01*
X90869329Y-114833885D01*
X90871000Y-114826202D01*
X90871000Y-113878866D01*
X90866525Y-113863627D01*
X90865135Y-113862422D01*
X90857452Y-113860751D01*
X90827905Y-113860751D01*
X90821386Y-113861088D01*
X90725794Y-113871007D01*
X90712400Y-113873899D01*
X90558216Y-113925338D01*
X90545038Y-113931511D01*
X90407193Y-114016813D01*
X90395792Y-114025849D01*
X90281261Y-114140579D01*
X90272249Y-114151990D01*
X90187184Y-114289993D01*
X90181037Y-114303174D01*
X90129862Y-114457460D01*
X90126995Y-114470836D01*
X90117328Y-114565188D01*
X90117000Y-114571605D01*
X90117000Y-114821635D01*
X84507999Y-114821635D01*
X84507999Y-114571655D01*
X84507662Y-114565136D01*
X84497743Y-114469544D01*
X84494851Y-114456150D01*
X84443412Y-114301966D01*
X84437239Y-114288788D01*
X84351937Y-114150943D01*
X84342901Y-114139542D01*
X84228171Y-114025011D01*
X84216760Y-114015999D01*
X84078757Y-113930934D01*
X84065576Y-113924787D01*
X83911290Y-113873612D01*
X83897914Y-113870745D01*
X83803562Y-113861078D01*
X83797145Y-113860750D01*
X83772115Y-113860750D01*
X83756876Y-113865225D01*
X83755671Y-113866615D01*
X83754000Y-113874298D01*
X83754000Y-114821635D01*
X83246000Y-114821635D01*
X83246000Y-113878866D01*
X83241525Y-113863627D01*
X83240135Y-113862422D01*
X83232452Y-113860751D01*
X83202905Y-113860751D01*
X83196386Y-113861088D01*
X83100794Y-113871007D01*
X83087400Y-113873899D01*
X82933216Y-113925338D01*
X82920038Y-113931511D01*
X82782193Y-114016813D01*
X82770792Y-114025849D01*
X82656262Y-114140578D01*
X82649206Y-114149512D01*
X82591288Y-114190573D01*
X82520365Y-114193803D01*
X82458954Y-114158176D01*
X82452154Y-114150343D01*
X82448478Y-114144402D01*
X82422956Y-114118925D01*
X82388877Y-114056644D01*
X82393880Y-113985824D01*
X82422879Y-113940657D01*
X83005631Y-113357905D01*
X83067943Y-113323879D01*
X83094726Y-113321000D01*
X83635634Y-113321000D01*
X83643634Y-113320131D01*
X83697816Y-113314245D01*
X83698048Y-113316384D01*
X83727012Y-113316334D01*
X83727293Y-113313752D01*
X83786014Y-113320131D01*
X83792828Y-113320500D01*
X83840385Y-113320500D01*
X83855624Y-113316025D01*
X83856829Y-113314635D01*
X83861379Y-113293717D01*
X83862597Y-113293982D01*
X83878502Y-113239813D01*
X83908935Y-113207108D01*
X83943580Y-113181143D01*
X83943581Y-113181142D01*
X83950761Y-113175761D01*
X84011674Y-113094485D01*
X84068533Y-113051970D01*
X84139352Y-113046944D01*
X84201645Y-113081004D01*
X84213325Y-113094484D01*
X84274239Y-113175761D01*
X84281419Y-113181142D01*
X84281420Y-113181143D01*
X84316065Y-113207108D01*
X84358580Y-113263967D01*
X84363913Y-113293574D01*
X84370975Y-113317623D01*
X84372365Y-113318828D01*
X84380048Y-113320499D01*
X84432169Y-113320499D01*
X84438990Y-113320129D01*
X84497707Y-113313752D01*
X84498005Y-113316498D01*
X84526946Y-113316440D01*
X84527184Y-113314245D01*
X84581367Y-113320131D01*
X84589366Y-113321000D01*
X85235634Y-113321000D01*
X85243634Y-113320131D01*
X85297816Y-113314245D01*
X85298080Y-113316674D01*
X85326920Y-113316674D01*
X85327184Y-113314245D01*
X85381367Y-113320131D01*
X85389366Y-113321000D01*
X86035634Y-113321000D01*
X86043634Y-113320131D01*
X86097816Y-113314245D01*
X86098080Y-113316674D01*
X86126920Y-113316674D01*
X86127184Y-113314245D01*
X86181367Y-113320131D01*
X86189366Y-113321000D01*
X86835634Y-113321000D01*
X86843634Y-113320131D01*
X86897816Y-113314245D01*
X86898080Y-113316674D01*
X86926920Y-113316674D01*
X86927184Y-113314245D01*
X86981367Y-113320131D01*
X86989366Y-113321000D01*
X87635634Y-113321000D01*
X87643634Y-113320131D01*
X87697816Y-113314245D01*
X87698080Y-113316674D01*
X87726920Y-113316674D01*
X87727184Y-113314245D01*
X87781367Y-113320131D01*
X87789366Y-113321000D01*
X88435634Y-113321000D01*
X88443634Y-113320131D01*
X88497816Y-113314245D01*
X88498080Y-113316674D01*
X88526920Y-113316674D01*
X88527184Y-113314245D01*
X88581367Y-113320131D01*
X88589366Y-113321000D01*
X89235634Y-113321000D01*
X89243634Y-113320131D01*
X89297816Y-113314245D01*
X89298080Y-113316674D01*
X89326920Y-113316674D01*
X89327184Y-113314245D01*
X89381367Y-113320131D01*
X89389366Y-113321000D01*
X90035634Y-113321000D01*
X90043634Y-113320131D01*
X90097816Y-113314245D01*
X90098048Y-113316384D01*
X90127012Y-113316334D01*
X90127293Y-113313752D01*
X90186014Y-113320131D01*
X90192828Y-113320500D01*
X90240385Y-113320500D01*
X90255624Y-113316025D01*
X90256829Y-113314635D01*
X90261379Y-113293717D01*
X90262597Y-113293982D01*
X90278502Y-113239813D01*
X90308935Y-113207108D01*
X90343580Y-113181143D01*
X90343581Y-113181142D01*
X90350761Y-113175761D01*
X90411674Y-113094485D01*
X90468533Y-113051970D01*
X90539352Y-113046944D01*
X90601645Y-113081004D01*
X90613325Y-113094484D01*
X90674239Y-113175761D01*
X90681419Y-113181142D01*
X90681420Y-113181143D01*
X90716065Y-113207108D01*
X90758580Y-113263967D01*
X90763913Y-113293574D01*
X90770975Y-113317623D01*
X90772365Y-113318828D01*
X90780048Y-113320499D01*
X90832169Y-113320499D01*
X90838990Y-113320129D01*
X90897707Y-113313752D01*
X90898005Y-113316498D01*
X90926946Y-113316440D01*
X90927184Y-113314245D01*
X90981367Y-113320131D01*
X90989366Y-113321000D01*
X91530274Y-113321000D01*
X91598395Y-113341002D01*
X91619370Y-113357905D01*
X92202185Y-113940721D01*
X92236210Y-114003033D01*
X92231145Y-114073849D01*
X92202261Y-114118834D01*
X92180872Y-114140260D01*
X92180868Y-114140265D01*
X92175695Y-114145447D01*
X92172898Y-114149985D01*
X92115647Y-114190574D01*
X92044724Y-114193804D01*
X91983313Y-114158178D01*
X91975938Y-114149682D01*
X91967902Y-114139543D01*
X91853171Y-114025011D01*
X91841760Y-114015999D01*
X91703757Y-113930934D01*
X91690576Y-113924787D01*
X91536290Y-113873612D01*
X91522914Y-113870745D01*
X91428562Y-113861078D01*
X91422145Y-113860750D01*
X91397115Y-113860750D01*
X91381876Y-113865225D01*
X91380671Y-113866615D01*
X91379000Y-113874298D01*
X91379000Y-116308634D01*
X91383475Y-116323873D01*
X91384865Y-116325078D01*
X91392548Y-116326749D01*
X91422095Y-116326749D01*
X91428614Y-116326412D01*
X91524206Y-116316493D01*
X91537600Y-116313601D01*
X91691784Y-116262162D01*
X91704962Y-116255989D01*
X91842807Y-116170687D01*
X91854208Y-116161651D01*
X91968738Y-116046922D01*
X91975794Y-116037988D01*
X92033712Y-115996927D01*
X92104635Y-115993697D01*
X92166046Y-116029324D01*
X92172846Y-116037157D01*
X92176522Y-116043098D01*
X92301697Y-116168055D01*
X92307927Y-116171895D01*
X92307928Y-116171896D01*
X92445288Y-116256566D01*
X92452262Y-116260865D01*
X92513794Y-116281274D01*
X92613611Y-116314382D01*
X92613613Y-116314382D01*
X92620139Y-116316547D01*
X92626975Y-116317247D01*
X92626978Y-116317248D01*
X92670031Y-116321659D01*
X92724600Y-116327250D01*
X93325400Y-116327250D01*
X93328646Y-116326913D01*
X93328650Y-116326913D01*
X93424308Y-116316988D01*
X93424312Y-116316987D01*
X93431166Y-116316276D01*
X93437702Y-116314095D01*
X93437704Y-116314095D01*
X93569806Y-116270022D01*
X93598946Y-116260300D01*
X93749348Y-116167228D01*
X93874305Y-116042053D01*
X93967115Y-115891488D01*
X94022797Y-115723611D01*
X94023878Y-115713066D01*
X94033167Y-115622400D01*
X94033500Y-115619150D01*
X94033500Y-115125975D01*
X94053502Y-115057854D01*
X94070405Y-115036880D01*
X94930288Y-114176997D01*
X94936554Y-114171143D01*
X94951418Y-114158176D01*
X94979524Y-114133658D01*
X95015744Y-114082122D01*
X95019677Y-114076826D01*
X95053856Y-114033237D01*
X95053858Y-114033234D01*
X95058542Y-114027260D01*
X95061668Y-114020336D01*
X95063506Y-114017301D01*
X95070750Y-114004602D01*
X95072438Y-114001454D01*
X95076806Y-113995239D01*
X95099688Y-113936550D01*
X95102228Y-113930505D01*
X95128163Y-113873065D01*
X95129548Y-113865592D01*
X95130619Y-113862174D01*
X95134604Y-113848185D01*
X95135501Y-113844693D01*
X95138262Y-113837611D01*
X95146483Y-113775170D01*
X95147515Y-113768657D01*
X95157611Y-113714182D01*
X95157611Y-113714180D01*
X95158995Y-113706713D01*
X95155459Y-113645387D01*
X95155250Y-113638135D01*
X95155250Y-113342279D01*
X95175252Y-113274158D01*
X95187609Y-113257975D01*
X95195290Y-113249444D01*
X95253564Y-113148510D01*
X95287473Y-113089779D01*
X95287474Y-113089778D01*
X95290777Y-113084056D01*
X95349792Y-112902428D01*
X95350794Y-112892901D01*
X95369064Y-112719065D01*
X95369754Y-112712500D01*
X95360748Y-112626809D01*
X95350482Y-112529135D01*
X95350482Y-112529133D01*
X95349792Y-112522572D01*
X95292776Y-112347095D01*
X95629501Y-112347095D01*
X95629838Y-112353614D01*
X95639757Y-112449206D01*
X95642649Y-112462600D01*
X95694088Y-112616784D01*
X95700261Y-112629962D01*
X95785563Y-112767807D01*
X95794599Y-112779208D01*
X95909329Y-112893739D01*
X95920740Y-112902751D01*
X96058743Y-112987816D01*
X96071924Y-112993963D01*
X96226210Y-113045138D01*
X96239586Y-113048005D01*
X96333938Y-113057672D01*
X96340354Y-113058000D01*
X96565385Y-113058000D01*
X96580624Y-113053525D01*
X96581829Y-113052135D01*
X96583500Y-113044452D01*
X96583500Y-113039884D01*
X97091500Y-113039884D01*
X97095975Y-113055123D01*
X97097365Y-113056328D01*
X97105048Y-113057999D01*
X97334595Y-113057999D01*
X97341114Y-113057662D01*
X97436706Y-113047743D01*
X97450100Y-113044851D01*
X97604284Y-112993412D01*
X97617462Y-112987239D01*
X97755307Y-112901937D01*
X97766708Y-112892901D01*
X97881239Y-112778171D01*
X97890251Y-112766760D01*
X97975316Y-112628757D01*
X97981463Y-112615576D01*
X98032638Y-112461290D01*
X98035505Y-112447914D01*
X98045172Y-112353562D01*
X98045500Y-112347146D01*
X98045500Y-112309615D01*
X98041025Y-112294376D01*
X98039635Y-112293171D01*
X98031952Y-112291500D01*
X97109615Y-112291500D01*
X97094376Y-112295975D01*
X97093171Y-112297365D01*
X97091500Y-112305048D01*
X97091500Y-113039884D01*
X96583500Y-113039884D01*
X96583500Y-112309615D01*
X96579025Y-112294376D01*
X96577635Y-112293171D01*
X96569952Y-112291500D01*
X95647616Y-112291500D01*
X95632377Y-112295975D01*
X95631172Y-112297365D01*
X95629501Y-112305048D01*
X95629501Y-112347095D01*
X95292776Y-112347095D01*
X95290777Y-112340944D01*
X95272240Y-112308836D01*
X95242386Y-112257129D01*
X95195290Y-112175556D01*
X95126905Y-112099606D01*
X95071925Y-112038545D01*
X95071924Y-112038544D01*
X95067503Y-112033634D01*
X94913002Y-111921382D01*
X94906974Y-111918698D01*
X94906972Y-111918697D01*
X94744569Y-111846391D01*
X94744568Y-111846391D01*
X94738538Y-111843706D01*
X94645138Y-111823853D01*
X94558194Y-111805372D01*
X94558189Y-111805372D01*
X94551737Y-111804000D01*
X94360763Y-111804000D01*
X94354311Y-111805372D01*
X94354306Y-111805372D01*
X94267362Y-111823853D01*
X94173962Y-111843706D01*
X94167932Y-111846391D01*
X94167931Y-111846391D01*
X94005528Y-111918697D01*
X94005526Y-111918698D01*
X93999498Y-111921382D01*
X93844997Y-112033634D01*
X93840576Y-112038544D01*
X93840575Y-112038545D01*
X93785596Y-112099606D01*
X93717210Y-112175556D01*
X93670114Y-112257129D01*
X93640261Y-112308836D01*
X93621723Y-112340944D01*
X93562708Y-112522572D01*
X93562018Y-112529133D01*
X93562018Y-112529135D01*
X93551752Y-112626809D01*
X93542746Y-112712500D01*
X93543436Y-112719065D01*
X93561707Y-112892901D01*
X93562708Y-112902428D01*
X93572476Y-112932490D01*
X93603516Y-113028022D01*
X93605544Y-113098989D01*
X93568881Y-113159787D01*
X93505169Y-113191113D01*
X93434635Y-113183020D01*
X93394588Y-113156053D01*
X92132905Y-111894370D01*
X92098879Y-111832058D01*
X92096000Y-111805275D01*
X92096000Y-111272000D01*
X92116002Y-111203879D01*
X92169658Y-111157386D01*
X92222000Y-111146000D01*
X93810634Y-111146000D01*
X93872816Y-111139245D01*
X94009205Y-111088115D01*
X94095856Y-111023174D01*
X94162361Y-110998326D01*
X94171420Y-110998000D01*
X95785632Y-110998000D01*
X95853753Y-111018002D01*
X95874660Y-111034837D01*
X95875973Y-111036148D01*
X95910045Y-111098434D01*
X95905034Y-111169253D01*
X95876118Y-111214329D01*
X95793761Y-111296829D01*
X95784749Y-111308240D01*
X95699684Y-111446243D01*
X95693537Y-111459424D01*
X95642362Y-111613710D01*
X95639495Y-111627086D01*
X95629828Y-111721438D01*
X95629500Y-111727855D01*
X95629500Y-111765385D01*
X95633975Y-111780624D01*
X95635365Y-111781829D01*
X95643048Y-111783500D01*
X98027384Y-111783500D01*
X98077315Y-111768839D01*
X98148312Y-111768839D01*
X98201908Y-111800640D01*
X101666827Y-115265560D01*
X105052671Y-118651404D01*
X105060247Y-118659730D01*
X105064368Y-118666224D01*
X105070143Y-118671647D01*
X105114186Y-118713006D01*
X105117028Y-118715761D01*
X105136827Y-118735560D01*
X105139958Y-118737989D01*
X105139963Y-118737993D01*
X105140049Y-118738060D01*
X105149074Y-118745768D01*
X105175636Y-118770712D01*
X105175640Y-118770715D01*
X105181415Y-118776138D01*
X105188361Y-118779957D01*
X105188366Y-118779960D01*
X105199249Y-118785943D01*
X105215777Y-118796799D01*
X105225592Y-118804413D01*
X105225595Y-118804415D01*
X105231854Y-118809270D01*
X105239124Y-118812416D01*
X105239129Y-118812419D01*
X105272571Y-118826890D01*
X105283232Y-118832113D01*
X105315168Y-118849670D01*
X105315173Y-118849672D01*
X105322118Y-118853490D01*
X105329792Y-118855460D01*
X105329799Y-118855463D01*
X105341834Y-118858553D01*
X105360539Y-118864957D01*
X105371934Y-118869888D01*
X105379213Y-118873038D01*
X105394322Y-118875431D01*
X105423048Y-118879981D01*
X105434661Y-118882386D01*
X105477639Y-118893421D01*
X105497986Y-118893421D01*
X105517698Y-118894972D01*
X105537800Y-118898156D01*
X105545692Y-118897410D01*
X105581977Y-118893980D01*
X105593835Y-118893421D01*
X117469309Y-118893421D01*
X117480543Y-118893951D01*
X117488048Y-118895629D01*
X117556341Y-118893483D01*
X117560298Y-118893421D01*
X117588312Y-118893421D01*
X117592237Y-118892925D01*
X117592238Y-118892925D01*
X117592333Y-118892913D01*
X117604178Y-118891980D01*
X117633999Y-118891043D01*
X117640611Y-118890835D01*
X117640612Y-118890835D01*
X117648534Y-118890586D01*
X117668078Y-118884908D01*
X117687441Y-118880898D01*
X117699769Y-118879341D01*
X117699771Y-118879341D01*
X117707628Y-118878348D01*
X117714992Y-118875432D01*
X117714997Y-118875431D01*
X117748885Y-118862014D01*
X117760114Y-118858169D01*
X117776794Y-118853323D01*
X117802722Y-118845790D01*
X117809549Y-118841752D01*
X117809552Y-118841751D01*
X117820235Y-118835433D01*
X117837993Y-118826733D01*
X117849544Y-118822160D01*
X117849550Y-118822156D01*
X117856917Y-118819240D01*
X117866306Y-118812419D01*
X117892817Y-118793157D01*
X117902739Y-118786640D01*
X117934097Y-118768095D01*
X117934101Y-118768092D01*
X117940927Y-118764055D01*
X117955311Y-118749671D01*
X117970345Y-118736830D01*
X117980402Y-118729523D01*
X117986816Y-118724863D01*
X118015107Y-118690665D01*
X118023096Y-118681886D01*
X118172077Y-118532905D01*
X118234389Y-118498879D01*
X118261172Y-118496000D01*
X118276327Y-118496000D01*
X118344448Y-118516002D01*
X118365422Y-118532905D01*
X118483921Y-118651404D01*
X118491497Y-118659730D01*
X118495618Y-118666224D01*
X118501393Y-118671647D01*
X118545436Y-118713006D01*
X118548278Y-118715761D01*
X118568077Y-118735560D01*
X118571208Y-118737989D01*
X118571213Y-118737993D01*
X118571299Y-118738060D01*
X118580324Y-118745768D01*
X118606886Y-118770712D01*
X118606890Y-118770715D01*
X118612665Y-118776138D01*
X118619611Y-118779957D01*
X118619616Y-118779960D01*
X118630499Y-118785943D01*
X118647027Y-118796799D01*
X118656842Y-118804413D01*
X118656845Y-118804415D01*
X118663104Y-118809270D01*
X118670374Y-118812416D01*
X118670379Y-118812419D01*
X118703821Y-118826890D01*
X118714482Y-118832113D01*
X118746418Y-118849670D01*
X118746423Y-118849672D01*
X118753368Y-118853490D01*
X118761042Y-118855460D01*
X118761049Y-118855463D01*
X118773084Y-118858553D01*
X118791789Y-118864957D01*
X118803184Y-118869888D01*
X118810463Y-118873038D01*
X118825572Y-118875431D01*
X118854298Y-118879981D01*
X118865911Y-118882386D01*
X118908889Y-118893421D01*
X118929236Y-118893421D01*
X118948948Y-118894972D01*
X118969050Y-118898156D01*
X118976942Y-118897410D01*
X119013227Y-118893980D01*
X119025085Y-118893421D01*
X136519309Y-118893421D01*
X136530543Y-118893951D01*
X136538048Y-118895629D01*
X136606341Y-118893483D01*
X136610298Y-118893421D01*
X136638312Y-118893421D01*
X136642237Y-118892925D01*
X136642238Y-118892925D01*
X136642333Y-118892913D01*
X136654178Y-118891980D01*
X136683999Y-118891043D01*
X136690611Y-118890835D01*
X136690612Y-118890835D01*
X136698534Y-118890586D01*
X136718078Y-118884908D01*
X136737441Y-118880898D01*
X136749769Y-118879341D01*
X136749771Y-118879341D01*
X136757628Y-118878348D01*
X136764992Y-118875432D01*
X136764997Y-118875431D01*
X136798885Y-118862014D01*
X136810114Y-118858169D01*
X136826794Y-118853323D01*
X136852722Y-118845790D01*
X136859549Y-118841752D01*
X136859552Y-118841751D01*
X136870235Y-118835433D01*
X136887993Y-118826733D01*
X136899544Y-118822160D01*
X136899550Y-118822156D01*
X136906917Y-118819240D01*
X136916306Y-118812419D01*
X136942817Y-118793157D01*
X136952739Y-118786640D01*
X136984097Y-118768095D01*
X136984101Y-118768092D01*
X136990927Y-118764055D01*
X137005311Y-118749671D01*
X137020345Y-118736830D01*
X137030402Y-118729523D01*
X137036816Y-118724863D01*
X137065107Y-118690665D01*
X137073096Y-118681886D01*
X137222077Y-118532905D01*
X137284389Y-118498879D01*
X137311172Y-118496000D01*
X137966884Y-118496000D01*
X138029066Y-118489245D01*
X138165455Y-118438115D01*
X138196185Y-118415084D01*
X138262691Y-118390236D01*
X138332074Y-118405289D01*
X138382304Y-118455463D01*
X138397750Y-118515910D01*
X138397750Y-122981880D01*
X138396249Y-123001267D01*
X138392559Y-123024963D01*
X138394323Y-123038452D01*
X138394689Y-123041254D01*
X138395482Y-123065829D01*
X138388809Y-123167606D01*
X138382264Y-123267441D01*
X138380112Y-123283782D01*
X138335541Y-123507830D01*
X138331276Y-123523749D01*
X138257838Y-123740081D01*
X138251532Y-123755304D01*
X138150488Y-123960193D01*
X138142248Y-123974464D01*
X138079605Y-124068213D01*
X138015330Y-124164405D01*
X138005297Y-124177481D01*
X137854666Y-124349238D01*
X137843012Y-124360892D01*
X137671247Y-124511523D01*
X137658179Y-124521550D01*
X137468221Y-124648474D01*
X137453973Y-124656701D01*
X137249055Y-124757753D01*
X137233845Y-124764052D01*
X137017517Y-124837485D01*
X137001602Y-124841749D01*
X136889569Y-124864034D01*
X136777538Y-124886318D01*
X136761198Y-124888469D01*
X136566535Y-124901228D01*
X136544423Y-124900244D01*
X136540155Y-124900192D01*
X136531276Y-124898809D01*
X136499714Y-124902936D01*
X136483379Y-124904000D01*
X61961867Y-124904000D01*
X61942482Y-124902500D01*
X61927649Y-124900190D01*
X61927645Y-124900190D01*
X61918776Y-124898809D01*
X61909874Y-124899973D01*
X61909871Y-124899973D01*
X61902488Y-124900939D01*
X61877909Y-124901733D01*
X61833299Y-124898809D01*
X61676296Y-124888518D01*
X61659957Y-124886367D01*
X61435889Y-124841799D01*
X61419971Y-124837534D01*
X61203636Y-124764098D01*
X61188419Y-124757795D01*
X60983523Y-124656754D01*
X60969250Y-124648514D01*
X60779294Y-124521591D01*
X60766219Y-124511558D01*
X60594453Y-124360927D01*
X60582798Y-124349273D01*
X60432164Y-124177512D01*
X60422131Y-124164436D01*
X60295210Y-123974491D01*
X60286969Y-123960218D01*
X60185924Y-123755327D01*
X60179616Y-123740100D01*
X60157617Y-123675294D01*
X60117843Y-123558131D01*
X60106176Y-123523762D01*
X60101911Y-123507843D01*
X60057339Y-123283788D01*
X60055187Y-123267447D01*
X60043859Y-123094669D01*
X61373251Y-123094669D01*
X61373621Y-123101490D01*
X61379145Y-123152352D01*
X61382771Y-123167604D01*
X61427926Y-123288054D01*
X61436464Y-123303649D01*
X61512965Y-123405724D01*
X61525526Y-123418285D01*
X61627601Y-123494786D01*
X61643196Y-123503324D01*
X61763644Y-123548478D01*
X61778899Y-123552105D01*
X61829764Y-123557631D01*
X61836578Y-123558000D01*
X62509135Y-123558000D01*
X62524374Y-123553525D01*
X62525579Y-123552135D01*
X62527250Y-123544452D01*
X62527250Y-123539884D01*
X63035250Y-123539884D01*
X63039725Y-123555123D01*
X63041115Y-123556328D01*
X63048798Y-123557999D01*
X63725919Y-123557999D01*
X63732740Y-123557629D01*
X63783602Y-123552105D01*
X63798854Y-123548479D01*
X63919304Y-123503324D01*
X63934899Y-123494786D01*
X64036974Y-123418285D01*
X64049535Y-123405724D01*
X64126036Y-123303649D01*
X64134574Y-123288054D01*
X64179728Y-123167606D01*
X64183355Y-123152351D01*
X64188881Y-123101486D01*
X64189063Y-123098134D01*
X67572750Y-123098134D01*
X67579505Y-123160316D01*
X67630635Y-123296705D01*
X67717989Y-123413261D01*
X67834545Y-123500615D01*
X67970934Y-123551745D01*
X68033116Y-123558500D01*
X69929384Y-123558500D01*
X69991566Y-123551745D01*
X70127955Y-123500615D01*
X70244511Y-123413261D01*
X70331865Y-123296705D01*
X70382995Y-123160316D01*
X70389750Y-123098134D01*
X70389750Y-121901866D01*
X70382995Y-121839684D01*
X70331865Y-121703295D01*
X70244511Y-121586739D01*
X70127955Y-121499385D01*
X69991566Y-121448255D01*
X69929384Y-121441500D01*
X68033116Y-121441500D01*
X67970934Y-121448255D01*
X67834545Y-121499385D01*
X67717989Y-121586739D01*
X67630635Y-121703295D01*
X67579505Y-121839684D01*
X67572750Y-121901866D01*
X67572750Y-123098134D01*
X64189063Y-123098134D01*
X64189250Y-123094672D01*
X64189250Y-122772115D01*
X64184775Y-122756876D01*
X64183385Y-122755671D01*
X64175702Y-122754000D01*
X63053365Y-122754000D01*
X63038126Y-122758475D01*
X63036921Y-122759865D01*
X63035250Y-122767548D01*
X63035250Y-123539884D01*
X62527250Y-123539884D01*
X62527250Y-122772115D01*
X62522775Y-122756876D01*
X62521385Y-122755671D01*
X62513702Y-122754000D01*
X61391366Y-122754000D01*
X61376127Y-122758475D01*
X61374922Y-122759865D01*
X61373251Y-122767548D01*
X61373251Y-123094669D01*
X60043859Y-123094669D01*
X60042453Y-123073221D01*
X60043526Y-123049095D01*
X60043559Y-123046393D01*
X60044941Y-123037515D01*
X60040814Y-123005959D01*
X60039750Y-122989619D01*
X60039750Y-122227885D01*
X61373250Y-122227885D01*
X61377725Y-122243124D01*
X61379115Y-122244329D01*
X61386798Y-122246000D01*
X62509135Y-122246000D01*
X62524374Y-122241525D01*
X62525579Y-122240135D01*
X62527250Y-122232452D01*
X62527250Y-122227885D01*
X63035250Y-122227885D01*
X63039725Y-122243124D01*
X63041115Y-122244329D01*
X63048798Y-122246000D01*
X64171134Y-122246000D01*
X64186373Y-122241525D01*
X64187578Y-122240135D01*
X64189249Y-122232452D01*
X64189249Y-121905331D01*
X64188879Y-121898510D01*
X64183355Y-121847648D01*
X64179729Y-121832396D01*
X64134574Y-121711946D01*
X64126036Y-121696351D01*
X64049535Y-121594276D01*
X64036974Y-121581715D01*
X63934899Y-121505214D01*
X63919304Y-121496676D01*
X63798856Y-121451522D01*
X63783601Y-121447895D01*
X63732736Y-121442369D01*
X63725922Y-121442000D01*
X63053365Y-121442000D01*
X63038126Y-121446475D01*
X63036921Y-121447865D01*
X63035250Y-121455548D01*
X63035250Y-122227885D01*
X62527250Y-122227885D01*
X62527250Y-121460116D01*
X62522775Y-121444877D01*
X62521385Y-121443672D01*
X62513702Y-121442001D01*
X61836581Y-121442001D01*
X61829760Y-121442371D01*
X61778898Y-121447895D01*
X61763646Y-121451521D01*
X61643196Y-121496676D01*
X61627601Y-121505214D01*
X61525526Y-121581715D01*
X61512965Y-121594276D01*
X61436464Y-121696351D01*
X61427926Y-121711946D01*
X61382772Y-121832394D01*
X61379145Y-121847649D01*
X61373619Y-121898514D01*
X61373250Y-121905328D01*
X61373250Y-122227885D01*
X60039750Y-122227885D01*
X60039750Y-119398134D01*
X61372750Y-119398134D01*
X61379505Y-119460316D01*
X61430635Y-119596705D01*
X61517989Y-119713261D01*
X61634545Y-119800615D01*
X61770934Y-119851745D01*
X61833116Y-119858500D01*
X63729384Y-119858500D01*
X63791566Y-119851745D01*
X63927955Y-119800615D01*
X64044511Y-119713261D01*
X64131865Y-119596705D01*
X64182995Y-119460316D01*
X64189750Y-119398134D01*
X67572750Y-119398134D01*
X67579505Y-119460316D01*
X67630635Y-119596705D01*
X67717989Y-119713261D01*
X67834545Y-119800615D01*
X67970934Y-119851745D01*
X68033116Y-119858500D01*
X69929384Y-119858500D01*
X69991566Y-119851745D01*
X70127955Y-119800615D01*
X70244511Y-119713261D01*
X70331865Y-119596705D01*
X70382995Y-119460316D01*
X70389750Y-119398134D01*
X70389750Y-118342423D01*
X70409752Y-118274302D01*
X70426655Y-118253328D01*
X70532578Y-118147405D01*
X70594890Y-118113379D01*
X70621673Y-118110500D01*
X70731101Y-118110500D01*
X70799222Y-118130502D01*
X70816408Y-118145109D01*
X70816920Y-118144540D01*
X70821832Y-118148963D01*
X70826247Y-118153866D01*
X70832609Y-118158488D01*
X70975335Y-118262185D01*
X70980748Y-118266118D01*
X70986776Y-118268802D01*
X70986778Y-118268803D01*
X71034911Y-118290233D01*
X71155212Y-118343794D01*
X71248612Y-118363647D01*
X71335556Y-118382128D01*
X71335561Y-118382128D01*
X71342013Y-118383500D01*
X71532987Y-118383500D01*
X71539439Y-118382128D01*
X71539444Y-118382128D01*
X71626388Y-118363647D01*
X71719788Y-118343794D01*
X71840089Y-118290233D01*
X71888222Y-118268803D01*
X71888224Y-118268802D01*
X71894252Y-118266118D01*
X71899666Y-118262185D01*
X72042391Y-118158488D01*
X72048753Y-118153866D01*
X72176540Y-118011944D01*
X72272027Y-117846556D01*
X72331042Y-117664928D01*
X72338414Y-117594793D01*
X72350314Y-117481565D01*
X72351004Y-117475000D01*
X72331042Y-117285072D01*
X72272027Y-117103444D01*
X72176540Y-116938056D01*
X72151964Y-116910761D01*
X72053175Y-116801045D01*
X72053174Y-116801044D01*
X72048753Y-116796134D01*
X71942392Y-116718858D01*
X71899594Y-116687763D01*
X71899593Y-116687762D01*
X71894252Y-116683882D01*
X71888224Y-116681198D01*
X71888222Y-116681197D01*
X71725819Y-116608891D01*
X71725818Y-116608891D01*
X71719788Y-116606206D01*
X71591795Y-116579000D01*
X71539444Y-116567872D01*
X71539439Y-116567872D01*
X71532987Y-116566500D01*
X71342013Y-116566500D01*
X71335561Y-116567872D01*
X71335556Y-116567872D01*
X71283205Y-116579000D01*
X71155212Y-116606206D01*
X71149182Y-116608891D01*
X71149181Y-116608891D01*
X70986778Y-116681197D01*
X70986776Y-116681198D01*
X70980748Y-116683882D01*
X70975407Y-116687762D01*
X70975406Y-116687763D01*
X70915319Y-116731419D01*
X70826247Y-116796134D01*
X70821832Y-116801037D01*
X70816920Y-116805460D01*
X70815279Y-116803638D01*
X70764290Y-116835050D01*
X70731101Y-116839500D01*
X70385282Y-116839500D01*
X70374043Y-116838970D01*
X70366531Y-116837291D01*
X70358606Y-116837540D01*
X70358605Y-116837540D01*
X70298220Y-116839438D01*
X70294262Y-116839500D01*
X70266267Y-116839500D01*
X70262333Y-116839997D01*
X70262331Y-116839997D01*
X70262244Y-116840008D01*
X70250410Y-116840940D01*
X70206045Y-116842335D01*
X70198432Y-116844547D01*
X70198431Y-116844547D01*
X70186502Y-116848013D01*
X70167138Y-116852023D01*
X70154810Y-116853580D01*
X70154808Y-116853580D01*
X70146951Y-116854573D01*
X70139587Y-116857489D01*
X70139582Y-116857490D01*
X70105694Y-116870907D01*
X70094465Y-116874752D01*
X70080209Y-116878894D01*
X70051857Y-116887131D01*
X70045030Y-116891169D01*
X70045027Y-116891170D01*
X70034344Y-116897488D01*
X70016586Y-116906188D01*
X70005035Y-116910761D01*
X70005029Y-116910765D01*
X69997662Y-116913681D01*
X69991251Y-116918339D01*
X69991249Y-116918340D01*
X69961762Y-116939764D01*
X69951840Y-116946281D01*
X69920482Y-116964826D01*
X69920478Y-116964829D01*
X69913652Y-116968866D01*
X69899268Y-116983250D01*
X69884234Y-116996091D01*
X69867763Y-117008058D01*
X69844673Y-117035969D01*
X69839477Y-117042250D01*
X69831487Y-117051031D01*
X69177921Y-117704596D01*
X69115609Y-117738621D01*
X69088826Y-117741500D01*
X68033116Y-117741500D01*
X67970934Y-117748255D01*
X67834545Y-117799385D01*
X67717989Y-117886739D01*
X67630635Y-118003295D01*
X67579505Y-118139684D01*
X67572750Y-118201866D01*
X67572750Y-119398134D01*
X64189750Y-119398134D01*
X64189750Y-118201866D01*
X64182995Y-118139684D01*
X64131865Y-118003295D01*
X64044511Y-117886739D01*
X63927955Y-117799385D01*
X63791566Y-117748255D01*
X63729384Y-117741500D01*
X61833116Y-117741500D01*
X61770934Y-117748255D01*
X61634545Y-117799385D01*
X61517989Y-117886739D01*
X61430635Y-118003295D01*
X61379505Y-118139684D01*
X61372750Y-118201866D01*
X61372750Y-119398134D01*
X60039750Y-119398134D01*
X60039750Y-89747000D01*
X60041496Y-89726095D01*
X60044020Y-89711094D01*
X60044020Y-89711091D01*
X60044826Y-89706302D01*
X60044979Y-89693750D01*
X60043253Y-89681697D01*
X60042251Y-89655595D01*
X60042542Y-89651163D01*
X60055232Y-89457549D01*
X60057383Y-89441209D01*
X60101951Y-89217147D01*
X60106217Y-89201226D01*
X60179651Y-88984899D01*
X60185958Y-88969673D01*
X60286998Y-88764783D01*
X60295239Y-88750509D01*
X60422158Y-88560562D01*
X60432191Y-88547487D01*
X60582821Y-88375726D01*
X60594476Y-88364071D01*
X60766237Y-88213441D01*
X60779312Y-88203408D01*
X60969259Y-88076489D01*
X60983533Y-88068248D01*
X61188423Y-87967208D01*
X61203649Y-87960901D01*
X61279144Y-87935273D01*
X61365003Y-87906128D01*
X61435937Y-87903171D01*
X61497210Y-87939035D01*
X61529367Y-88002331D01*
X61523943Y-88068432D01*
X61488234Y-88166809D01*
X61486413Y-88171825D01*
X61485464Y-88177074D01*
X61485463Y-88177077D01*
X61446127Y-88394608D01*
X61446126Y-88394615D01*
X61445389Y-88398692D01*
X61444250Y-88422844D01*
X61444250Y-89584890D01*
X61444475Y-89587539D01*
X61456323Y-89727170D01*
X61458830Y-89756720D01*
X61460168Y-89761875D01*
X61460169Y-89761881D01*
X61515407Y-89974703D01*
X61516749Y-89979872D01*
X61611438Y-90190075D01*
X61740191Y-90381319D01*
X61743870Y-90385176D01*
X61743872Y-90385178D01*
X61760289Y-90402387D01*
X61899326Y-90548135D01*
X61903604Y-90551318D01*
X61918235Y-90562204D01*
X62084292Y-90685754D01*
X62089043Y-90688170D01*
X62089047Y-90688172D01*
X62130971Y-90709487D01*
X62289801Y-90790240D01*
X62294895Y-90791822D01*
X62294898Y-90791823D01*
X62442884Y-90837774D01*
X62509977Y-90858607D01*
X62515266Y-90859308D01*
X62733239Y-90888198D01*
X62733244Y-90888198D01*
X62738524Y-90888898D01*
X62743853Y-90888698D01*
X62743855Y-90888698D01*
X62872002Y-90883887D01*
X62968908Y-90880249D01*
X63194541Y-90832907D01*
X63199500Y-90830949D01*
X63199502Y-90830948D01*
X63404006Y-90750185D01*
X63404008Y-90750184D01*
X63408971Y-90748224D01*
X63418034Y-90742725D01*
X63601507Y-90631390D01*
X63601506Y-90631390D01*
X63606067Y-90628623D01*
X63610097Y-90625126D01*
X63776162Y-90481023D01*
X63776164Y-90481021D01*
X63780195Y-90477523D01*
X63846725Y-90396384D01*
X63922990Y-90303373D01*
X63922994Y-90303367D01*
X63926374Y-90299245D01*
X63954510Y-90249818D01*
X64026483Y-90123379D01*
X64040425Y-90098886D01*
X64119087Y-89882175D01*
X64141773Y-89756720D01*
X64159373Y-89659392D01*
X64159374Y-89659385D01*
X64160111Y-89655308D01*
X64161250Y-89631156D01*
X64161250Y-88469110D01*
X64153326Y-88375726D01*
X64147121Y-88302591D01*
X64147120Y-88302587D01*
X64146670Y-88297280D01*
X64145332Y-88292125D01*
X64145331Y-88292119D01*
X64090093Y-88079297D01*
X64090092Y-88079293D01*
X64088751Y-88074128D01*
X64086103Y-88068248D01*
X64054796Y-87998750D01*
X64045055Y-87928425D01*
X64074881Y-87863997D01*
X64134804Y-87825922D01*
X64169678Y-87821000D01*
X68733976Y-87821000D01*
X68802097Y-87841002D01*
G37*
%TD.AperFunction*%
%TD*%
M02*
