%TF.GenerationSoftware,KiCad,Pcbnew,(6.0.5)*%
%TF.CreationDate,2022-05-13T23:52:20-07:00*%
%TF.ProjectId,keyboard-pcb-tutorial,6b657962-6f61-4726-942d-7063622d7475,rev?*%
%TF.SameCoordinates,Original*%
%TF.FileFunction,Copper,L1,Top*%
%TF.FilePolarity,Positive*%
%FSLAX46Y46*%
G04 Gerber Fmt 4.6, Leading zero omitted, Abs format (unit mm)*
G04 Created by KiCad (PCBNEW (6.0.5)) date 2022-05-13 23:52:20*
%MOMM*%
%LPD*%
G01*
G04 APERTURE LIST*
G04 Aperture macros list*
%AMHorizOval*
0 Thick line with rounded ends*
0 $1 width*
0 $2 $3 position (X,Y) of the first rounded end (center of the circle)*
0 $4 $5 position (X,Y) of the second rounded end (center of the circle)*
0 Add line between two ends*
20,1,$1,$2,$3,$4,$5,0*
0 Add two circle primitives to create the rounded ends*
1,1,$1,$2,$3*
1,1,$1,$4,$5*%
G04 Aperture macros list end*
%TA.AperFunction,ComponentPad*%
%ADD10C,2.250000*%
%TD*%
%TA.AperFunction,ComponentPad*%
%ADD11HorizOval,2.250000X0.655001X0.730000X-0.655001X-0.730000X0*%
%TD*%
%TA.AperFunction,ComponentPad*%
%ADD12HorizOval,2.250000X0.020000X0.290000X-0.020000X-0.290000X0*%
%TD*%
%TA.AperFunction,ComponentPad*%
%ADD13O,1.700000X2.700000*%
%TD*%
%TA.AperFunction,ViaPad*%
%ADD14C,0.800000*%
%TD*%
%TA.AperFunction,Conductor*%
%ADD15C,0.381000*%
%TD*%
%TA.AperFunction,Conductor*%
%ADD16C,0.254000*%
%TD*%
G04 APERTURE END LIST*
D10*
%TO.P,MX4,1,COL*%
%TO.N,COL1*%
X126881250Y-111887500D03*
D11*
X126226251Y-112617500D03*
D10*
%TO.P,MX4,2,ROW*%
%TO.N,Net-(D4-Pad2)*%
X131921250Y-110807500D03*
D12*
X131901250Y-111097500D03*
%TD*%
D11*
%TO.P,MX3,1,COL*%
%TO.N,COL1*%
X126226251Y-93567500D03*
D10*
X126881250Y-92837500D03*
%TO.P,MX3,2,ROW*%
%TO.N,Net-(D3-Pad2)*%
X131921250Y-91757500D03*
D12*
X131901250Y-92047500D03*
%TD*%
D10*
%TO.P,MX1,1,COL*%
%TO.N,COL0*%
X107831250Y-92837500D03*
D11*
X107176251Y-93567500D03*
D12*
%TO.P,MX1,2,ROW*%
%TO.N,Net-(D1-Pad2)*%
X112851250Y-92047500D03*
D10*
X112871250Y-91757500D03*
%TD*%
%TO.P,MX2,1,COL*%
%TO.N,COL0*%
X107831250Y-111887500D03*
D11*
X107176251Y-112617500D03*
D10*
%TO.P,MX2,2,ROW*%
%TO.N,Net-(D2-Pad2)*%
X112871250Y-110807500D03*
D12*
X112851250Y-111097500D03*
%TD*%
D13*
%TO.P,USB1,6,SHIELD*%
%TO.N,unconnected-(USB1-Pad6)*%
X62802750Y-89027000D03*
X70102750Y-93527000D03*
X70102750Y-89027000D03*
X62802750Y-93527000D03*
%TD*%
D14*
%TO.N,+5V*%
X81756250Y-118268750D03*
X83322500Y-108743750D03*
X100012500Y-102393750D03*
X83343750Y-105568750D03*
X94456250Y-112712500D03*
%TO.N,Net-(C2-Pad2)*%
X85725000Y-98425000D03*
X87312500Y-98425000D03*
%TO.N,Net-(R3-Pad2)*%
X71437500Y-117475000D03*
X82550000Y-99218750D03*
X73025000Y-96837500D03*
%TD*%
D15*
%TO.N,+5V*%
X88900000Y-118268750D02*
X94456250Y-112712500D01*
X83322500Y-108743750D02*
X83343750Y-108722500D01*
X83343750Y-108722500D02*
X83343750Y-105568750D01*
X81756250Y-118268750D02*
X88900000Y-118268750D01*
X95250000Y-111918750D02*
X94456250Y-112712500D01*
X100012500Y-102393750D02*
X95250000Y-111918750D01*
D16*
%TO.N,Net-(C2-Pad2)*%
X85725000Y-98425000D02*
X87312500Y-98425000D01*
%TO.N,COL0*%
X106521250Y-94297500D02*
X106521250Y-113347500D01*
%TO.N,COL1*%
X125571250Y-94297500D02*
X125571250Y-113347500D01*
%TO.N,Net-(R3-Pad2)*%
X71437500Y-98425000D02*
X73025000Y-96837500D01*
X81756250Y-100012500D02*
X71437500Y-100012500D01*
X71437500Y-117475000D02*
X71437500Y-100012500D01*
X82550000Y-99218750D02*
X81756250Y-100012500D01*
X71437500Y-100012500D02*
X71437500Y-98425000D01*
%TD*%
M02*
