%TF.GenerationSoftware,KiCad,Pcbnew,(6.0.5)*%
%TF.CreationDate,2022-05-13T23:52:20-07:00*%
%TF.ProjectId,keyboard-pcb-tutorial,6b657962-6f61-4726-942d-7063622d7475,rev?*%
%TF.SameCoordinates,Original*%
%TF.FileFunction,Soldermask,Bot*%
%TF.FilePolarity,Negative*%
%FSLAX46Y46*%
G04 Gerber Fmt 4.6, Leading zero omitted, Abs format (unit mm)*
G04 Created by KiCad (PCBNEW (6.0.5)) date 2022-05-13 23:52:20*
%MOMM*%
%LPD*%
G01*
G04 APERTURE LIST*
G04 Aperture macros list*
%AMRoundRect*
0 Rectangle with rounded corners*
0 $1 Rounding radius*
0 $2 $3 $4 $5 $6 $7 $8 $9 X,Y pos of 4 corners*
0 Add a 4 corners polygon primitive as box body*
4,1,4,$2,$3,$4,$5,$6,$7,$8,$9,$2,$3,0*
0 Add four circle primitives for the rounded corners*
1,1,$1+$1,$2,$3*
1,1,$1+$1,$4,$5*
1,1,$1+$1,$6,$7*
1,1,$1+$1,$8,$9*
0 Add four rect primitives between the rounded corners*
20,1,$1+$1,$2,$3,$4,$5,0*
20,1,$1+$1,$4,$5,$6,$7,0*
20,1,$1+$1,$6,$7,$8,$9,0*
20,1,$1+$1,$8,$9,$2,$3,0*%
%AMHorizOval*
0 Thick line with rounded ends*
0 $1 width*
0 $2 $3 position (X,Y) of the first rounded end (center of the circle)*
0 $4 $5 position (X,Y) of the second rounded end (center of the circle)*
0 Add line between two ends*
20,1,$1,$2,$3,$4,$5,0*
0 Add two circle primitives to create the rounded ends*
1,1,$1,$2,$3*
1,1,$1,$4,$5*%
G04 Aperture macros list end*
%ADD10C,1.750000*%
%ADD11C,3.987800*%
%ADD12C,2.250000*%
%ADD13HorizOval,2.250000X0.655001X0.730000X-0.655001X-0.730000X0*%
%ADD14HorizOval,2.250000X0.020000X0.290000X-0.020000X-0.290000X0*%
%ADD15RoundRect,0.250000X0.450000X-0.262500X0.450000X0.262500X-0.450000X0.262500X-0.450000X-0.262500X0*%
%ADD16R,1.200000X0.900000*%
%ADD17RoundRect,0.250000X0.475000X-0.250000X0.475000X0.250000X-0.475000X0.250000X-0.475000X-0.250000X0*%
%ADD18RoundRect,0.250000X0.625000X-0.375000X0.625000X0.375000X-0.625000X0.375000X-0.625000X-0.375000X0*%
%ADD19RoundRect,0.250000X-0.250000X-0.475000X0.250000X-0.475000X0.250000X0.475000X-0.250000X0.475000X0*%
%ADD20RoundRect,0.250000X0.250000X0.475000X-0.250000X0.475000X-0.250000X-0.475000X0.250000X-0.475000X0*%
%ADD21R,0.500000X2.250000*%
%ADD22O,1.700000X2.700000*%
%ADD23RoundRect,0.250000X-0.450000X0.262500X-0.450000X-0.262500X0.450000X-0.262500X0.450000X0.262500X0*%
%ADD24R,1.400000X1.200000*%
%ADD25RoundRect,0.250000X-0.475000X0.250000X-0.475000X-0.250000X0.475000X-0.250000X0.475000X0.250000X0*%
%ADD26R,1.500000X0.550000*%
%ADD27R,0.550000X1.500000*%
%ADD28R,1.800000X1.100000*%
G04 APERTURE END LIST*
D10*
%TO.C,MX4*%
X124301250Y-115887500D03*
X134461250Y-115887500D03*
D11*
X129381250Y-115887500D03*
D12*
X126881250Y-111887500D03*
D13*
X126226251Y-112617500D03*
D12*
X131921250Y-110807500D03*
D14*
X131901250Y-111097500D03*
%TD*%
D10*
%TO.C,MX3*%
X124301250Y-96837500D03*
D11*
X129381250Y-96837500D03*
D10*
X134461250Y-96837500D03*
D13*
X126226251Y-93567500D03*
D12*
X126881250Y-92837500D03*
X131921250Y-91757500D03*
D14*
X131901250Y-92047500D03*
%TD*%
D10*
%TO.C,MX1*%
X105251250Y-96837500D03*
D11*
X110331250Y-96837500D03*
D10*
X115411250Y-96837500D03*
D12*
X107831250Y-92837500D03*
D13*
X107176251Y-93567500D03*
D14*
X112851250Y-92047500D03*
D12*
X112871250Y-91757500D03*
%TD*%
D11*
%TO.C,MX2*%
X110331250Y-115887500D03*
D10*
X115411250Y-115887500D03*
X105251250Y-115887500D03*
D12*
X107831250Y-111887500D03*
D13*
X107176251Y-112617500D03*
D12*
X112871250Y-110807500D03*
D14*
X112851250Y-111097500D03*
%TD*%
D15*
%TO.C,R3*%
X75406250Y-98543750D03*
X75406250Y-96718750D03*
%TD*%
D16*
%TO.C,D1*%
X118618000Y-98487500D03*
X118618000Y-95187500D03*
%TD*%
D17*
%TO.C,C1*%
X78581250Y-98581250D03*
X78581250Y-96681250D03*
%TD*%
D18*
%TO.C,F1*%
X62706250Y-106175000D03*
X62706250Y-103375000D03*
%TD*%
D17*
%TO.C,C4*%
X96837500Y-102550000D03*
X96837500Y-100650000D03*
%TD*%
D19*
%TO.C,C7*%
X81600000Y-115093750D03*
X83500000Y-115093750D03*
%TD*%
D20*
%TO.C,C6*%
X77943750Y-105568750D03*
X76043750Y-105568750D03*
%TD*%
D21*
%TO.C,USB1*%
X68052750Y-93527000D03*
X67252750Y-93527000D03*
X66452750Y-93527000D03*
X65652750Y-93527000D03*
X64852750Y-93527000D03*
D22*
X62802750Y-89027000D03*
X70102750Y-93527000D03*
X70102750Y-89027000D03*
X62802750Y-93527000D03*
%TD*%
D16*
%TO.C,D4*%
X137318750Y-117537500D03*
X137318750Y-114237500D03*
%TD*%
D23*
%TO.C,R4*%
X96837500Y-110212500D03*
X96837500Y-112037500D03*
%TD*%
%TO.C,R1*%
X64547750Y-97131500D03*
X64547750Y-98956500D03*
%TD*%
D17*
%TO.C,C2*%
X83343750Y-96200000D03*
X83343750Y-94300000D03*
%TD*%
D16*
%TO.C,D3*%
X137541000Y-98487500D03*
X137541000Y-95187500D03*
%TD*%
D24*
%TO.C,Y1*%
X88412500Y-96100000D03*
X86212500Y-96100000D03*
X86212500Y-94400000D03*
X88412500Y-94400000D03*
%TD*%
D25*
%TO.C,C3*%
X91281250Y-94300000D03*
X91281250Y-96200000D03*
%TD*%
D26*
%TO.C,U1*%
X81612500Y-110362500D03*
X81612500Y-109562500D03*
X81612500Y-108762500D03*
X81612500Y-107962500D03*
X81612500Y-107162500D03*
X81612500Y-106362500D03*
X81612500Y-105562500D03*
X81612500Y-104762500D03*
X81612500Y-103962500D03*
X81612500Y-103162500D03*
X81612500Y-102362500D03*
D27*
X83312500Y-100662500D03*
X84112500Y-100662500D03*
X84912500Y-100662500D03*
X85712500Y-100662500D03*
X86512500Y-100662500D03*
X87312500Y-100662500D03*
X88112500Y-100662500D03*
X88912500Y-100662500D03*
X89712500Y-100662500D03*
X90512500Y-100662500D03*
X91312500Y-100662500D03*
D26*
X93012500Y-102362500D03*
X93012500Y-103162500D03*
X93012500Y-103962500D03*
X93012500Y-104762500D03*
X93012500Y-105562500D03*
X93012500Y-106362500D03*
X93012500Y-107162500D03*
X93012500Y-107962500D03*
X93012500Y-108762500D03*
X93012500Y-109562500D03*
X93012500Y-110362500D03*
D27*
X91312500Y-112062500D03*
X90512500Y-112062500D03*
X89712500Y-112062500D03*
X88912500Y-112062500D03*
X88112500Y-112062500D03*
X87312500Y-112062500D03*
X86512500Y-112062500D03*
X85712500Y-112062500D03*
X84912500Y-112062500D03*
X84112500Y-112062500D03*
X83312500Y-112062500D03*
%TD*%
D28*
%TO.C,SW1*%
X62781250Y-122500000D03*
X68981250Y-118800000D03*
X62781250Y-118800000D03*
X68981250Y-122500000D03*
%TD*%
D23*
%TO.C,R2*%
X67849750Y-97131500D03*
X67849750Y-98956500D03*
%TD*%
D20*
%TO.C,C5*%
X93025000Y-115093750D03*
X91125000Y-115093750D03*
%TD*%
D16*
%TO.C,D2*%
X118268750Y-117537500D03*
X118268750Y-114237500D03*
%TD*%
M02*
